<?xml version="1.0" encoding="UTF-8"?>
<svg xmlns="http://www.w3.org/2000/svg" xmlns:xlink="http://www.w3.org/1999/xlink" width="px" height="24px" viewBox="0 0 24 24" version="1.1">
<g id="surface1">
<path style=" stroke:none;fill-rule:nonzero;fill:rgb(50.588238%,73.725492%,0%);fill-opacity:1;" d="M 11.988281 0 C 8.144531 0 5.132812 3.019531 5.132812 6.878906 C 5.132812 10.738281 8.144531 13.761719 11.988281 13.761719 C 15.824219 13.761719 18.839844 10.738281 18.839844 6.878906 C 18.839844 3.019531 15.824219 0 11.988281 0 "/>
<path style=" stroke:none;fill-rule:nonzero;fill:rgb(100%,100%,100%);fill-opacity:1;" d="M 9.203125 7.453125 C 9.203125 8.035156 9.53125 8.371094 10.007812 8.371094 C 10.464844 8.371094 10.71875 8.035156 10.71875 7.667969 C 10.71875 7.222656 10.511719 6.925781 9.929688 6.925781 L 9.449219 6.925781 L 9.449219 5.96875 L 9.929688 5.96875 C 10.480469 5.96875 10.640625 5.699219 10.640625 5.308594 C 10.640625 4.902344 10.390625 4.714844 10.03125 4.714844 C 9.503906 4.714844 9.347656 5.027344 9.347656 5.492188 L 8.109375 5.492188 C 8.109375 4.582031 8.675781 3.78125 9.996094 3.78125 C 10.984375 3.78125 11.867188 4.277344 11.867188 5.28125 C 11.867188 5.882812 11.507812 6.320312 11.078125 6.464844 C 11.558594 6.640625 11.953125 7.078125 11.953125 7.761719 C 11.953125 8.777344 11.039062 9.367188 10.023438 9.367188 C 8.699219 9.367188 7.964844 8.585938 7.964844 7.453125 Z M 9.203125 7.453125 "/>
<path style=" stroke:none;fill-rule:nonzero;fill:rgb(100%,100%,100%);fill-opacity:1;" d="M 16.246094 9.25 L 14.890625 9.25 L 14.285156 8.179688 L 13.679688 9.25 L 12.324219 9.25 L 13.597656 7.390625 L 12.347656 5.558594 L 13.703125 5.558594 L 14.285156 6.601562 L 14.867188 5.558594 L 16.222656 5.558594 L 14.980469 7.390625 Z M 16.246094 9.25 "/>
<path style=" stroke:none;fill-rule:nonzero;fill:rgb(50.588238%,73.725492%,0%);fill-opacity:1;" d="M 2.972656 16.285156 C 1.296875 16.285156 -0.015625 17.601562 -0.015625 19.285156 C -0.015625 20.96875 1.296875 22.285156 2.972656 22.285156 C 4.644531 22.285156 5.957031 20.96875 5.957031 19.285156 C 5.960938 17.601562 4.644531 16.285156 2.972656 16.285156 M 2.972656 21.257812 C 1.90625 21.257812 1.039062 20.390625 1.039062 19.285156 C 1.039062 18.179688 1.90625 17.3125 2.972656 17.3125 C 4.03125 17.3125 4.902344 18.179688 4.902344 19.285156 C 4.90625 20.390625 4.035156 21.257812 2.972656 21.257812 M 23.984375 16.285156 L 21.699219 21.859375 L 21.136719 23.238281 L 20.824219 24 L 19.699219 24 L 20.570312 21.859375 L 18.238281 16.285156 L 19.429688 16.285156 L 21.136719 20.476562 L 22.851562 16.285156 Z M 9.261719 17.277344 C 8.203125 17.277344 7.667969 17.84375 7.667969 18.960938 L 7.667969 22.277344 L 6.585938 22.277344 L 6.585938 18.882812 C 6.59375 18.289062 6.699219 17.867188 6.941406 17.472656 C 7.230469 17.03125 7.910156 16.285156 9.261719 16.285156 C 10.605469 16.285156 11.289062 17.03125 11.574219 17.472656 C 11.816406 17.867188 11.925781 18.289062 11.933594 18.882812 L 11.933594 22.277344 L 10.847656 22.277344 L 10.847656 18.960938 C 10.847656 17.84375 10.3125 17.277344 9.261719 17.277344 M 13.679688 18.742188 C 13.824219 18.019531 14.515625 17.3125 15.449219 17.3125 C 16.378906 17.3125 17.070312 18.019531 17.210938 18.742188 Z M 18.351562 19.207031 C 18.34375 17.601562 17.042969 16.292969 15.457031 16.292969 C 13.824219 16.292969 12.542969 17.605469 12.542969 19.277344 C 12.542969 20.0625 12.84375 20.808594 13.382812 21.378906 C 13.933594 21.957031 14.660156 22.273438 15.4375 22.273438 C 16.316406 22.273438 17.554688 21.851562 18.144531 20.648438 C 18.15625 20.621094 18.160156 20.609375 18.160156 20.609375 L 16.976562 20.609375 L 16.96875 20.617188 C 16.652344 20.996094 16.050781 21.257812 15.480469 21.257812 C 14.753906 21.257812 13.882812 20.777344 13.644531 19.695312 L 18.328125 19.695312 C 18.339844 19.585938 18.351562 19.359375 18.351562 19.207031 "/>
</g>
</svg>
