<?xml version="1.0" encoding="UTF-8"?>
<svg xmlns="http://www.w3.org/2000/svg" xmlns:xlink="http://www.w3.org/1999/xlink" width="px" height="24px" viewBox="0 0 21 23" version="1.1">
<g id="surface1">
<path style=" stroke:none;fill-rule:nonzero;fill:rgb(50.588238%,73.725492%,0%);fill-opacity:1;" d="M 10.5 0 C 8.902344 -0.015625 7.367188 0.601562 6.238281 1.707031 C 5.113281 2.816406 4.488281 4.324219 4.503906 5.890625 C 4.46875 8.007812 5.601562 9.984375 7.464844 11.054688 C 9.332031 12.125 11.640625 12.125 13.507812 11.054688 C 15.375 9.984375 16.503906 8.007812 16.46875 5.890625 C 16.488281 4.328125 15.867188 2.824219 14.742188 1.71875 C 13.621094 0.609375 12.09375 -0.0078125 10.5 0 "/>
<path style=" stroke:none;fill-rule:nonzero;fill:rgb(100%,100%,100%);fill-opacity:1;" d="M 8.054688 6.378906 C 8.054688 6.878906 8.34375 7.164062 8.753906 7.164062 C 8.921875 7.171875 9.082031 7.113281 9.199219 6.996094 C 9.316406 6.882812 9.382812 6.726562 9.375 6.5625 C 9.375 6.183594 9.203125 5.925781 8.6875 5.925781 L 8.269531 5.925781 L 8.269531 5.105469 L 8.691406 5.105469 C 9.171875 5.105469 9.3125 4.878906 9.3125 4.542969 C 9.328125 4.402344 9.273438 4.261719 9.171875 4.160156 C 9.066406 4.0625 8.921875 4.011719 8.777344 4.03125 C 8.316406 4.03125 8.183594 4.296875 8.183594 4.699219 L 7.101562 4.699219 C 7.101562 3.917969 7.597656 3.230469 8.753906 3.230469 C 9.613281 3.230469 10.382812 3.65625 10.382812 4.515625 C 10.398438 4.964844 10.125 5.371094 9.695312 5.53125 C 10.167969 5.695312 10.476562 6.144531 10.457031 6.636719 C 10.457031 7.507812 9.664062 8.007812 8.773438 8.007812 C 7.617188 8.007812 6.976562 7.339844 6.976562 6.367188 Z M 8.054688 6.378906 "/>
<path style=" stroke:none;fill-rule:nonzero;fill:rgb(100%,100%,100%);fill-opacity:1;" d="M 14.207031 7.921875 L 13.023438 7.921875 L 12.496094 7 L 11.96875 7.921875 L 10.785156 7.921875 L 11.894531 6.324219 L 10.804688 4.757812 L 11.988281 4.757812 L 12.496094 5.652344 L 13.003906 4.757812 L 14.183594 4.757812 L 13.101562 6.324219 Z M 14.207031 7.921875 "/>
<path style=" stroke:none;fill-rule:nonzero;fill:rgb(50.588238%,73.725492%,0%);fill-opacity:1;" d="M 2.621094 13.941406 C 1.175781 13.941406 0.00390625 15.089844 0.00390625 16.507812 C 0.00390625 17.929688 1.175781 19.078125 2.621094 19.078125 C 4.066406 19.078125 5.242188 17.929688 5.242188 16.507812 C 5.242188 15.089844 4.066406 13.941406 2.621094 13.941406 M 2.621094 18.199219 C 1.921875 18.210938 1.28125 17.808594 1.003906 17.179688 C 0.726562 16.550781 0.863281 15.816406 1.355469 15.324219 C 1.84375 14.835938 2.589844 14.683594 3.238281 14.945312 C 3.886719 15.203125 4.308594 15.824219 4.308594 16.507812 C 4.316406 16.953125 4.140625 17.382812 3.824219 17.699219 C 3.507812 18.015625 3.074219 18.195312 2.621094 18.199219 M 20.960938 13.941406 L 18.964844 18.710938 L 18.472656 19.894531 L 18.203125 20.542969 L 17.21875 20.542969 L 17.980469 18.714844 L 15.945312 13.941406 L 16.992188 13.941406 L 18.484375 17.527344 L 19.976562 13.941406 Z M 8.109375 14.789062 C 7.1875 14.789062 6.710938 15.273438 6.710938 16.230469 L 6.710938 19.070312 L 5.773438 19.070312 L 5.773438 16.160156 C 5.757812 15.738281 5.867188 15.324219 6.085938 14.960938 C 6.527344 14.292969 7.296875 13.902344 8.109375 13.933594 C 8.917969 13.902344 9.6875 14.292969 10.128906 14.960938 C 10.34375 15.324219 10.453125 15.738281 10.4375 16.160156 L 10.4375 19.070312 L 9.496094 19.070312 L 9.496094 16.230469 C 9.496094 15.273438 9.027344 14.789062 8.109375 14.789062 M 11.964844 16.042969 C 12.113281 15.320312 12.757812 14.800781 13.507812 14.800781 C 14.257812 14.800781 14.902344 15.320312 15.050781 16.042969 Z M 16.042969 16.4375 C 16.078125 15.519531 15.597656 14.65625 14.789062 14.191406 C 13.980469 13.730469 12.976562 13.742188 12.179688 14.222656 C 11.382812 14.707031 10.921875 15.582031 10.980469 16.496094 C 10.980469 17.167969 11.246094 17.8125 11.714844 18.296875 C 12.179688 18.78125 12.828125 19.058594 13.507812 19.0625 C 14.277344 19.0625 15.355469 18.699219 15.871094 17.671875 C 15.875 17.660156 15.878906 17.648438 15.882812 17.636719 L 14.84375 17.636719 C 14.507812 17.988281 14.035156 18.1875 13.542969 18.183594 C 12.753906 18.171875 12.082031 17.609375 11.941406 16.847656 L 16.023438 16.847656 C 16.023438 16.753906 16.042969 16.5625 16.042969 16.429688 "/>
<path style=" stroke:none;fill-rule:nonzero;fill:rgb(50.588238%,73.725492%,0%);fill-opacity:1;" d="M 1.464844 22.121094 C 1.464844 22.460938 1.167969 22.609375 0.808594 22.609375 C 0.449219 22.609375 0.140625 22.40625 0.140625 22.027344 L 0.511719 22.027344 C 0.511719 22.238281 0.644531 22.3125 0.828125 22.3125 C 0.980469 22.3125 1.097656 22.265625 1.097656 22.125 C 1.097656 21.988281 0.933594 21.957031 0.585938 21.835938 C 0.359375 21.742188 0.199219 21.664062 0.199219 21.386719 C 0.199219 21.105469 0.484375 20.917969 0.816406 20.917969 C 0.976562 20.90625 1.128906 20.957031 1.25 21.0625 C 1.367188 21.164062 1.4375 21.308594 1.445312 21.464844 L 1.074219 21.464844 C 1.082031 21.394531 1.058594 21.324219 1.003906 21.277344 C 0.953125 21.226562 0.882812 21.203125 0.808594 21.214844 C 0.679688 21.214844 0.574219 21.277344 0.574219 21.386719 C 0.574219 21.496094 0.726562 21.542969 1.023438 21.65625 C 1.25 21.742188 1.464844 21.828125 1.464844 22.121094 Z M 1.464844 22.121094 "/>
<path style=" stroke:none;fill-rule:nonzero;fill:rgb(50.588238%,73.725492%,0%);fill-opacity:1;" d="M 3.476562 20.960938 L 3.476562 22.570312 L 3.09375 22.570312 L 3.09375 22.351562 C 2.976562 22.511719 2.789062 22.609375 2.585938 22.609375 C 2.109375 22.609375 1.722656 22.230469 1.722656 21.765625 C 1.722656 21.296875 2.109375 20.917969 2.585938 20.917969 C 2.789062 20.917969 2.976562 21.015625 3.09375 21.179688 L 3.09375 20.960938 Z M 3.09375 21.765625 C 3.070312 21.507812 2.847656 21.316406 2.585938 21.328125 C 2.324219 21.34375 2.121094 21.558594 2.128906 21.8125 C 2.132812 22.070312 2.34375 22.273438 2.605469 22.277344 C 2.742188 22.277344 2.871094 22.222656 2.964844 22.125 C 3.054688 22.027344 3.101562 21.894531 3.09375 21.765625 Z M 3.09375 21.765625 "/>
<path style=" stroke:none;fill-rule:nonzero;fill:rgb(50.588238%,73.725492%,0%);fill-opacity:1;" d="M 3.992188 20.960938 L 4.375 20.960938 L 4.375 21.183594 C 4.488281 21.003906 4.699219 20.902344 4.914062 20.917969 C 5.105469 20.902344 5.292969 20.984375 5.40625 21.136719 C 5.492188 21.28125 5.527344 21.449219 5.511719 21.613281 L 5.511719 22.570312 L 5.125 22.570312 L 5.125 21.742188 C 5.125 21.46875 5.042969 21.257812 4.773438 21.257812 C 4.503906 21.257812 4.378906 21.46875 4.378906 21.742188 L 4.378906 22.574219 L 3.996094 22.574219 Z M 3.992188 20.960938 "/>
<path style=" stroke:none;fill-rule:nonzero;fill:rgb(50.588238%,73.725492%,0%);fill-opacity:1;" d="M 7.183594 22.121094 C 7.183594 22.460938 6.886719 22.609375 6.527344 22.609375 C 6.171875 22.609375 5.859375 22.40625 5.859375 22.027344 L 6.230469 22.027344 C 6.230469 22.238281 6.367188 22.3125 6.550781 22.3125 C 6.703125 22.3125 6.816406 22.265625 6.816406 22.125 C 6.816406 21.988281 6.640625 21.957031 6.308594 21.835938 C 6.078125 21.746094 5.917969 21.664062 5.917969 21.386719 C 5.917969 21.109375 6.195312 20.917969 6.53125 20.917969 C 6.691406 20.90625 6.84375 20.960938 6.960938 21.0625 C 7.082031 21.164062 7.152344 21.308594 7.160156 21.464844 L 6.789062 21.464844 C 6.796875 21.394531 6.773438 21.324219 6.71875 21.277344 C 6.667969 21.226562 6.597656 21.203125 6.523438 21.214844 C 6.394531 21.214844 6.289062 21.277344 6.289062 21.386719 C 6.289062 21.496094 6.441406 21.542969 6.738281 21.65625 C 6.96875 21.742188 7.183594 21.828125 7.183594 22.121094 Z M 7.183594 22.121094 "/>
<path style=" stroke:none;fill-rule:nonzero;fill:rgb(50.588238%,73.725492%,0%);fill-opacity:1;" d="M 9.433594 20.488281 C 9.375 20.472656 9.316406 20.464844 9.257812 20.464844 C 9.136719 20.464844 8.996094 20.464844 8.996094 20.71875 L 8.996094 20.960938 L 9.425781 20.960938 L 9.425781 21.273438 L 9.003906 21.273438 L 9.003906 22.570312 L 8.617188 22.570312 L 8.617188 21.273438 L 8.285156 21.273438 L 8.285156 20.960938 L 8.617188 20.960938 L 8.617188 20.761719 C 8.617188 20.144531 9.019531 20.132812 9.210938 20.132812 C 9.285156 20.128906 9.363281 20.144531 9.433594 20.171875 Z M 9.433594 20.488281 "/>
<path style=" stroke:none;fill-rule:nonzero;fill:rgb(50.588238%,73.725492%,0%);fill-opacity:1;" d="M 10.777344 21.308594 C 10.726562 21.296875 10.675781 21.289062 10.625 21.292969 C 10.296875 21.292969 10.117188 21.472656 10.117188 21.875 L 10.117188 22.558594 L 9.734375 22.558594 L 9.734375 20.953125 L 10.117188 20.953125 L 10.117188 21.210938 C 10.226562 21.039062 10.417969 20.929688 10.625 20.933594 C 10.675781 20.929688 10.726562 20.9375 10.777344 20.957031 Z M 10.777344 21.308594 "/>
<path style=" stroke:none;fill-rule:nonzero;fill:rgb(50.588238%,73.725492%,0%);fill-opacity:1;" d="M 12.621094 20.960938 L 12.621094 22.570312 L 12.246094 22.570312 L 12.246094 22.351562 C 12.128906 22.515625 11.941406 22.609375 11.738281 22.609375 C 11.261719 22.609375 10.878906 22.230469 10.878906 21.765625 C 10.878906 21.296875 11.261719 20.917969 11.738281 20.917969 C 11.941406 20.917969 12.128906 21.015625 12.246094 21.179688 L 12.246094 20.960938 Z M 12.246094 21.765625 C 12.222656 21.507812 12 21.316406 11.738281 21.328125 C 11.476562 21.34375 11.273438 21.558594 11.28125 21.8125 C 11.285156 22.070312 11.5 22.277344 11.761719 22.277344 C 11.894531 22.277344 12.023438 22.21875 12.117188 22.125 C 12.207031 22.027344 12.253906 21.894531 12.246094 21.765625 Z M 12.246094 21.765625 "/>
<path style=" stroke:none;fill-rule:nonzero;fill:rgb(50.588238%,73.725492%,0%);fill-opacity:1;" d="M 13.324219 20.09375 C 13.480469 20.09375 13.609375 20.21875 13.609375 20.371094 C 13.609375 20.523438 13.484375 20.648438 13.328125 20.648438 C 13.171875 20.648438 13.042969 20.527344 13.042969 20.375 C 13.042969 20.222656 13.167969 20.097656 13.324219 20.09375 Z M 13.132812 20.960938 L 13.519531 20.960938 L 13.519531 22.570312 L 13.132812 22.570312 Z M 13.132812 20.960938 "/>
<path style=" stroke:none;fill-rule:nonzero;fill:rgb(50.588238%,73.725492%,0%);fill-opacity:1;" d="M 15.226562 22.121094 C 15.226562 22.460938 14.929688 22.609375 14.570312 22.609375 C 14.210938 22.609375 13.902344 22.40625 13.902344 22.027344 L 14.277344 22.027344 C 14.277344 22.238281 14.410156 22.3125 14.589844 22.3125 C 14.742188 22.3125 14.859375 22.265625 14.859375 22.125 C 14.859375 21.988281 14.695312 21.957031 14.347656 21.835938 C 14.121094 21.746094 13.957031 21.664062 13.957031 21.386719 C 13.957031 21.109375 14.238281 20.917969 14.574219 20.917969 C 14.730469 20.90625 14.886719 20.957031 15.003906 21.0625 C 15.125 21.164062 15.195312 21.308594 15.199219 21.464844 L 14.828125 21.464844 C 14.835938 21.394531 14.808594 21.324219 14.757812 21.277344 C 14.707031 21.226562 14.632812 21.203125 14.5625 21.214844 C 14.433594 21.214844 14.328125 21.277344 14.328125 21.386719 C 14.328125 21.496094 14.480469 21.542969 14.777344 21.65625 C 15.007812 21.742188 15.226562 21.828125 15.226562 22.121094 Z M 15.226562 22.121094 "/>
<path style=" stroke:none;fill-rule:nonzero;fill:rgb(50.588238%,73.725492%,0%);fill-opacity:1;" d="M 0.0117188 23 L 0.0117188 22.828125 L 15.375 22.828125 L 15.375 23 Z M 0.0117188 23 "/>
</g>
</svg>
