<?xml version="1.0" encoding="UTF-8"?>
<svg xmlns="http://www.w3.org/2000/svg" xmlns:xlink="http://www.w3.org/1999/xlink" width="px" height="24px" viewBox="0 0 24 24" version="1.1">
<g id="surface1">
<path style=" stroke:none;fill-rule:nonzero;fill:rgb(50.588238%,73.725492%,0%);fill-opacity:1;" d="M 2.988281 16.285156 C 1.3125 16.285156 0 17.601562 0 19.285156 C 0 20.964844 1.3125 22.285156 2.988281 22.285156 C 4.660156 22.285156 5.972656 20.964844 5.972656 19.285156 C 5.972656 17.601562 4.660156 16.285156 2.988281 16.285156 M 2.988281 21.257812 C 1.925781 21.257812 1.054688 20.390625 1.054688 19.285156 C 1.054688 18.179688 1.925781 17.3125 2.988281 17.3125 C 4.046875 17.3125 4.921875 18.179688 4.921875 19.285156 C 4.921875 20.390625 4.046875 21.257812 2.988281 21.257812 M 24 16.285156 L 21.714844 21.859375 L 21.152344 23.238281 L 20.839844 24 L 19.714844 24 L 20.589844 21.859375 L 18.253906 16.285156 L 19.441406 16.285156 L 21.152344 20.476562 L 22.863281 16.285156 Z M 9.273438 17.277344 C 8.21875 17.277344 7.683594 17.84375 7.683594 18.960938 L 7.683594 22.277344 L 6.597656 22.277344 L 6.597656 18.882812 C 6.609375 18.289062 6.714844 17.867188 6.957031 17.472656 C 7.242188 17.03125 7.925781 16.285156 9.273438 16.285156 C 10.617188 16.285156 11.300781 17.03125 11.589844 17.472656 C 11.828125 17.867188 11.941406 18.289062 11.945312 18.882812 L 11.945312 22.277344 L 10.863281 22.277344 L 10.863281 18.960938 C 10.863281 17.84375 10.328125 17.277344 9.273438 17.277344 M 13.695312 18.742188 C 13.839844 18.019531 14.53125 17.3125 15.460938 17.3125 C 16.390625 17.3125 17.085938 18.019531 17.226562 18.742188 Z M 18.367188 19.207031 C 18.355469 17.601562 17.058594 16.292969 15.472656 16.292969 C 13.839844 16.292969 12.558594 17.605469 12.558594 19.277344 C 12.558594 20.0625 12.859375 20.808594 13.398438 21.378906 C 13.949219 21.957031 14.679688 22.273438 15.453125 22.273438 C 16.335938 22.273438 17.570312 21.851562 18.160156 20.648438 C 18.171875 20.621094 18.175781 20.609375 18.175781 20.609375 L 16.992188 20.609375 L 16.984375 20.617188 C 16.667969 20.996094 16.066406 21.257812 15.496094 21.257812 C 14.769531 21.257812 13.898438 20.777344 13.660156 19.695312 L 18.34375 19.695312 C 18.355469 19.585938 18.367188 19.359375 18.367188 19.207031 "/>
<path style=" stroke:none;fill-rule:nonzero;fill:rgb(50.588238%,73.725492%,0%);fill-opacity:1;" d="M 12.007812 0 C 8.164062 0 5.152344 3.019531 5.152344 6.875 C 5.152344 10.726562 8.160156 13.75 12.003906 13.75 C 15.835938 13.75 18.84375 10.726562 18.84375 6.875 C 18.847656 3.019531 15.839844 0 12.007812 0 "/>
<path style=" stroke:none;fill-rule:nonzero;fill:rgb(100%,100%,100%);fill-opacity:1;" d="M 16.257812 9.242188 L 14.902344 9.242188 L 14.296875 8.171875 L 13.695312 9.242188 L 12.339844 9.242188 L 13.609375 7.382812 L 12.363281 5.554688 L 13.71875 5.554688 L 14.296875 6.597656 L 14.878906 5.554688 L 16.234375 5.554688 L 14.992188 7.382812 Z M 16.257812 9.242188 "/>
<path style=" stroke:none;fill-rule:nonzero;fill:rgb(100%,100%,100%);fill-opacity:1;" d="M 9.996094 7.832031 L 7.75 7.832031 L 7.75 3.761719 L 9.050781 3.761719 L 9.050781 6.730469 L 9.996094 6.730469 L 9.996094 5.179688 L 11.289062 5.179688 L 11.289062 6.730469 L 11.972656 6.730469 L 11.972656 7.828125 L 11.289062 7.828125 L 11.289062 9.378906 L 9.996094 9.378906 Z M 9.996094 7.832031 "/>
</g>
</svg>
