<?xml version="1.0" encoding="UTF-8"?>
<svg xmlns="http://www.w3.org/2000/svg" xmlns:xlink="http://www.w3.org/1999/xlink" width="px" height="24px" viewBox="0 0 21 23" version="1.1">
<g id="surface1">
<path style=" stroke:none;fill-rule:nonzero;fill:rgb(50.588238%,73.725492%,0%);fill-opacity:1;" d="M 2.644531 13.941406 C 1.199219 13.941406 0.0273438 15.089844 0.0273438 16.507812 C 0.0273438 17.929688 1.199219 19.078125 2.644531 19.078125 C 4.089844 19.078125 5.261719 17.929688 5.261719 16.507812 C 5.261719 15.089844 4.089844 13.941406 2.644531 13.941406 M 2.644531 18.199219 C 1.945312 18.214844 1.304688 17.8125 1.027344 17.179688 C 0.746094 16.550781 0.886719 15.816406 1.375 15.328125 C 1.863281 14.835938 2.609375 14.683594 3.257812 14.945312 C 3.90625 15.203125 4.328125 15.824219 4.328125 16.507812 C 4.335938 16.953125 4.160156 17.378906 3.84375 17.695312 C 3.527344 18.015625 3.097656 18.195312 2.644531 18.199219 M 20.972656 13.941406 L 18.980469 18.710938 L 18.488281 19.894531 L 18.214844 20.542969 L 17.234375 20.542969 L 17.996094 18.714844 L 15.957031 13.941406 L 16.996094 13.941406 L 18.488281 17.527344 L 19.980469 13.941406 Z M 8.121094 14.789062 C 7.199219 14.789062 6.722656 15.273438 6.722656 16.230469 L 6.722656 19.070312 L 5.785156 19.070312 L 5.785156 16.160156 C 5.757812 15.546875 5.996094 14.953125 6.441406 14.527344 C 6.890625 14.101562 7.5 13.886719 8.121094 13.933594 C 8.933594 13.902344 9.703125 14.292969 10.144531 14.960938 C 10.359375 15.324219 10.46875 15.738281 10.453125 16.160156 L 10.453125 19.070312 L 9.507812 19.070312 L 9.507812 16.230469 C 9.507812 15.273438 9.042969 14.789062 8.121094 14.789062 M 11.976562 16.042969 C 12.121094 15.320312 12.769531 14.796875 13.519531 14.796875 C 14.273438 14.796875 14.917969 15.320312 15.0625 16.042969 Z M 16.054688 16.4375 C 16.09375 15.519531 15.609375 14.65625 14.800781 14.191406 C 13.992188 13.730469 12.988281 13.742188 12.191406 14.222656 C 11.394531 14.707031 10.933594 15.582031 10.992188 16.496094 C 10.992188 17.167969 11.25 17.816406 11.722656 18.300781 C 12.1875 18.789062 12.832031 19.066406 13.511719 19.066406 C 14.28125 19.066406 15.363281 18.703125 15.875 17.675781 C 15.882812 17.664062 15.886719 17.652344 15.890625 17.640625 L 14.863281 17.640625 C 14.527344 17.992188 14.058594 18.191406 13.566406 18.1875 C 12.773438 18.175781 12.105469 17.617188 11.960938 16.855469 L 16.035156 16.855469 C 16.035156 16.757812 16.054688 16.566406 16.054688 16.433594 "/>
<path style=" stroke:none;fill-rule:nonzero;fill:rgb(50.588238%,73.725492%,0%);fill-opacity:1;" d="M 10.5 0 C 8.90625 -0.0117188 7.378906 0.605469 6.253906 1.714844 C 5.128906 2.820312 4.507812 4.324219 4.523438 5.882812 C 4.523438 9.121094 7.199219 11.746094 10.5 11.746094 C 13.800781 11.746094 16.476562 9.121094 16.476562 5.882812 C 16.496094 4.320312 15.875 2.816406 14.75 1.710938 C 13.625 0.601562 12.09375 -0.015625 10.5 0 "/>
<path style=" stroke:none;fill-rule:nonzero;fill:rgb(100%,100%,100%);fill-opacity:1;" d="M 14.214844 7.910156 L 13.03125 7.910156 L 12.503906 6.992188 L 11.976562 7.910156 L 10.796875 7.910156 L 11.90625 6.320312 L 10.816406 4.757812 L 12 4.757812 L 12.503906 5.644531 L 13.011719 4.757812 L 14.195312 4.757812 L 13.113281 6.320312 Z M 14.214844 7.910156 "/>
<path style=" stroke:none;fill-rule:nonzero;fill:rgb(100%,100%,100%);fill-opacity:1;" d="M 8.753906 6.703125 L 6.789062 6.703125 L 6.789062 3.21875 L 7.925781 3.21875 L 7.925781 5.761719 L 8.753906 5.761719 L 8.753906 4.4375 L 9.882812 4.4375 L 9.882812 5.761719 L 10.480469 5.761719 L 10.480469 6.703125 L 9.878906 6.703125 L 9.878906 8.03125 L 8.753906 8.03125 Z M 8.753906 6.703125 "/>
<path style=" stroke:none;fill-rule:nonzero;fill:rgb(50.588238%,73.725492%,0%);fill-opacity:1;" d="M 1.476562 22.121094 C 1.476562 22.460938 1.179688 22.609375 0.824219 22.609375 C 0.464844 22.609375 0.152344 22.40625 0.152344 22.027344 L 0.527344 22.027344 C 0.527344 22.238281 0.660156 22.3125 0.84375 22.3125 C 0.996094 22.3125 1.109375 22.265625 1.109375 22.125 C 1.109375 21.988281 0.9375 21.957031 0.601562 21.835938 C 0.371094 21.746094 0.210938 21.664062 0.210938 21.386719 C 0.210938 21.109375 0.492188 20.917969 0.824219 20.917969 C 0.984375 20.90625 1.136719 20.960938 1.257812 21.0625 C 1.375 21.164062 1.445312 21.308594 1.453125 21.464844 L 1.074219 21.464844 C 1.082031 21.394531 1.058594 21.324219 1.003906 21.277344 C 0.953125 21.226562 0.882812 21.203125 0.808594 21.214844 C 0.679688 21.214844 0.574219 21.277344 0.574219 21.386719 C 0.574219 21.496094 0.726562 21.542969 1.023438 21.65625 C 1.257812 21.742188 1.476562 21.828125 1.476562 22.121094 Z M 1.476562 22.121094 "/>
<path style=" stroke:none;fill-rule:nonzero;fill:rgb(50.588238%,73.725492%,0%);fill-opacity:1;" d="M 3.488281 20.960938 L 3.488281 22.570312 L 3.105469 22.570312 L 3.105469 22.351562 C 2.992188 22.515625 2.800781 22.609375 2.597656 22.609375 C 2.125 22.609375 1.738281 22.230469 1.738281 21.765625 C 1.738281 21.296875 2.125 20.917969 2.597656 20.917969 C 2.800781 20.917969 2.992188 21.015625 3.105469 21.179688 L 3.105469 20.960938 Z M 3.105469 21.765625 C 3.085938 21.507812 2.859375 21.316406 2.597656 21.328125 C 2.335938 21.34375 2.132812 21.558594 2.140625 21.8125 C 2.148438 22.070312 2.359375 22.277344 2.621094 22.277344 C 2.753906 22.277344 2.882812 22.21875 2.976562 22.125 C 3.066406 22.027344 3.113281 21.894531 3.105469 21.765625 Z M 3.105469 21.765625 "/>
<path style=" stroke:none;fill-rule:nonzero;fill:rgb(50.588238%,73.725492%,0%);fill-opacity:1;" d="M 4.003906 20.960938 L 4.390625 20.960938 L 4.390625 21.183594 C 4.503906 21.007812 4.710938 20.902344 4.925781 20.917969 C 5.117188 20.902344 5.304688 20.984375 5.417969 21.136719 C 5.503906 21.28125 5.539062 21.449219 5.523438 21.613281 L 5.523438 22.570312 L 5.136719 22.570312 L 5.136719 21.742188 C 5.136719 21.46875 5.054688 21.257812 4.789062 21.257812 C 4.519531 21.257812 4.390625 21.460938 4.390625 21.742188 L 4.390625 22.574219 L 4.007812 22.574219 Z M 4.003906 20.960938 "/>
<path style=" stroke:none;fill-rule:nonzero;fill:rgb(50.588238%,73.725492%,0%);fill-opacity:1;" d="M 7.199219 22.121094 C 7.199219 22.460938 6.902344 22.609375 6.542969 22.609375 C 6.183594 22.609375 5.875 22.40625 5.875 22.027344 L 6.25 22.027344 C 6.25 22.238281 6.382812 22.3125 6.566406 22.3125 C 6.71875 22.3125 6.835938 22.265625 6.835938 22.125 C 6.835938 21.988281 6.660156 21.957031 6.324219 21.835938 C 6.09375 21.746094 5.933594 21.664062 5.933594 21.386719 C 5.933594 21.109375 6.214844 20.917969 6.546875 20.917969 C 6.707031 20.90625 6.863281 20.953125 6.984375 21.058594 C 7.105469 21.160156 7.175781 21.308594 7.183594 21.464844 L 6.800781 21.464844 C 6.808594 21.394531 6.785156 21.324219 6.734375 21.277344 C 6.679688 21.226562 6.609375 21.203125 6.539062 21.214844 C 6.410156 21.214844 6.300781 21.277344 6.300781 21.386719 C 6.300781 21.496094 6.453125 21.542969 6.753906 21.65625 C 6.980469 21.742188 7.199219 21.828125 7.199219 22.121094 Z M 7.199219 22.121094 "/>
<path style=" stroke:none;fill-rule:nonzero;fill:rgb(50.588238%,73.725492%,0%);fill-opacity:1;" d="M 9.453125 20.488281 C 9.394531 20.476562 9.335938 20.464844 9.277344 20.464844 C 9.15625 20.464844 9.019531 20.464844 9.019531 20.71875 L 9.019531 20.960938 L 9.453125 20.960938 L 9.453125 21.273438 L 9.015625 21.273438 L 9.015625 22.570312 L 8.632812 22.570312 L 8.632812 21.273438 L 8.296875 21.273438 L 8.296875 20.960938 L 8.632812 20.960938 L 8.632812 20.761719 C 8.632812 20.144531 9.035156 20.132812 9.222656 20.132812 C 9.300781 20.128906 9.375 20.144531 9.445312 20.171875 Z M 9.453125 20.488281 "/>
<path style=" stroke:none;fill-rule:nonzero;fill:rgb(50.588238%,73.725492%,0%);fill-opacity:1;" d="M 10.789062 21.308594 C 10.738281 21.296875 10.6875 21.289062 10.636719 21.292969 C 10.3125 21.292969 10.132812 21.472656 10.132812 21.875 L 10.132812 22.558594 L 9.746094 22.558594 L 9.746094 20.953125 L 10.132812 20.953125 L 10.132812 21.210938 C 10.238281 21.035156 10.429688 20.929688 10.636719 20.933594 C 10.691406 20.929688 10.742188 20.9375 10.789062 20.957031 Z M 10.789062 21.308594 "/>
<path style=" stroke:none;fill-rule:nonzero;fill:rgb(50.588238%,73.725492%,0%);fill-opacity:1;" d="M 12.632812 20.960938 L 12.632812 22.570312 L 12.246094 22.570312 L 12.246094 22.351562 C 12.128906 22.511719 11.941406 22.609375 11.738281 22.609375 C 11.261719 22.609375 10.875 22.230469 10.875 21.765625 C 10.875 21.296875 11.261719 20.917969 11.738281 20.917969 C 11.941406 20.917969 12.128906 21.015625 12.246094 21.179688 L 12.246094 20.960938 Z M 12.246094 21.765625 C 12.222656 21.507812 12 21.316406 11.738281 21.328125 C 11.476562 21.34375 11.273438 21.558594 11.28125 21.8125 C 11.285156 22.070312 11.5 22.277344 11.761719 22.277344 C 11.894531 22.277344 12.023438 22.21875 12.117188 22.125 C 12.207031 22.027344 12.253906 21.894531 12.246094 21.765625 Z M 12.246094 21.765625 "/>
<path style=" stroke:none;fill-rule:nonzero;fill:rgb(50.588238%,73.725492%,0%);fill-opacity:1;" d="M 13.339844 20.09375 C 13.496094 20.09375 13.621094 20.21875 13.621094 20.371094 C 13.621094 20.523438 13.496094 20.648438 13.339844 20.648438 C 13.183594 20.648438 13.054688 20.527344 13.054688 20.375 C 13.054688 20.300781 13.085938 20.230469 13.136719 20.175781 C 13.191406 20.125 13.261719 20.09375 13.339844 20.09375 Z M 13.148438 20.960938 L 13.53125 20.960938 L 13.53125 22.570312 L 13.148438 22.570312 Z M 13.148438 20.960938 "/>
<path style=" stroke:none;fill-rule:nonzero;fill:rgb(50.588238%,73.725492%,0%);fill-opacity:1;" d="M 15.238281 22.121094 C 15.238281 22.460938 14.941406 22.609375 14.585938 22.609375 C 14.226562 22.609375 13.917969 22.40625 13.917969 22.027344 L 14.289062 22.027344 C 14.289062 22.238281 14.421875 22.3125 14.605469 22.3125 C 14.753906 22.3125 14.871094 22.265625 14.871094 22.125 C 14.871094 21.988281 14.699219 21.957031 14.363281 21.835938 C 14.132812 21.746094 13.972656 21.664062 13.972656 21.386719 C 13.972656 21.109375 14.253906 20.917969 14.589844 20.917969 C 14.746094 20.90625 14.898438 20.960938 15.015625 21.0625 C 15.136719 21.164062 15.207031 21.308594 15.214844 21.464844 L 14.839844 21.464844 C 14.847656 21.394531 14.824219 21.324219 14.769531 21.277344 C 14.71875 21.226562 14.648438 21.203125 14.574219 21.214844 C 14.445312 21.214844 14.339844 21.277344 14.339844 21.386719 C 14.339844 21.496094 14.492188 21.542969 14.792969 21.65625 C 15.019531 21.742188 15.238281 21.828125 15.238281 22.121094 Z M 15.238281 22.121094 "/>
<path style=" stroke:none;fill-rule:nonzero;fill:rgb(50.588238%,73.725492%,0%);fill-opacity:1;" d="M 0.0273438 23 L 0.0273438 22.828125 L 15.386719 22.828125 L 15.386719 23 Z M 0.0273438 23 "/>
</g>
</svg>
