<?xml version="1.0" encoding="UTF-8"?>
<svg xmlns="http://www.w3.org/2000/svg" xmlns:xlink="http://www.w3.org/1999/xlink" width="px" height="24px" viewBox="0 0 24 24" version="1.1">
<g id="surface1">
<rect x="0" y="0" width="24" height="24" style="fill:rgb(98.039216%,31.37255%,13.333334%);fill-opacity:1;stroke:none;"/>
<path style=" stroke:none;fill-rule:nonzero;fill:rgb(100%,100%,100%);fill-opacity:1;" d="M 3.527344 1.601562 L 20.472656 1.601562 C 21.539062 1.601562 22.398438 2.460938 22.398438 3.527344 L 22.398438 20.472656 C 22.398438 21.539062 21.539062 22.398438 20.472656 22.398438 L 3.527344 22.398438 C 2.460938 22.398438 1.601562 21.539062 1.601562 20.472656 L 1.601562 3.527344 C 1.601562 2.460938 2.460938 1.601562 3.527344 1.601562 Z M 3.527344 1.601562 "/>
<path style=" stroke:none;fill-rule:nonzero;fill:rgb(0%,0%,0%);fill-opacity:1;" d="M 11.082031 14.898438 L 11.207031 14.644531 L 11.496094 14.644531 L 11.214844 15.722656 C 11.171875 15.894531 11.042969 15.984375 10.828125 15.992188 L 10.117188 15.992188 L 10.117188 17.136719 C 10.117188 17.273438 10.175781 17.375 10.296875 17.4375 C 10.421875 17.5 10.640625 17.539062 10.964844 17.5625 L 10.964844 18 C 9.875 17.96875 8.730469 17.96875 7.53125 18 L 7.53125 17.5625 C 7.90625 17.539062 8.160156 17.5 8.292969 17.445312 C 8.429688 17.382812 8.496094 17.277344 8.496094 17.136719 L 8.496094 15.992188 L 5.984375 15.992188 L 5.773438 15.21875 L 9.4375 10.679688 L 10.117188 10.679688 L 10.117188 15.195312 L 10.347656 15.195312 C 10.574219 15.195312 10.738281 15.179688 10.835938 15.144531 C 10.9375 15.109375 11.019531 15.027344 11.082031 14.898438 Z M 6.3125 15.195312 L 8.496094 15.195312 L 8.496094 12.507812 Z M 17.761719 17.574219 L 18.003906 17.605469 L 18.003906 18 C 17.046875 17.960938 16.097656 17.960938 15.15625 18 L 15.15625 17.597656 L 15.394531 17.574219 C 15.617188 17.550781 15.636719 17.386719 15.453125 17.078125 L 14.738281 15.941406 L 13.992188 17.046875 C 13.902344 17.199219 13.875 17.324219 13.910156 17.421875 C 13.945312 17.515625 14.03125 17.566406 14.167969 17.574219 L 14.542969 17.597656 L 14.542969 18 C 13.722656 17.957031 12.902344 17.957031 12.074219 18 L 12.074219 17.605469 L 12.292969 17.574219 C 12.78125 17.503906 13.167969 17.257812 13.453125 16.839844 L 14.417969 15.425781 L 13.0625 13.253906 C 12.839844 12.890625 12.601562 12.695312 12.339844 12.671875 L 12.097656 12.636719 L 12.097656 12.246094 L 14.980469 12.246094 L 14.980469 12.648438 L 14.808594 12.660156 C 14.667969 12.667969 14.589844 12.722656 14.570312 12.828125 C 14.550781 12.929688 14.59375 13.054688 14.695312 13.210938 L 15.289062 14.152344 L 15.945312 13.199219 C 16.039062 13.042969 16.058594 12.917969 16 12.820312 C 15.945312 12.722656 15.835938 12.667969 15.671875 12.660156 L 15.394531 12.648438 L 15.394531 12.246094 L 17.851562 12.246094 L 17.851562 12.636719 L 17.644531 12.671875 C 17.375 12.714844 17.15625 12.789062 16.984375 12.894531 C 16.816406 12.992188 16.648438 13.164062 16.484375 13.40625 L 15.613281 14.667969 L 17.085938 16.992188 C 17.207031 17.195312 17.316406 17.34375 17.410156 17.429688 C 17.503906 17.503906 17.621094 17.550781 17.761719 17.574219 Z M 17.761719 17.574219 "/>
<path style=" stroke:none;fill-rule:nonzero;fill:rgb(0%,0%,0%);fill-opacity:1;" d="M 16.917969 7.722656 C 16.511719 7.722656 16.183594 7.386719 16.183594 6.976562 C 16.183594 6.566406 16.511719 6.230469 16.917969 6.230469 C 17.328125 6.230469 17.65625 6.566406 17.65625 6.976562 C 17.65625 7.386719 17.328125 7.71875 16.917969 7.71875 Z M 17.65625 5.621094 L 17.65625 6 C 17.550781 5.859375 17.410156 5.746094 17.25 5.667969 C 17.089844 5.59375 16.914062 5.550781 16.738281 5.550781 C 16.003906 5.550781 15.4375 6.191406 15.4375 6.976562 C 15.4375 7.761719 16.003906 8.398438 16.738281 8.398438 C 16.929688 8.398438 17.117188 8.355469 17.285156 8.265625 C 17.453125 8.175781 17.597656 8.050781 17.703125 7.894531 L 17.703125 8.332031 L 18.398438 8.332031 L 18.398438 5.621094 Z M 9.125 4.867188 L 9.867188 4.867188 L 9.867188 8.332031 L 9.125 8.332031 Z M 10.726562 6.792969 C 10.726562 6.050781 11.195312 5.550781 11.847656 5.550781 C 12.25 5.550781 12.570312 5.726562 12.761719 6.023438 C 12.957031 5.726562 13.273438 5.550781 13.679688 5.550781 C 14.332031 5.550781 14.800781 6.050781 14.800781 6.792969 L 14.800781 8.332031 L 14.054688 8.332031 L 14.054688 6.714844 C 14.054688 6.425781 13.859375 6.234375 13.59375 6.234375 C 13.332031 6.234375 13.136719 6.425781 13.136719 6.714844 L 13.136719 8.332031 L 12.390625 8.332031 L 12.390625 6.714844 C 12.390625 6.425781 12.191406 6.234375 11.929688 6.234375 C 11.667969 6.234375 11.46875 6.425781 11.46875 6.714844 L 11.46875 8.332031 L 10.726562 8.332031 Z M 7.773438 5.648438 C 7.597656 5.003906 7.226562 4.800781 6.871094 4.800781 C 6.515625 4.800781 6.140625 5.003906 5.964844 5.648438 L 5.199219 8.332031 L 5.953125 8.332031 C 6.003906 8.132812 6.121094 7.957031 6.289062 7.828125 C 6.453125 7.703125 6.660156 7.632812 6.871094 7.632812 C 7.082031 7.632812 7.285156 7.703125 7.453125 7.828125 C 7.617188 7.957031 7.734375 8.132812 7.785156 8.332031 L 8.539062 8.332031 Z M 6.871094 7.007812 C 6.640625 7.007812 6.421875 7.089844 6.25 7.242188 L 6.683594 5.679688 C 6.726562 5.53125 6.785156 5.484375 6.871094 5.484375 C 6.953125 5.484375 7.015625 5.527344 7.054688 5.679688 L 7.488281 7.242188 C 7.320312 7.089844 7.097656 7.007812 6.871094 7.007812 Z M 6.871094 7.007812 "/>
</g>
</svg>
