<?xml version="1.0" encoding="UTF-8"?>
<svg xmlns="http://www.w3.org/2000/svg" xmlns:xlink="http://www.w3.org/1999/xlink" width="px" height="24px" viewBox="0 0 24 24" version="1.1">
<g id="surface1">
<rect x="0" y="0" width="24" height="24" style="fill:rgb(98.039216%,31.37255%,13.333334%);fill-opacity:1;stroke:none;"/>
<path style=" stroke:none;fill-rule:nonzero;fill:rgb(100%,100%,100%);fill-opacity:1;" d="M 3.527344 1.601562 L 20.472656 1.601562 C 21.539062 1.601562 22.398438 2.460938 22.398438 3.527344 L 22.398438 20.472656 C 22.398438 21.539062 21.539062 22.398438 20.472656 22.398438 L 3.527344 22.398438 C 2.460938 22.398438 1.601562 21.539062 1.601562 20.472656 L 1.601562 3.527344 C 1.601562 2.460938 2.460938 1.601562 3.527344 1.601562 Z M 3.527344 1.601562 "/>
<path style=" stroke:none;fill-rule:nonzero;fill:rgb(0%,0%,0%);fill-opacity:1;" d="M 9.148438 14.023438 C 9.792969 13.890625 10.347656 13.996094 10.8125 14.332031 C 11.28125 14.664062 11.515625 15.136719 11.515625 15.75 C 11.515625 16.460938 11.203125 17.039062 10.578125 17.484375 C 9.953125 17.929688 9.230469 18.152344 8.410156 18.152344 C 7.640625 18.152344 7.003906 17.96875 6.503906 17.601562 C 6.007812 17.230469 5.757812 16.820312 5.757812 16.367188 C 5.757812 16.15625 5.816406 15.980469 5.9375 15.851562 C 6.0625 15.71875 6.230469 15.65625 6.449219 15.65625 C 6.714844 15.65625 6.898438 15.742188 7.003906 15.914062 C 7.117188 16.085938 7.171875 16.285156 7.171875 16.507812 C 7.171875 16.820312 7.273438 17.097656 7.480469 17.339844 C 7.691406 17.574219 8 17.691406 8.410156 17.691406 C 8.894531 17.691406 9.269531 17.519531 9.535156 17.175781 C 9.804688 16.828125 9.9375 16.40625 9.9375 15.90625 C 9.9375 15.472656 9.832031 15.125 9.625 14.859375 C 9.414062 14.59375 9.152344 14.460938 8.839844 14.460938 C 8.625 14.460938 8.320312 14.53125 7.929688 14.679688 L 7.753906 14.230469 L 8.203125 14.035156 C 9.039062 13.671875 9.457031 13.113281 9.457031 12.355469 C 9.457031 11.984375 9.363281 11.691406 9.175781 11.46875 C 8.992188 11.25 8.738281 11.140625 8.410156 11.140625 C 8.09375 11.140625 7.835938 11.25 7.636719 11.476562 C 7.445312 11.695312 7.351562 11.984375 7.351562 12.34375 C 7.351562 12.449219 7.371094 12.59375 7.414062 12.777344 C 7.457031 12.960938 7.480469 13.085938 7.480469 13.152344 C 7.480469 13.332031 7.421875 13.476562 7.300781 13.578125 C 7.183594 13.683594 7.035156 13.738281 6.847656 13.738281 C 6.59375 13.738281 6.386719 13.640625 6.234375 13.449219 C 6.085938 13.257812 6.011719 13 6.011719 12.671875 C 6.011719 12.09375 6.234375 11.621094 6.683594 11.246094 C 7.140625 10.867188 7.726562 10.679688 8.445312 10.679688 C 9.160156 10.679688 9.726562 10.84375 10.144531 11.171875 C 10.566406 11.5 10.777344 11.890625 10.777344 12.34375 C 10.777344 12.734375 10.625 13.078125 10.320312 13.371094 C 10.015625 13.664062 9.625 13.878906 9.148438 14.023438 Z M 17.78125 17.574219 L 18.019531 17.605469 L 18.019531 18 C 17.0625 17.960938 16.113281 17.960938 15.171875 18 L 15.171875 17.597656 L 15.414062 17.574219 C 15.632812 17.550781 15.652344 17.386719 15.46875 17.078125 L 14.757812 15.941406 L 14.011719 17.046875 C 13.921875 17.199219 13.890625 17.324219 13.925781 17.421875 C 13.964844 17.515625 14.050781 17.566406 14.183594 17.574219 L 14.558594 17.597656 L 14.558594 18 C 13.742188 17.957031 12.917969 17.957031 12.089844 18 L 12.089844 17.605469 L 12.308594 17.574219 C 12.796875 17.503906 13.183594 17.257812 13.472656 16.839844 L 14.4375 15.425781 L 13.078125 13.253906 C 12.859375 12.890625 12.617188 12.695312 12.355469 12.671875 L 12.113281 12.636719 L 12.113281 12.246094 L 14.996094 12.246094 L 14.996094 12.648438 L 14.824219 12.660156 C 14.683594 12.667969 14.605469 12.722656 14.589844 12.828125 C 14.570312 12.929688 14.609375 13.054688 14.710938 13.210938 L 15.304688 14.152344 L 15.960938 13.199219 C 16.054688 13.042969 16.074219 12.917969 16.019531 12.820312 C 15.960938 12.722656 15.851562 12.667969 15.6875 12.660156 L 15.414062 12.648438 L 15.414062 12.246094 L 17.871094 12.246094 L 17.871094 12.636719 L 17.664062 12.671875 C 17.394531 12.714844 17.171875 12.789062 17 12.894531 C 16.832031 12.992188 16.664062 13.164062 16.5 13.40625 L 15.632812 14.667969 L 17.101562 16.992188 C 17.226562 17.195312 17.332031 17.34375 17.425781 17.429688 C 17.519531 17.503906 17.636719 17.550781 17.78125 17.574219 Z M 17.78125 17.574219 "/>
<path style=" stroke:none;fill-rule:nonzero;fill:rgb(0%,0%,0%);fill-opacity:1;" d="M 16.917969 7.722656 C 16.511719 7.722656 16.183594 7.386719 16.183594 6.976562 C 16.183594 6.566406 16.511719 6.230469 16.917969 6.230469 C 17.328125 6.230469 17.65625 6.566406 17.65625 6.976562 C 17.65625 7.386719 17.328125 7.71875 16.917969 7.71875 Z M 17.65625 5.621094 L 17.65625 6 C 17.550781 5.859375 17.410156 5.746094 17.25 5.667969 C 17.089844 5.59375 16.914062 5.550781 16.738281 5.550781 C 16.003906 5.550781 15.4375 6.191406 15.4375 6.976562 C 15.4375 7.761719 16.003906 8.398438 16.738281 8.398438 C 16.929688 8.398438 17.117188 8.355469 17.285156 8.265625 C 17.453125 8.175781 17.597656 8.050781 17.703125 7.894531 L 17.703125 8.332031 L 18.398438 8.332031 L 18.398438 5.621094 Z M 9.125 4.867188 L 9.867188 4.867188 L 9.867188 8.332031 L 9.125 8.332031 Z M 10.726562 6.792969 C 10.726562 6.050781 11.195312 5.550781 11.847656 5.550781 C 12.25 5.550781 12.570312 5.726562 12.761719 6.023438 C 12.957031 5.726562 13.273438 5.550781 13.679688 5.550781 C 14.332031 5.550781 14.800781 6.050781 14.800781 6.792969 L 14.800781 8.332031 L 14.054688 8.332031 L 14.054688 6.714844 C 14.054688 6.425781 13.859375 6.234375 13.59375 6.234375 C 13.332031 6.234375 13.136719 6.425781 13.136719 6.714844 L 13.136719 8.332031 L 12.390625 8.332031 L 12.390625 6.714844 C 12.390625 6.425781 12.191406 6.234375 11.929688 6.234375 C 11.667969 6.234375 11.46875 6.425781 11.46875 6.714844 L 11.46875 8.332031 L 10.726562 8.332031 Z M 7.773438 5.648438 C 7.597656 5.003906 7.226562 4.800781 6.871094 4.800781 C 6.515625 4.800781 6.140625 5.003906 5.964844 5.648438 L 5.199219 8.332031 L 5.953125 8.332031 C 6.003906 8.132812 6.121094 7.957031 6.289062 7.828125 C 6.453125 7.703125 6.660156 7.632812 6.871094 7.632812 C 7.082031 7.632812 7.285156 7.703125 7.453125 7.828125 C 7.617188 7.957031 7.734375 8.132812 7.785156 8.332031 L 8.539062 8.332031 Z M 6.871094 7.007812 C 6.640625 7.007812 6.421875 7.089844 6.25 7.242188 L 6.683594 5.679688 C 6.726562 5.53125 6.785156 5.484375 6.871094 5.484375 C 6.953125 5.484375 7.015625 5.527344 7.054688 5.679688 L 7.488281 7.242188 C 7.320312 7.089844 7.097656 7.007812 6.871094 7.007812 Z M 6.871094 7.007812 "/>
</g>
</svg>
