<svg width="24" height="16" viewBox="0 0 24 16" fill="none" xmlns="http://www.w3.org/2000/svg">
<g clip-path="url(#clip0_1130_292)">
<path d="M21.8507 0H2.14931C2.06726 0 1.98506 0 1.90315 0.000498277C1.83391 0.00101165 1.76484 0.00181192 1.69576 0.00377483C1.54511 0.00801773 1.39317 0.0172736 1.2444 0.0451167C1.09326 0.073443 0.95261 0.119647 0.8154 0.192395C0.680509 0.26383 0.557016 0.357265 0.449995 0.468758C0.342928 0.580251 0.253204 0.708641 0.184621 0.849261C0.114747 0.992145 0.0703489 1.13865 0.043336 1.29617C0.0164551 1.45113 0.00750735 1.60933 0.00344744 1.76605C0.00159148 1.83798 0.000795452 1.90991 0.000344512 1.98183C-0.000133977 2.06731 2.55194e-05 2.15272 2.55194e-05 2.23835V13.7618C2.55194e-05 13.8474 -0.000133977 13.9327 0.000344512 14.0184C0.000795452 14.0903 0.00159148 14.1622 0.00344744 14.2341C0.00750735 14.3907 0.0164551 14.5489 0.043336 14.7038C0.0703489 14.8614 0.114747 15.0079 0.184621 15.1508C0.253204 15.2914 0.342928 15.4199 0.449995 15.5313C0.557016 15.6429 0.680509 15.7364 0.8154 15.8076C0.95261 15.8805 1.09326 15.9268 1.2444 15.9551C1.39317 15.9827 1.54511 15.9922 1.69576 15.9964C1.76484 15.998 1.83391 15.999 1.90315 15.9993C1.98506 16 2.06726 16 2.14931 16H21.8507C21.9326 16 22.0148 16 22.0967 15.9993C22.1658 15.999 22.2349 15.998 22.3043 15.9964C22.4546 15.9922 22.6065 15.9827 22.7556 15.9551C22.9066 15.9268 23.0473 15.8805 23.1845 15.8076C23.3195 15.7364 23.4426 15.6429 23.5499 15.5313C23.6568 15.4199 23.7465 15.2914 23.8153 15.1508C23.8853 15.0079 23.9296 14.8614 23.9565 14.7038C23.9834 14.5489 23.9922 14.3907 23.9962 14.2341C23.9981 14.1622 23.999 14.0903 23.9994 14.0184C24 13.9327 24 13.8474 24 13.7618V2.23835C24 2.15272 24 2.06731 23.9994 1.98183C23.999 1.90991 23.9981 1.83798 23.9962 1.76605C23.9922 1.60933 23.9834 1.45113 23.9565 1.29617C23.9296 1.13865 23.8853 0.992145 23.8153 0.849261C23.7465 0.708641 23.6568 0.580251 23.5499 0.468758C23.4426 0.357265 23.3195 0.26383 23.1845 0.192395C23.0473 0.119647 22.9066 0.073443 22.7556 0.0451167C22.6065 0.0172736 22.4546 0.00801773 22.3043 0.00377483C22.2349 0.00181192 22.1658 0.00101165 22.0967 0.000498277C22.0148 0 21.9326 0 21.8507 0Z" fill="black"/>
<path d="M21.8503 0.533203L22.0927 0.533686C22.1583 0.534169 22.224 0.534909 22.29 0.536782C22.4048 0.540013 22.5392 0.546491 22.6644 0.569864C22.7732 0.590279 22.8645 0.621323 22.9521 0.667768C23.0386 0.713534 23.1179 0.773509 23.187 0.845457C23.2565 0.917888 23.3142 1.00054 23.3587 1.09161C23.403 1.18213 23.4327 1.27674 23.4522 1.39092C23.4745 1.5199 23.4807 1.66017 23.4839 1.7805C23.4857 1.84841 23.4865 1.91633 23.4868 1.98586C23.4875 2.06995 23.4875 2.15399 23.4875 2.23825V13.7617C23.4875 13.846 23.4875 13.9299 23.4868 14.0157C23.4865 14.0836 23.4857 14.1516 23.4839 14.2196C23.4807 14.3397 23.4745 14.4799 23.4519 14.6104C23.4327 14.7231 23.4031 14.8177 23.3585 14.9087C23.3141 14.9995 23.2565 15.0821 23.1873 15.154C23.1178 15.2265 23.0388 15.2863 22.9513 15.3325C22.8643 15.3787 22.7732 15.4097 22.6654 15.4299C22.5376 15.4536 22.3977 15.4602 22.2923 15.4631C22.2259 15.4647 22.1599 15.4656 22.0923 15.466C22.0117 15.4666 21.9309 15.4666 21.8503 15.4666H2.14889C2.14782 15.4666 2.14677 15.4666 2.14569 15.4666C2.06602 15.4666 1.9862 15.4666 1.90509 15.4659C1.83896 15.4656 1.77297 15.4647 1.70917 15.4632C1.60135 15.4602 1.4613 15.4536 1.33459 15.4301C1.22589 15.4097 1.13475 15.3787 1.04665 15.3319C0.959963 15.2861 0.88104 15.2264 0.811427 15.1538C0.74235 15.0819 0.684946 14.9996 0.640563 14.9087C0.596136 14.8178 0.566412 14.7229 0.546867 14.6089C0.524275 14.4787 0.51807 14.339 0.514968 14.2197C0.513198 14.1514 0.512458 14.0831 0.512038 14.0152L0.511719 13.8146L0.511733 13.7617V2.23825L0.511719 2.18531L0.512023 1.98523C0.512458 1.9169 0.513198 1.84859 0.514968 1.78033C0.51807 1.66088 0.524275 1.52118 0.547054 1.38985C0.566426 1.27692 0.596136 1.18201 0.640795 1.09067C0.68483 1.00039 0.742336 0.917979 0.811776 0.845683C0.88094 0.773629 0.960121 0.71373 1.04737 0.667527C1.13452 0.621308 1.22583 0.590279 1.33453 0.56991C1.45978 0.546475 1.59421 0.540013 1.70933 0.536767C1.77496 0.534909 1.84058 0.534169 1.90572 0.533701L2.14889 0.533203H21.8503Z" fill="white"/>
<path d="M6.55322 5.38102C6.75871 5.11336 6.89816 4.75397 6.86138 4.38672C6.56056 4.4023 6.19348 4.59338 5.98095 4.86125C5.79012 5.09064 5.62123 5.46508 5.66526 5.81693C6.00294 5.84744 6.34031 5.64117 6.55322 5.38102Z" fill="black"/>
<path d="M6.85702 5.88485C6.36663 5.85443 5.94967 6.17468 5.71548 6.17468C5.48117 6.17468 5.12255 5.90018 4.73467 5.90758C4.22982 5.9153 3.76139 6.21255 3.5052 6.68531C2.97827 7.63107 3.36614 9.03396 3.87856 9.80423C4.1274 10.1853 4.42729 10.6049 4.82245 10.5898C5.19581 10.5746 5.34215 10.3381 5.79598 10.3381C6.24948 10.3381 6.3813 10.5898 6.77652 10.5822C7.18638 10.5746 7.44261 10.2009 7.69145 9.81949C7.97692 9.38508 8.09378 8.96563 8.10113 8.9426C8.09377 8.93497 7.31081 8.62219 7.30355 7.68429C7.29616 6.89897 7.91826 6.52543 7.94754 6.50226C7.59623 5.96119 7.04732 5.90018 6.85702 5.88485Z" fill="black"/>
<path d="M11.1278 4.82227C12.1937 4.82227 12.9359 5.58736 12.9359 6.70128C12.9359 7.81918 12.1784 8.58825 11.1011 8.58825H9.92099V10.5426H9.06836V4.82227L11.1278 4.82227ZM9.92099 7.84296H10.8993C11.6417 7.84296 12.0642 7.42677 12.0642 6.70526C12.0642 5.98382 11.6417 5.57153 10.9031 5.57153H9.92099V7.84296Z" fill="black"/>
<path d="M13.1582 9.35725C13.1582 8.62779 13.695 8.17987 14.6467 8.12435L15.743 8.05699V7.73592C15.743 7.27209 15.4422 6.99461 14.9398 6.99461C14.4639 6.99461 14.1669 7.23241 14.0947 7.60509H13.3181C13.3638 6.85185 13.9804 6.29688 14.9702 6.29688C15.9409 6.29688 16.5614 6.83204 16.5614 7.66848V10.5425H15.7734V9.85671H15.7544C15.5223 10.3205 15.0159 10.6139 14.4906 10.6139C13.7064 10.6139 13.1582 10.1064 13.1582 9.35725ZM15.743 8.98067V8.65165L14.757 8.71504C14.2659 8.75074 13.9881 8.97669 13.9881 9.33347C13.9881 9.69813 14.2774 9.936 14.719 9.936C15.2938 9.936 15.743 9.52371 15.743 8.98067Z" fill="black"/>
<path d="M17.3061 12.0775V11.3838C17.3669 11.3996 17.5039 11.3996 17.5725 11.3996C17.9531 11.3996 18.1587 11.2331 18.2843 10.805C18.2843 10.7971 18.3567 10.5513 18.3567 10.5473L16.9102 6.37305H17.8008L18.8135 9.76642H18.8287L19.8414 6.37305H20.7093L19.2093 10.7614C18.8668 11.7723 18.4709 12.0973 17.641 12.0973C17.5725 12.0973 17.3669 12.0894 17.3061 12.0775Z" fill="black"/>
</g>
<defs>
<clipPath id="clip0_1130_292">
<rect width="24" height="16" fill="white"/>
</clipPath>
</defs>
</svg>
