<?xml version="1.0" encoding="UTF-8"?>
<svg xmlns="http://www.w3.org/2000/svg" xmlns:xlink="http://www.w3.org/1999/xlink" width="px" height="24px" viewBox="0 0 32 24" version="1.1">
<defs>
<linearGradient id="linear0" gradientUnits="userSpaceOnUse" x1="-639.080017" y1="-2533.919922" x2="-616.97998" y2="-2525.709961" gradientTransform="matrix(0.5,0,0,-0.5,323.48999,-1254.954956)">
<stop offset="0" style="stop-color:rgb(0%,35.294118%,72.54902%);stop-opacity:1;"/>
<stop offset="1" style="stop-color:rgb(11.764706%,21.568627%,39.215686%);stop-opacity:1;"/>
</linearGradient>
<linearGradient id="linear1" gradientUnits="userSpaceOnUse" x1="-613.150024" y1="-2528.340088" x2="-589.679993" y2="-2520.340088" gradientTransform="matrix(0.5,0,0,-0.5,323.48999,-1254.954956)">
<stop offset="0" style="stop-color:rgb(98.431373%,66.27451%,0%);stop-opacity:1;"/>
<stop offset="1" style="stop-color:rgb(100%,84.705882%,0%);stop-opacity:1;"/>
</linearGradient>
</defs>
<g id="surface1">
<path style=" stroke:none;fill-rule:nonzero;fill:rgb(11.764706%,21.568628%,39.215687%);fill-opacity:1;" d="M 0.890625 21.304688 L 0.890625 16.941406 L 2.238281 16.941406 C 3.238281 16.941406 3.84375 17.308594 3.84375 18.070312 C 3.859375 18.441406 3.667969 18.789062 3.34375 18.976562 C 3.753906 19.152344 4.011719 19.554688 4 20 C 4 20.878906 3.355469 21.289062 2.359375 21.289062 Z M 1.761719 18.753906 L 2.398438 18.753906 C 2.796875 18.753906 2.960938 18.566406 2.960938 18.210938 C 2.960938 17.855469 2.65625 17.710938 2.246094 17.710938 L 1.746094 17.710938 Z M 1.761719 20.546875 L 2.296875 20.546875 C 2.796875 20.546875 3.125 20.414062 3.125 20.003906 C 3.125 19.59375 2.859375 19.429688 2.371094 19.429688 L 1.761719 19.429688 Z M 5.691406 21.378906 C 4.835938 21.378906 4.40625 20.964844 4.40625 20.40625 C 4.40625 19.84375 4.90625 19.40625 5.660156 19.40625 C 5.847656 19.410156 6.03125 19.429688 6.214844 19.453125 L 6.214844 19.308594 C 6.214844 18.925781 5.996094 18.746094 5.578125 18.746094 C 5.296875 18.742188 5.019531 18.792969 4.753906 18.894531 L 4.601562 18.234375 C 4.945312 18.105469 5.3125 18.042969 5.679688 18.046875 C 6.050781 17.992188 6.421875 18.117188 6.691406 18.375 C 6.957031 18.636719 7.089844 19.003906 7.050781 19.375 L 7.050781 21.105469 C 6.625 21.300781 6.160156 21.394531 5.691406 21.378906 Z M 6.191406 20.675781 L 6.191406 20 C 6.042969 19.964844 5.894531 19.949219 5.746094 19.949219 C 5.460938 19.949219 5.246094 20.058594 5.246094 20.355469 C 5.246094 20.648438 5.429688 20.753906 5.746094 20.753906 C 5.898438 20.761719 6.046875 20.730469 6.183594 20.664062 Z M 7.628906 21.304688 L 7.628906 18.304688 C 8.078125 18.125 8.558594 18.03125 9.039062 18.03125 C 10 18.046875 10.5 18.5 10.5 19.324219 L 10.5 21.324219 L 9.640625 21.324219 L 9.640625 19.386719 C 9.640625 18.953125 9.441406 18.753906 9.058594 18.753906 C 8.871094 18.753906 8.683594 18.792969 8.511719 18.871094 L 8.511719 21.304688 Z M 13.5 18.234375 L 13.339844 18.910156 C 13.117188 18.816406 12.878906 18.765625 12.636719 18.753906 C 12.136719 18.753906 11.855469 19.109375 11.855469 19.699219 C 11.855469 20.289062 12.140625 20.671875 12.679688 20.671875 C 12.921875 20.660156 13.15625 20.605469 13.375 20.5 L 13.5 21.199219 C 13.21875 21.328125 12.914062 21.386719 12.605469 21.378906 C 12.160156 21.414062 11.726562 21.25 11.414062 20.929688 C 11.105469 20.609375 10.953125 20.167969 11 19.726562 C 10.945312 19.28125 11.089844 18.835938 11.398438 18.511719 C 11.703125 18.1875 12.140625 18.015625 12.585938 18.046875 C 12.90625 18.046875 13.226562 18.109375 13.523438 18.234375 Z M 15.359375 21.378906 C 14.921875 21.402344 14.496094 21.226562 14.195312 20.90625 C 13.894531 20.585938 13.75 20.148438 13.800781 19.710938 C 13.753906 19.125 14.039062 18.5625 14.539062 18.253906 C 15.039062 17.949219 15.671875 17.949219 16.171875 18.253906 C 16.671875 18.5625 16.957031 19.125 16.910156 19.710938 C 16.960938 20.144531 16.816406 20.582031 16.519531 20.902344 C 16.222656 21.222656 15.796875 21.398438 15.359375 21.378906 Z M 15.359375 20.671875 C 15.800781 20.671875 16.035156 20.304688 16.035156 19.710938 C 16.035156 19.113281 15.800781 18.753906 15.359375 18.753906 C 14.921875 18.753906 14.679688 19.125 14.679688 19.710938 C 14.679688 20.296875 14.925781 20.671875 15.359375 20.671875 Z M 17.410156 21.304688 L 17.410156 18.304688 C 17.859375 18.125 18.335938 18.03125 18.820312 18.03125 C 19.730469 18.03125 20.253906 18.480469 20.253906 19.308594 L 20.253906 21.308594 L 19.398438 21.308594 L 19.398438 19.386719 C 19.398438 18.953125 19.199219 18.753906 18.820312 18.753906 C 18.628906 18.753906 18.441406 18.792969 18.269531 18.871094 L 18.269531 21.304688 Z M 22.195312 21.378906 C 21.449219 21.378906 21.070312 20.976562 21.070312 20.15625 L 21.070312 18.804688 L 20.648438 18.804688 L 20.648438 18.121094 L 21.074219 18.121094 L 21.074219 17.429688 L 21.933594 17.386719 L 21.933594 18.121094 L 22.628906 18.121094 L 22.628906 18.804688 L 21.933594 18.804688 L 21.933594 20.140625 C 21.933594 20.5 22.085938 20.671875 22.363281 20.671875 C 22.476562 20.671875 22.589844 20.660156 22.699219 20.636719 L 22.738281 21.324219 C 22.5625 21.367188 22.382812 21.382812 22.199219 21.378906 Z M 24.363281 21.378906 C 23.511719 21.378906 23.078125 20.964844 23.078125 20.40625 C 23.078125 19.84375 23.578125 19.40625 24.335938 19.40625 C 24.519531 19.410156 24.707031 19.429688 24.890625 19.453125 L 24.890625 19.308594 C 24.890625 18.925781 24.671875 18.746094 24.253906 18.746094 C 23.972656 18.746094 23.695312 18.796875 23.429688 18.894531 L 23.273438 18.226562 C 23.621094 18.097656 23.988281 18.03125 24.355469 18.035156 C 24.722656 17.984375 25.097656 18.105469 25.363281 18.363281 C 25.632812 18.625 25.765625 18.992188 25.726562 19.363281 L 25.726562 21.09375 C 25.296875 21.289062 24.832031 21.382812 24.363281 21.371094 Z M 24.863281 20.675781 L 24.863281 20 C 24.71875 19.964844 24.570312 19.949219 24.421875 19.949219 C 24.136719 19.949219 23.921875 20.058594 23.921875 20.355469 C 23.921875 20.648438 24.105469 20.753906 24.421875 20.753906 C 24.570312 20.761719 24.71875 20.730469 24.855469 20.664062 Z M 28.644531 18.234375 L 28.5 18.910156 C 28.277344 18.816406 28.039062 18.761719 27.796875 18.753906 C 27.296875 18.753906 27.019531 19.109375 27.019531 19.699219 C 27.019531 20.289062 27.304688 20.671875 27.839844 20.671875 C 28.085938 20.664062 28.324219 20.605469 28.546875 20.5 L 28.679688 21.191406 C 28.398438 21.316406 28.089844 21.378906 27.78125 21.371094 C 27.332031 21.410156 26.886719 21.25 26.574219 20.929688 C 26.257812 20.609375 26.101562 20.164062 26.148438 19.714844 C 26.097656 19.273438 26.242188 18.828125 26.546875 18.503906 C 26.851562 18.179688 27.285156 18.007812 27.730469 18.035156 C 28.054688 18.035156 28.375 18.101562 28.675781 18.226562 Z M 30.535156 21.378906 C 29.796875 21.378906 29.414062 20.976562 29.414062 20.15625 L 29.414062 18.804688 L 29 18.804688 L 29 18.121094 L 29.425781 18.121094 L 29.425781 17.429688 L 30.285156 17.386719 L 30.285156 18.121094 L 31 18.121094 L 31 18.804688 L 30.304688 18.804688 L 30.304688 20.140625 C 30.304688 20.5 30.453125 20.671875 30.734375 20.671875 C 30.847656 20.671875 30.957031 20.660156 31.066406 20.636719 L 31.109375 21.324219 C 30.929688 21.367188 30.75 21.382812 30.566406 21.378906 Z M 30.535156 21.378906 "/>
<path style=" stroke:none;fill-rule:nonzero;fill:url(#linear0);" d="M 6.894531 14.761719 C 11.445312 14.761719 13.726562 11.726562 16 8.691406 L 0.890625 8.691406 L 0.890625 14.761719 Z M 6.894531 14.761719 "/>
<path style=" stroke:none;fill-rule:nonzero;fill:url(#linear1);" d="M 25.105469 2.621094 C 20.554688 2.621094 18.273438 5.65625 16 8.691406 L 31.109375 8.691406 L 31.109375 2.621094 Z M 25.105469 2.621094 "/>
</g>
</svg>
