<?xml version="1.0" encoding="UTF-8"?>
<svg xmlns="http://www.w3.org/2000/svg" xmlns:xlink="http://www.w3.org/1999/xlink" width="24px" height="24px" viewBox="0 0 24 24" version="1.1">
<g id="surface1">
<path style=" stroke:none;fill-rule:evenodd;fill:rgb(12.54902%,12.54902%,12.54902%);fill-opacity:1;" d="M 6.230469 1.808594 C 5.898438 1.878906 5.625 2.144531 5.539062 2.480469 C 5.5 2.632812 5.496094 12.1875 5.535156 12.339844 C 5.621094 12.664062 5.875 12.917969 6.199219 13.007812 C 6.308594 13.039062 12.589844 13.042969 12.96875 13.015625 C 16.589844 12.738281 18.484375 10.875 18.535156 7.542969 C 18.585938 3.996094 16.597656 2 12.804688 1.800781 C 12.386719 1.777344 6.339844 1.785156 6.230469 1.808594 M 12.6875 2.101562 C 16.359375 2.273438 18.304688 4.1875 18.234375 7.554688 C 18.175781 10.382812 16.660156 12.128906 13.855469 12.605469 C 13.085938 12.734375 12.925781 12.738281 9.28125 12.734375 L 6.320312 12.730469 L 6.246094 12.703125 C 6.027344 12.621094 5.886719 12.46875 5.832031 12.257812 C 5.800781 12.144531 5.800781 2.683594 5.832031 2.566406 C 5.890625 2.339844 6.066406 2.164062 6.296875 2.105469 C 6.386719 2.085938 12.238281 2.078125 12.6875 2.101562 M 7.199219 6.316406 C 6.671875 6.429688 6.34375 6.984375 6.5 7.492188 C 6.816406 8.507812 8.3125 8.289062 8.3125 7.230469 C 8.3125 6.636719 7.777344 6.195312 7.199219 6.316406 M 7.097656 8.753906 C 6.886719 8.828125 6.722656 9.015625 6.667969 9.238281 C 6.644531 9.335938 6.640625 10.546875 6.664062 10.707031 C 6.75 11.335938 7.253906 11.835938 7.828125 11.871094 L 7.949219 11.878906 L 7.945312 10.578125 C 7.941406 9.136719 7.949219 9.238281 7.855469 9.066406 C 7.714844 8.792969 7.378906 8.65625 7.097656 8.753906 M 3.03125 15.878906 C 2.914062 15.929688 2.902344 16.113281 3.011719 16.167969 C 3.070312 16.199219 21.007812 16.199219 21.0625 16.167969 C 21.183594 16.105469 21.171875 15.921875 21.050781 15.878906 C 20.980469 15.855469 3.082031 15.855469 3.03125 15.878906 M 10.800781 18.164062 C 10.320312 18.191406 9.894531 18.355469 9.558594 18.644531 C 9.507812 18.6875 9.460938 18.730469 9.460938 18.734375 C 9.464844 18.738281 9.640625 18.921875 9.855469 19.144531 L 10.246094 19.542969 L 10.328125 19.46875 C 10.75 19.082031 11.4375 19.167969 11.738281 19.644531 C 11.785156 19.71875 11.824219 19.804688 11.824219 19.828125 C 11.824219 19.832031 11.191406 19.835938 10.355469 19.835938 L 8.890625 19.835938 L 8.878906 19.898438 C 8.832031 20.164062 8.875 20.65625 8.96875 20.9375 C 9.34375 22.0625 10.640625 22.613281 11.816406 22.148438 C 11.996094 22.078125 12.300781 21.898438 12.300781 21.867188 C 12.296875 21.847656 11.421875 21.144531 11.402344 21.144531 C 11.390625 21.148438 11.332031 21.167969 11.269531 21.191406 C 11.015625 21.28125 10.65625 21.234375 10.441406 21.078125 C 10.300781 20.980469 10.132812 20.769531 10.105469 20.660156 L 10.097656 20.625 L 13.035156 20.625 L 13.042969 20.597656 C 13.066406 20.503906 13.078125 20.21875 13.0625 20.054688 C 12.957031 18.855469 12.042969 18.089844 10.800781 18.164062 M 18.507812 18.179688 C 17.5 18.324219 16.820312 19.046875 16.734375 20.070312 C 16.640625 21.199219 17.398438 22.148438 18.507812 22.292969 C 19.878906 22.472656 20.945312 21.574219 20.945312 20.238281 C 20.945312 18.90625 19.855469 17.992188 18.507812 18.179688 M 3.101562 18.273438 C 3.101562 18.277344 3.414062 19.164062 3.796875 20.242188 L 4.492188 22.199219 L 5.5 22.199219 L 5.527344 22.101562 C 5.542969 22.050781 5.691406 21.570312 5.851562 21.039062 C 6.011719 20.507812 6.148438 20.074219 6.152344 20.074219 C 6.15625 20.074219 6.300781 20.550781 6.476562 21.132812 L 6.796875 22.195312 L 7.300781 22.195312 L 7.808594 22.199219 L 8.496094 20.257812 C 8.878906 19.191406 9.191406 18.304688 9.195312 18.289062 L 9.203125 18.261719 L 7.988281 18.261719 L 7.96875 18.320312 C 7.960938 18.355469 7.804688 18.878906 7.625 19.488281 C 7.445312 20.097656 7.296875 20.597656 7.292969 20.597656 C 7.285156 20.605469 7.304688 20.675781 6.96875 19.5 C 6.800781 18.914062 6.648438 18.394531 6.636719 18.347656 L 6.613281 18.261719 L 6.148438 18.261719 C 5.722656 18.261719 5.6875 18.265625 5.683594 18.285156 C 5.679688 18.296875 5.53125 18.8125 5.351562 19.429688 C 5.171875 20.050781 5.019531 20.566406 5.015625 20.582031 C 5 20.613281 5.035156 20.722656 4.636719 19.367188 L 4.316406 18.269531 L 3.707031 18.265625 C 3.375 18.265625 3.101562 18.265625 3.101562 18.273438 M 13.273438 20.238281 L 13.273438 22.210938 L 14.4375 22.210938 L 14.4375 21.199219 L 14.65625 21.199219 L 14.988281 21.707031 L 15.320312 22.210938 L 15.996094 22.210938 C 16.371094 22.210938 16.675781 22.210938 16.675781 22.207031 C 16.675781 22.203125 16.503906 21.9375 16.292969 21.613281 C 16.085938 21.292969 15.914062 21.023438 15.914062 21.015625 C 15.914062 21.011719 15.949219 20.980469 15.996094 20.949219 C 16.886719 20.371094 16.792969 18.902344 15.832031 18.425781 C 15.523438 18.269531 15.441406 18.261719 14.210938 18.261719 L 13.273438 18.261719 L 13.273438 20.238281 M 15.128906 19.222656 C 15.59375 19.441406 15.515625 20.179688 15.015625 20.285156 C 14.980469 20.292969 14.832031 20.300781 14.691406 20.300781 L 14.4375 20.300781 L 14.4375 19.171875 L 14.742188 19.175781 L 15.042969 19.179688 L 15.128906 19.222656 M 19.101562 19.261719 C 19.960938 19.507812 20.015625 20.871094 19.175781 21.1875 C 18.539062 21.429688 17.898438 20.957031 17.898438 20.242188 C 17.894531 19.554688 18.472656 19.085938 19.101562 19.261719 "/>
<path style=" stroke:none;fill-rule:evenodd;fill:rgb(80.000001%,1.568628%,39.215687%);fill-opacity:1;" d="M 9.53125 3.019531 C 9.351562 3.0625 9.195312 3.1875 9.117188 3.359375 L 9.070312 3.457031 L 9.066406 7.632812 L 9.0625 11.8125 L 11.039062 11.8125 C 13.058594 11.8125 13.175781 11.808594 13.570312 11.761719 C 16.078125 11.457031 17.457031 9.730469 17.300781 7.082031 C 17.15625 4.605469 15.675781 3.171875 13.085938 3.011719 C 12.773438 2.992188 9.613281 2.996094 9.53125 3.019531 M 10.707031 6.171875 C 11.140625 6.28125 11.34375 6.585938 11.34375 7.117188 C 11.34375 7.496094 11.273438 7.703125 11.089844 7.886719 C 10.875 8.097656 10.773438 8.125 10.128906 8.125 L 9.648438 8.125 L 9.648438 7.140625 C 9.648438 6.597656 9.652344 6.148438 9.660156 6.144531 C 9.683594 6.121094 10.601562 6.144531 10.707031 6.171875 M 13.070312 6.328125 L 13.074219 6.511719 L 12.050781 6.511719 L 12.050781 6.9375 L 12.988281 6.9375 L 12.988281 7.273438 L 12.050781 7.273438 L 12.050781 7.75 L 13.085938 7.75 L 13.085938 8.125 L 11.625 8.125 L 11.625 6.136719 L 13.070312 6.144531 L 13.070312 6.328125 M 14.878906 7.132812 C 15.078125 7.675781 15.238281 8.125 15.238281 8.128906 C 15.238281 8.132812 15.136719 8.136719 15.015625 8.132812 L 14.796875 8.132812 L 14.726562 7.917969 L 14.652344 7.707031 L 14.292969 7.703125 L 13.929688 7.699219 L 13.855469 7.914062 L 13.777344 8.132812 L 13.5625 8.132812 C 13.445312 8.136719 13.351562 8.136719 13.351562 8.132812 C 13.351562 8.125 13.984375 6.394531 14.0625 6.179688 C 14.074219 6.152344 14.078125 6.148438 14.296875 6.148438 L 14.519531 6.148438 L 14.878906 7.132812 M 15.925781 6.957031 L 15.925781 7.761719 L 16.875 7.761719 L 16.871094 7.945312 L 16.867188 8.132812 L 15.507812 8.132812 L 15.5 6.148438 L 15.925781 6.148438 L 15.925781 6.957031 M 10.074219 7.144531 L 10.074219 7.765625 L 10.320312 7.757812 C 10.617188 7.753906 10.660156 7.742188 10.757812 7.644531 C 10.980469 7.421875 10.988281 6.890625 10.769531 6.664062 C 10.664062 6.554688 10.5625 6.523438 10.273438 6.523438 L 10.074219 6.523438 L 10.074219 7.144531 M 14.175781 6.992188 C 14.109375 7.179688 14.054688 7.339844 14.054688 7.347656 C 14.046875 7.359375 14.101562 7.363281 14.292969 7.363281 C 14.484375 7.363281 14.539062 7.359375 14.535156 7.347656 C 14.53125 7.339844 14.480469 7.183594 14.417969 7 C 14.359375 6.816406 14.304688 6.664062 14.300781 6.660156 C 14.296875 6.652344 14.238281 6.804688 14.175781 6.992188 "/>
<path style=" stroke:none;fill-rule:evenodd;fill:rgb(98.431373%,95.294118%,54.509807%);fill-opacity:1;" d="M 0.792969 0.0273438 C 0.417969 0.117188 0.117188 0.421875 0.0234375 0.804688 C 0 0.90625 0 1 0 12 L 0 23.09375 L 0.0273438 23.199219 C 0.117188 23.582031 0.417969 23.882812 0.804688 23.976562 C 0.90625 24 1 24 12 24 L 23.09375 24 L 23.199219 23.972656 C 23.582031 23.882812 23.882812 23.582031 23.976562 23.195312 C 24 23.09375 24 23 24 12 L 24 0.90625 L 23.972656 0.800781 C 23.882812 0.417969 23.582031 0.117188 23.195312 0.0234375 C 23.035156 -0.015625 0.953125 -0.0117188 0.792969 0.0273438 M 12.65625 0.898438 C 16.953125 1.058594 19.378906 3.324219 19.445312 7.242188 C 19.503906 10.671875 17.757812 12.984375 14.574219 13.6875 C 14.128906 13.785156 13.714844 13.84375 13.136719 13.894531 C 12.773438 13.929688 5.539062 13.9375 5.382812 13.90625 C 5.007812 13.832031 4.722656 13.558594 4.625 13.1875 C 4.585938 13.039062 4.585938 1.785156 4.625 1.628906 C 4.722656 1.246094 5.050781 0.953125 5.441406 0.902344 C 5.554688 0.886719 12.246094 0.886719 12.65625 0.898438 M 9.054688 7.683594 L 9.054688 11.820312 L 12.835938 11.820312 L 9.0625 11.8125 L 9.058594 7.679688 L 9.054688 3.550781 L 9.054688 7.683594 M 9.867188 6.148438 C 9.980469 6.148438 10.167969 6.148438 10.277344 6.148438 C 10.390625 6.144531 10.296875 6.144531 10.070312 6.144531 C 9.84375 6.144531 9.75 6.144531 9.867188 6.148438 M 12.347656 6.148438 L 13.0625 6.148438 L 13.066406 6.332031 L 13.070312 6.511719 L 13.070312 6.144531 L 11.632812 6.144531 L 12.347656 6.148438 M 17.304688 7.148438 C 17.304688 7.175781 17.304688 7.183594 17.308594 7.171875 C 17.3125 7.160156 17.3125 7.140625 17.308594 7.128906 C 17.304688 7.117188 17.304688 7.125 17.304688 7.148438 M 17.304688 7.664062 C 17.304688 7.6875 17.304688 7.695312 17.308594 7.683594 C 17.3125 7.671875 17.3125 7.652344 17.308594 7.640625 C 17.304688 7.628906 17.304688 7.636719 17.304688 7.664062 M 14.117188 7.695312 C 14.21875 7.699219 14.382812 7.699219 14.480469 7.695312 C 14.578125 7.695312 14.492188 7.691406 14.292969 7.691406 C 14.09375 7.691406 14.015625 7.695312 14.117188 7.695312 M 12.308594 7.757812 C 12.457031 7.761719 12.691406 7.761719 12.835938 7.757812 C 12.976562 7.757812 12.859375 7.753906 12.570312 7.753906 C 12.28125 7.753906 12.164062 7.757812 12.308594 7.757812 M 10.167969 7.773438 C 10.21875 7.773438 10.304688 7.773438 10.355469 7.773438 C 10.402344 7.769531 10.359375 7.765625 10.257812 7.765625 C 10.152344 7.765625 10.113281 7.769531 10.167969 7.773438 M 16.863281 7.941406 L 16.863281 8.125 L 16.183594 8.128906 L 15.507812 8.132812 L 16.183594 8.132812 C 16.730469 8.136719 16.863281 8.132812 16.871094 8.121094 C 16.871094 8.113281 16.875 8.027344 16.871094 7.929688 L 16.867188 7.757812 L 16.863281 7.941406 M 14.796875 8.128906 C 14.804688 8.132812 14.90625 8.136719 15.027344 8.132812 L 15.242188 8.132812 L 15.015625 8.125 C 14.890625 8.121094 14.792969 8.125 14.796875 8.128906 M 13.453125 8.132812 C 13.511719 8.136719 13.613281 8.136719 13.671875 8.132812 C 13.730469 8.132812 13.683594 8.128906 13.5625 8.128906 C 13.441406 8.128906 13.394531 8.132812 13.453125 8.132812 M 21.101562 15.910156 C 21.179688 15.988281 21.164062 16.121094 21.074219 16.167969 C 21.042969 16.183594 20.058594 16.1875 12.035156 16.1875 L 3.027344 16.1875 L 2.996094 16.160156 C 2.898438 16.085938 2.902344 15.949219 3.003906 15.886719 C 3.042969 15.863281 3.140625 15.863281 12.046875 15.863281 L 21.054688 15.863281 L 21.101562 15.910156 M 11.285156 18.167969 C 12.253906 18.296875 12.945312 18.992188 13.0625 19.96875 C 13.078125 20.09375 13.074219 20.480469 13.054688 20.582031 L 13.042969 20.632812 L 11.570312 20.636719 L 10.101562 20.644531 L 10.144531 20.734375 C 10.460938 21.367188 11.414062 21.402344 11.753906 20.789062 L 11.792969 20.710938 L 12.34375 20.710938 L 12.605469 20.925781 C 12.785156 21.074219 12.867188 21.144531 12.863281 21.160156 C 12.863281 21.171875 12.839844 21.222656 12.8125 21.273438 C 12.109375 22.59375 10.035156 22.675781 9.199219 21.417969 C 8.914062 20.988281 8.773438 20.3125 8.882812 19.851562 L 8.886719 19.824219 L 11.824219 19.824219 L 11.800781 19.769531 C 11.515625 19.101562 10.523438 19.042969 10.175781 19.671875 L 10.132812 19.753906 L 9.703125 19.746094 L 9.269531 19.738281 L 8.996094 19.464844 L 9.011719 19.414062 C 9.3125 18.558594 10.265625 18.035156 11.285156 18.167969 M 19.03125 18.164062 C 20.007812 18.242188 20.726562 18.863281 20.910156 19.785156 C 21.148438 20.960938 20.460938 22.046875 19.332031 22.273438 C 17.945312 22.554688 16.769531 21.667969 16.726562 20.316406 C 16.6875 18.992188 17.691406 18.054688 19.03125 18.164062 M 4.65625 19.410156 C 4.839844 20.039062 4.996094 20.5625 5 20.570312 C 5.003906 20.582031 5.160156 20.066406 5.34375 19.429688 L 5.683594 18.269531 L 6.148438 18.265625 L 6.617188 18.261719 L 6.949219 19.410156 C 7.128906 20.039062 7.28125 20.5625 7.285156 20.570312 C 7.289062 20.578125 7.449219 20.0625 7.636719 19.425781 L 7.980469 18.261719 L 8.597656 18.261719 C 9.179688 18.261719 9.214844 18.265625 9.207031 18.285156 C 9.203125 18.296875 8.886719 19.179688 8.507812 20.25 L 7.816406 22.195312 L 7.304688 22.195312 L 6.792969 22.199219 L 6.613281 21.609375 C 6.140625 20.039062 6.152344 20.078125 6.140625 20.113281 C 6.132812 20.128906 5.988281 20.605469 5.816406 21.171875 L 5.507812 22.199219 L 5 22.199219 C 4.527344 22.199219 4.488281 22.199219 4.480469 22.179688 C 4.476562 22.167969 4.164062 21.289062 3.789062 20.230469 C 3.410156 19.171875 3.097656 18.296875 3.09375 18.285156 C 3.085938 18.265625 3.121094 18.261719 3.703125 18.261719 L 4.320312 18.261719 L 4.65625 19.410156 M 15.398438 18.28125 C 16.679688 18.472656 17.074219 20.199219 16.007812 20.945312 C 15.929688 21.003906 15.914062 21.019531 15.925781 21.035156 C 15.929688 21.046875 16.105469 21.316406 16.308594 21.632812 L 16.683594 22.207031 L 16.003906 22.210938 C 15.464844 22.210938 15.316406 22.210938 15.304688 22.195312 C 15.296875 22.1875 15.144531 21.960938 14.96875 21.691406 L 14.648438 21.199219 L 14.4375 21.199219 L 14.4375 22.210938 L 13.273438 22.210938 L 13.273438 18.261719 L 14.277344 18.261719 C 15.085938 18.261719 15.304688 18.265625 15.398438 18.28125 M 14.4375 19.738281 L 14.4375 20.289062 L 14.71875 20.289062 C 14.960938 20.289062 15.007812 20.285156 15.078125 20.261719 C 15.519531 20.125 15.554688 19.425781 15.128906 19.226562 C 15.058594 19.195312 15.050781 19.195312 14.746094 19.191406 L 14.4375 19.1875 L 14.4375 19.738281 M 18.601562 19.261719 C 17.660156 19.507812 17.675781 20.984375 18.617188 21.21875 C 19.230469 21.371094 19.769531 20.90625 19.765625 20.230469 C 19.765625 19.554688 19.21875 19.101562 18.601562 19.261719 "/>
<path style=" stroke:none;fill-rule:evenodd;fill:rgb(98.431373%,98.431373%,98.431373%);fill-opacity:1;" d="M 5.441406 0.902344 C 5.050781 0.953125 4.722656 1.246094 4.625 1.628906 C 4.585938 1.785156 4.585938 13.039062 4.625 13.1875 C 4.722656 13.558594 5.007812 13.832031 5.382812 13.90625 C 5.539062 13.9375 12.773438 13.929688 13.136719 13.894531 C 13.714844 13.84375 14.128906 13.785156 14.574219 13.6875 C 17.757812 12.984375 19.503906 10.671875 19.445312 7.242188 C 19.378906 3.324219 16.953125 1.058594 12.65625 0.898438 C 12.246094 0.886719 5.554688 0.886719 5.441406 0.902344 M 12.605469 1.789062 C 16.46875 1.921875 18.539062 3.878906 18.542969 7.394531 C 18.546875 10.609375 16.816406 12.550781 13.582031 12.960938 C 13 13.035156 13.195312 13.03125 9.570312 13.03125 L 6.242188 13.03125 L 6.15625 13.003906 C 5.855469 12.902344 5.621094 12.664062 5.53125 12.355469 C 5.503906 12.265625 5.484375 2.746094 5.511719 2.570312 C 5.574219 2.164062 5.90625 1.839844 6.316406 1.789062 C 6.429688 1.773438 12.183594 1.773438 12.605469 1.789062 M 6.261719 2.125 C 6.054688 2.191406 5.898438 2.347656 5.84375 2.546875 C 5.820312 2.628906 5.820312 2.78125 5.820312 7.425781 L 5.820312 12.21875 L 5.847656 12.300781 C 5.921875 12.507812 6.078125 12.652344 6.285156 12.707031 C 6.371094 12.730469 12.414062 12.734375 12.808594 12.710938 C 16.535156 12.5 18.464844 10.398438 18.210938 6.832031 C 18.011719 4.027344 16.292969 2.449219 13.09375 2.128906 C 12.753906 2.09375 6.367188 2.089844 6.261719 2.125 M 13.320312 3.023438 C 14.609375 3.171875 15.460938 3.53125 16.152344 4.222656 C 16.929688 5.003906 17.304688 6.042969 17.304688 7.414062 C 17.304688 9.820312 16.105469 11.332031 13.886719 11.71875 C 13.316406 11.816406 13.058594 11.828125 10.855469 11.824219 L 9.054688 11.820312 L 9.054688 3.492188 L 9.085938 3.417969 C 9.160156 3.222656 9.300781 3.089844 9.5 3.023438 C 9.585938 2.996094 13.078125 2.996094 13.320312 3.023438 M 9.648438 7.136719 L 9.648438 8.125 L 10.152344 8.121094 C 10.714844 8.117188 10.726562 8.117188 10.898438 8.027344 C 11.507812 7.726562 11.503906 6.53125 10.898438 6.246094 C 10.71875 6.160156 10.710938 6.15625 10.152344 6.152344 L 9.648438 6.148438 L 9.648438 7.136719 M 11.625 7.136719 L 11.625 8.125 L 13.085938 8.125 L 13.085938 7.761719 L 12.050781 7.761719 L 12.050781 7.273438 L 12.988281 7.273438 L 12.988281 6.9375 L 12.050781 6.9375 L 12.050781 6.511719 L 13.0625 6.511719 L 13.0625 6.148438 L 11.625 6.148438 L 11.625 7.136719 M 14.070312 6.171875 C 14.0625 6.183594 13.90625 6.613281 13.71875 7.125 C 13.53125 7.636719 13.371094 8.070312 13.363281 8.089844 L 13.351562 8.125 L 13.78125 8.125 L 13.839844 7.945312 C 13.875 7.847656 13.910156 7.75 13.917969 7.726562 L 13.9375 7.6875 L 14.648438 7.6875 L 14.703125 7.851562 C 14.738281 7.945312 14.769531 8.042969 14.78125 8.070312 L 14.796875 8.117188 L 15.015625 8.121094 L 15.238281 8.125 L 15.203125 8.027344 C 15.183594 7.976562 15.019531 7.53125 14.84375 7.039062 L 14.519531 6.148438 L 14.296875 6.148438 C 14.101562 6.148438 14.078125 6.152344 14.070312 6.171875 M 15.5 7.136719 L 15.5 8.125 L 16.863281 8.125 L 16.863281 7.761719 L 15.925781 7.761719 L 15.925781 6.148438 L 15.5 6.148438 L 15.5 7.136719 M 7.636719 6.328125 C 8.351562 6.507812 8.5625 7.472656 7.988281 7.945312 C 7.417969 8.417969 6.539062 8.0625 6.464844 7.328125 C 6.398438 6.667969 6.988281 6.164062 7.636719 6.328125 M 10.570312 6.542969 C 10.796875 6.601562 10.910156 6.785156 10.921875 7.113281 C 10.941406 7.605469 10.765625 7.773438 10.238281 7.773438 L 10.074219 7.773438 L 10.074219 6.523438 L 10.285156 6.523438 C 10.433594 6.523438 10.515625 6.53125 10.570312 6.542969 M 14.414062 6.984375 C 14.476562 7.175781 14.53125 7.339844 14.535156 7.347656 C 14.539062 7.359375 14.484375 7.363281 14.296875 7.363281 C 14.160156 7.363281 14.050781 7.359375 14.050781 7.351562 C 14.050781 7.34375 14.292969 6.636719 14.296875 6.636719 C 14.296875 6.636719 14.351562 6.792969 14.414062 6.984375 M 7.414062 8.726562 C 7.59375 8.757812 7.777344 8.898438 7.867188 9.070312 C 7.953125 9.238281 7.949219 9.175781 7.949219 10.601562 L 7.949219 11.886719 L 7.894531 11.886719 C 7.277344 11.886719 6.714844 11.320312 6.648438 10.632812 C 6.625 10.390625 6.640625 9.296875 6.667969 9.210938 C 6.78125 8.863281 7.085938 8.664062 7.414062 8.726562 "/>
<path style=" stroke:none;fill-rule:evenodd;fill:rgb(50.588238%,49.411765%,32.549021%);fill-opacity:1;" d="M 7.882812 1.785156 C 8.710938 1.785156 10.0625 1.785156 10.890625 1.785156 C 11.71875 1.78125 11.039062 1.78125 9.386719 1.78125 C 7.734375 1.78125 7.058594 1.78125 7.882812 1.785156 M 12.695312 1.796875 C 12.71875 1.800781 12.753906 1.800781 12.777344 1.796875 C 12.800781 1.792969 12.78125 1.792969 12.738281 1.792969 C 12.691406 1.792969 12.675781 1.792969 12.695312 1.796875 M 12.945312 1.808594 C 12.960938 1.8125 12.988281 1.8125 13.003906 1.808594 C 13.019531 1.804688 13.007812 1.804688 12.976562 1.804688 C 12.945312 1.804688 12.929688 1.804688 12.945312 1.808594 M 13.128906 1.820312 C 13.140625 1.824219 13.160156 1.824219 13.171875 1.820312 C 13.183594 1.816406 13.175781 1.816406 13.148438 1.816406 C 13.125 1.816406 13.117188 1.816406 13.128906 1.820312 M 7.894531 2.097656 C 8.742188 2.097656 10.132812 2.097656 10.984375 2.097656 C 11.835938 2.09375 11.140625 2.09375 9.445312 2.09375 C 7.746094 2.09375 7.050781 2.09375 7.894531 2.097656 M 12.726562 2.109375 C 12.746094 2.113281 12.777344 2.113281 12.796875 2.109375 C 12.816406 2.105469 12.800781 2.105469 12.761719 2.105469 C 12.726562 2.105469 12.710938 2.105469 12.726562 2.109375 M 12.945312 2.121094 C 12.960938 2.125 12.984375 2.125 12.996094 2.121094 C 13.007812 2.117188 12.996094 2.117188 12.96875 2.117188 C 12.941406 2.117188 12.929688 2.117188 12.945312 2.121094 M 13.101562 2.132812 C 13.113281 2.136719 13.136719 2.136719 13.148438 2.132812 C 13.160156 2.128906 13.148438 2.128906 13.125 2.128906 C 13.101562 2.128906 13.089844 2.128906 13.101562 2.132812 M 5.992188 2.277344 L 5.945312 2.332031 L 5.996094 2.28125 C 6.046875 2.234375 6.054688 2.226562 6.046875 2.226562 C 6.042969 2.226562 6.019531 2.25 5.992188 2.277344 M 5.507812 7.414062 C 5.507812 10.054688 5.507812 11.136719 5.507812 9.816406 C 5.511719 8.492188 5.511719 6.332031 5.507812 5.007812 C 5.507812 3.6875 5.507812 4.769531 5.507812 7.414062 M 16.914062 3.230469 C 16.914062 3.230469 16.929688 3.25 16.953125 3.269531 L 16.992188 3.304688 L 16.957031 3.265625 C 16.921875 3.226562 16.914062 3.21875 16.914062 3.230469 M 17.1875 3.503906 C 17.1875 3.507812 17.207031 3.523438 17.226562 3.542969 L 17.269531 3.582031 L 17.230469 3.539062 C 17.199219 3.503906 17.1875 3.496094 17.1875 3.503906 M 6.726562 6.570312 C 6.695312 6.601562 6.671875 6.625 6.675781 6.625 C 6.679688 6.625 6.707031 6.601562 6.738281 6.570312 C 6.769531 6.539062 6.789062 6.511719 6.785156 6.511719 C 6.78125 6.511719 6.753906 6.539062 6.726562 6.570312 M 18.515625 6.738281 C 18.515625 6.761719 18.519531 6.769531 18.519531 6.757812 C 18.523438 6.746094 18.523438 6.726562 18.519531 6.714844 C 18.519531 6.703125 18.515625 6.714844 18.515625 6.738281 M 18.214844 6.882812 C 18.214844 6.910156 18.21875 6.917969 18.222656 6.902344 C 18.222656 6.886719 18.222656 6.863281 18.222656 6.851562 C 18.21875 6.839844 18.214844 6.855469 18.214844 6.882812 M 18.527344 6.898438 C 18.527344 6.929688 18.53125 6.945312 18.535156 6.929688 C 18.535156 6.914062 18.535156 6.886719 18.535156 6.871094 C 18.53125 6.855469 18.527344 6.867188 18.527344 6.898438 M 18.230469 7.144531 C 18.230469 7.199219 18.230469 7.21875 18.234375 7.191406 C 18.238281 7.160156 18.238281 7.117188 18.234375 7.089844 C 18.230469 7.066406 18.230469 7.089844 18.230469 7.144531 M 18.542969 7.40625 C 18.542969 7.585938 18.542969 7.65625 18.546875 7.566406 C 18.550781 7.472656 18.550781 7.328125 18.546875 7.238281 C 18.542969 7.152344 18.542969 7.226562 18.542969 7.40625 M 8.316406 7.230469 C 8.316406 7.292969 8.320312 7.320312 8.320312 7.292969 C 8.324219 7.261719 8.324219 7.210938 8.320312 7.179688 C 8.320312 7.144531 8.316406 7.167969 8.316406 7.230469 M 18.230469 7.65625 C 18.230469 7.710938 18.230469 7.730469 18.234375 7.703125 C 18.238281 7.671875 18.238281 7.628906 18.234375 7.601562 C 18.230469 7.578125 18.230469 7.601562 18.230469 7.65625 M 8.042969 7.890625 L 7.992188 7.945312 L 8.046875 7.894531 C 8.097656 7.847656 8.105469 7.835938 8.097656 7.835938 C 8.09375 7.835938 8.070312 7.863281 8.042969 7.890625 M 18.527344 7.914062 C 18.527344 7.945312 18.53125 7.957031 18.535156 7.941406 C 18.535156 7.925781 18.535156 7.898438 18.535156 7.882812 C 18.53125 7.867188 18.527344 7.882812 18.527344 7.914062 M 18.214844 7.917969 C 18.214844 7.945312 18.21875 7.957031 18.222656 7.941406 C 18.222656 7.925781 18.222656 7.902344 18.222656 7.890625 C 18.21875 7.878906 18.214844 7.890625 18.214844 7.917969 M 18.203125 8.074219 C 18.203125 8.097656 18.207031 8.109375 18.207031 8.097656 C 18.210938 8.085938 18.210938 8.066406 18.207031 8.054688 C 18.207031 8.042969 18.203125 8.050781 18.203125 8.074219 M 18.515625 8.085938 C 18.515625 8.113281 18.519531 8.121094 18.519531 8.109375 C 18.523438 8.097656 18.523438 8.078125 18.519531 8.066406 C 18.519531 8.054688 18.515625 8.0625 18.515625 8.085938 M 7.339844 8.160156 C 7.375 8.160156 7.425781 8.160156 7.453125 8.160156 C 7.484375 8.15625 7.457031 8.15625 7.394531 8.15625 C 7.332031 8.15625 7.308594 8.15625 7.339844 8.160156 M 7.257812 8.722656 C 7.28125 8.722656 7.316406 8.722656 7.339844 8.722656 C 7.363281 8.71875 7.34375 8.714844 7.300781 8.714844 C 7.253906 8.714844 7.238281 8.71875 7.257812 8.722656 M 7.738281 8.90625 C 7.761719 8.929688 7.78125 8.949219 7.785156 8.949219 C 7.789062 8.949219 7.773438 8.929688 7.75 8.90625 C 7.726562 8.882812 7.703125 8.863281 7.703125 8.863281 C 7.699219 8.863281 7.714844 8.882812 7.738281 8.90625 M 6.644531 9.960938 C 6.644531 10.296875 6.644531 10.433594 6.648438 10.265625 C 6.648438 10.097656 6.648438 9.824219 6.648438 9.660156 C 6.644531 9.492188 6.644531 9.628906 6.644531 9.960938 M 17.09375 11.414062 L 17.019531 11.492188 L 17.097656 11.417969 C 17.140625 11.378906 17.175781 11.34375 17.175781 11.339844 C 17.175781 11.332031 17.164062 11.34375 17.09375 11.414062 M 7.851562 11.882812 C 7.871094 11.886719 7.902344 11.886719 7.921875 11.882812 C 7.941406 11.882812 7.925781 11.878906 7.886719 11.878906 C 7.851562 11.878906 7.835938 11.882812 7.851562 11.882812 M 5.988281 12.542969 C 6.011719 12.566406 6.03125 12.585938 6.035156 12.585938 C 6.039062 12.585938 6.023438 12.566406 6 12.542969 C 5.976562 12.519531 5.953125 12.5 5.953125 12.5 C 5.949219 12.5 5.964844 12.519531 5.988281 12.542969 M 13.101562 12.695312 C 13.113281 12.699219 13.136719 12.699219 13.148438 12.695312 C 13.160156 12.691406 13.148438 12.691406 13.125 12.691406 C 13.101562 12.691406 13.089844 12.691406 13.101562 12.695312 M 12.933594 12.707031 C 12.949219 12.710938 12.976562 12.710938 12.992188 12.707031 C 13.007812 12.707031 12.992188 12.703125 12.960938 12.703125 C 12.929688 12.703125 12.917969 12.707031 12.933594 12.707031 M 12.703125 12.722656 C 12.722656 12.722656 12.753906 12.722656 12.773438 12.722656 C 12.789062 12.71875 12.773438 12.714844 12.738281 12.714844 C 12.699219 12.714844 12.683594 12.71875 12.703125 12.722656 M 7.902344 12.734375 C 8.738281 12.734375 10.109375 12.734375 10.945312 12.734375 C 11.785156 12.734375 11.097656 12.730469 9.425781 12.730469 C 7.75 12.730469 7.066406 12.734375 7.902344 12.734375 M 13.089844 13.007812 C 13.101562 13.011719 13.121094 13.011719 13.132812 13.007812 C 13.144531 13.003906 13.136719 13.003906 13.113281 13.003906 C 13.089844 13.003906 13.078125 13.003906 13.089844 13.007812 M 12.910156 13.019531 C 12.925781 13.023438 12.949219 13.023438 12.964844 13.019531 C 12.980469 13.019531 12.96875 13.015625 12.9375 13.015625 C 12.90625 13.015625 12.894531 13.019531 12.910156 13.019531 M 12.628906 13.035156 C 12.652344 13.035156 12.695312 13.035156 12.722656 13.035156 C 12.746094 13.03125 12.726562 13.027344 12.675781 13.027344 C 12.625 13.027344 12.601562 13.03125 12.628906 13.035156 M 2.929688 16.023438 C 2.929688 16.054688 2.929688 16.070312 2.933594 16.054688 C 2.9375 16.039062 2.9375 16.011719 2.933594 15.996094 C 2.929688 15.980469 2.929688 15.992188 2.929688 16.023438 M 10.828125 18.160156 C 10.855469 18.160156 10.894531 18.160156 10.921875 18.160156 C 10.949219 18.15625 10.925781 18.152344 10.875 18.152344 C 10.824219 18.152344 10.800781 18.15625 10.828125 18.160156 M 11.097656 18.160156 C 11.113281 18.160156 11.136719 18.160156 11.152344 18.160156 C 11.167969 18.15625 11.15625 18.152344 11.125 18.152344 C 11.09375 18.152344 11.082031 18.15625 11.097656 18.160156 M 18.785156 18.160156 C 18.8125 18.160156 18.863281 18.160156 18.890625 18.160156 C 18.917969 18.15625 18.894531 18.15625 18.835938 18.15625 C 18.777344 18.15625 18.753906 18.15625 18.785156 18.160156 M 15.226562 18.269531 C 15.246094 18.273438 15.277344 18.273438 15.289062 18.269531 C 15.304688 18.269531 15.289062 18.265625 15.257812 18.265625 C 15.222656 18.265625 15.210938 18.269531 15.226562 18.269531 M 20.351562 18.742188 C 20.394531 18.789062 20.433594 18.824219 20.4375 18.824219 C 20.441406 18.824219 20.40625 18.789062 20.363281 18.742188 C 20.316406 18.699219 20.277344 18.664062 20.277344 18.664062 C 20.273438 18.664062 20.304688 18.699219 20.351562 18.742188 M 9.394531 18.796875 C 9.222656 18.988281 9.082031 19.21875 9.011719 19.414062 L 8.996094 19.464844 L 9.269531 19.738281 L 9.703125 19.746094 L 10.132812 19.753906 L 10.175781 19.675781 C 10.199219 19.632812 10.253906 19.554688 10.300781 19.507812 C 10.371094 19.429688 10.371094 19.425781 10.316406 19.480469 L 10.25 19.542969 L 10.207031 19.5 C 10.179688 19.476562 10.003906 19.292969 9.808594 19.097656 L 9.457031 18.738281 L 9.488281 18.707031 C 9.503906 18.6875 9.515625 18.675781 9.511719 18.675781 C 9.507812 18.675781 9.453125 18.730469 9.394531 18.796875 M 12.523438 18.792969 C 12.546875 18.816406 12.570312 18.835938 12.574219 18.835938 C 12.578125 18.835938 12.5625 18.816406 12.539062 18.792969 C 12.515625 18.769531 12.492188 18.75 12.488281 18.75 C 12.484375 18.75 12.5 18.769531 12.523438 18.792969 M 14.578125 19.183594 C 14.660156 19.1875 14.789062 19.1875 14.867188 19.183594 C 14.941406 19.183594 14.875 19.179688 14.71875 19.179688 C 14.5625 19.179688 14.496094 19.183594 14.578125 19.183594 M 18.785156 19.234375 C 18.8125 19.238281 18.863281 19.238281 18.890625 19.234375 C 18.917969 19.230469 18.894531 19.230469 18.835938 19.230469 C 18.777344 19.230469 18.753906 19.230469 18.785156 19.234375 M 15.238281 19.292969 C 15.238281 19.292969 15.253906 19.3125 15.277344 19.332031 L 15.320312 19.367188 L 15.28125 19.328125 C 15.246094 19.289062 15.238281 19.28125 15.238281 19.292969 M 16.617188 19.738281 C 16.617188 19.769531 16.617188 19.78125 16.621094 19.765625 C 16.625 19.75 16.625 19.726562 16.621094 19.710938 C 16.617188 19.695312 16.617188 19.707031 16.617188 19.738281 M 9.613281 19.835938 C 10.019531 19.835938 10.683594 19.835938 11.089844 19.835938 C 11.496094 19.832031 11.167969 19.832031 10.355469 19.832031 C 9.546875 19.832031 9.210938 19.832031 9.613281 19.835938 M 13.066406 20.054688 C 13.066406 20.082031 13.070312 20.09375 13.070312 20.078125 C 13.074219 20.0625 13.074219 20.039062 13.070312 20.027344 C 13.066406 20.015625 13.066406 20.027344 13.066406 20.054688 M 16.726562 20.070312 C 16.726562 20.097656 16.730469 20.105469 16.734375 20.089844 C 16.738281 20.074219 16.738281 20.050781 16.734375 20.039062 C 16.730469 20.027344 16.726562 20.042969 16.726562 20.070312 M 8.855469 20.230469 C 8.855469 20.328125 8.855469 20.363281 8.859375 20.316406 C 8.863281 20.265625 8.863281 20.1875 8.859375 20.140625 C 8.855469 20.09375 8.855469 20.136719 8.855469 20.230469 M 20.953125 20.238281 C 20.953125 20.296875 20.957031 20.320312 20.960938 20.289062 C 20.960938 20.261719 20.960938 20.214844 20.960938 20.183594 C 20.957031 20.15625 20.953125 20.179688 20.953125 20.238281 M 19.777344 20.238281 C 19.777344 20.269531 19.78125 20.28125 19.785156 20.265625 C 19.785156 20.25 19.785156 20.226562 19.785156 20.210938 C 19.78125 20.195312 19.777344 20.207031 19.777344 20.238281 M 17.890625 20.238281 C 17.890625 20.261719 17.894531 20.269531 17.894531 20.257812 C 17.898438 20.246094 17.898438 20.226562 17.894531 20.214844 C 17.894531 20.203125 17.890625 20.214844 17.890625 20.238281 M 14.566406 20.296875 C 14.636719 20.300781 14.761719 20.300781 14.839844 20.296875 C 14.917969 20.292969 14.859375 20.292969 14.707031 20.292969 C 14.554688 20.292969 14.492188 20.292969 14.566406 20.296875 M 13.066406 20.398438 C 13.066406 20.425781 13.066406 20.433594 13.070312 20.421875 C 13.074219 20.410156 13.074219 20.390625 13.070312 20.378906 C 13.066406 20.367188 13.066406 20.375 13.066406 20.398438 M 16.726562 20.40625 C 16.726562 20.433594 16.730469 20.445312 16.734375 20.429688 C 16.738281 20.414062 16.738281 20.390625 16.734375 20.378906 C 16.730469 20.367188 16.726562 20.378906 16.726562 20.40625 M 13.039062 20.605469 C 13.039062 20.625 12.929688 20.625 11.566406 20.628906 L 10.09375 20.632812 L 11.566406 20.632812 C 13.097656 20.636719 13.09375 20.636719 13.046875 20.589844 C 13.039062 20.585938 13.039062 20.59375 13.039062 20.605469 M 11.753906 20.789062 C 11.699219 20.882812 11.570312 21.019531 11.476562 21.082031 L 11.402344 21.128906 L 11.472656 21.1875 C 11.511719 21.21875 11.710938 21.378906 11.917969 21.546875 C 12.125 21.714844 12.296875 21.855469 12.296875 21.859375 C 12.300781 21.859375 12.296875 21.871094 12.285156 21.882812 C 12.25 21.933594 12.386719 21.8125 12.488281 21.710938 C 12.640625 21.554688 12.84375 21.257812 12.863281 21.160156 C 12.867188 21.144531 12.785156 21.074219 12.605469 20.925781 L 12.34375 20.710938 L 11.792969 20.710938 L 11.753906 20.789062 M 16.191406 20.789062 L 16.15625 20.832031 L 16.195312 20.792969 C 16.234375 20.761719 16.242188 20.75 16.234375 20.75 C 16.230469 20.75 16.214844 20.769531 16.191406 20.789062 M 10.871094 21.234375 C 10.886719 21.238281 10.910156 21.238281 10.921875 21.234375 C 10.933594 21.230469 10.921875 21.226562 10.894531 21.226562 C 10.867188 21.226562 10.855469 21.230469 10.871094 21.234375 M 18.746094 21.246094 C 18.761719 21.25 18.785156 21.25 18.796875 21.246094 C 18.808594 21.242188 18.796875 21.242188 18.769531 21.242188 C 18.742188 21.242188 18.730469 21.242188 18.746094 21.246094 M 18.882812 21.246094 C 18.898438 21.25 18.921875 21.25 18.933594 21.246094 C 18.945312 21.242188 18.933594 21.242188 18.90625 21.242188 C 18.878906 21.242188 18.867188 21.242188 18.882812 21.246094 M 20.40625 21.679688 L 20.367188 21.71875 L 20.410156 21.683594 C 20.445312 21.648438 20.457031 21.636719 20.445312 21.636719 C 20.445312 21.636719 20.425781 21.65625 20.40625 21.679688 M 9.449219 21.730469 C 9.488281 21.769531 9.519531 21.800781 9.523438 21.800781 C 9.527344 21.800781 9.5 21.769531 9.460938 21.730469 C 9.425781 21.695312 9.390625 21.664062 9.386719 21.664062 C 9.386719 21.664062 9.414062 21.695312 9.449219 21.730469 M 17.320312 21.738281 C 17.34375 21.765625 17.371094 21.789062 17.375 21.789062 C 17.378906 21.789062 17.359375 21.765625 17.332031 21.738281 C 17.304688 21.710938 17.28125 21.6875 17.277344 21.6875 C 17.273438 21.6875 17.292969 21.710938 17.320312 21.738281 M 20.300781 21.785156 L 20.257812 21.832031 L 20.304688 21.789062 C 20.328125 21.765625 20.351562 21.742188 20.351562 21.742188 C 20.351562 21.730469 20.339844 21.742188 20.300781 21.785156 M 10.789062 22.308594 C 10.808594 22.3125 10.839844 22.3125 10.851562 22.308594 C 10.867188 22.304688 10.851562 22.304688 10.820312 22.304688 C 10.785156 22.304688 10.773438 22.304688 10.789062 22.308594 M 11.007812 22.308594 C 11.03125 22.3125 11.066406 22.3125 11.085938 22.308594 C 11.101562 22.304688 11.085938 22.304688 11.042969 22.304688 C 11.003906 22.304688 10.988281 22.304688 11.007812 22.308594 M 18.765625 22.320312 C 18.804688 22.324219 18.871094 22.324219 18.910156 22.320312 C 18.949219 22.320312 18.917969 22.316406 18.835938 22.316406 C 18.757812 22.316406 18.726562 22.320312 18.765625 22.320312 "/>
</g>
</svg>
