<?xml version="1.0" encoding="UTF-8"?>
<svg xmlns="http://www.w3.org/2000/svg" xmlns:xlink="http://www.w3.org/1999/xlink" width="px" height="24px" viewBox="0 0 50 24" version="1.1">
<defs>
<filter id="alpha" filterUnits="objectBoundingBox" x="0%" y="0%" width="100%" height="100%">
  <feColorMatrix type="matrix" in="SourceGraphic" values="0 0 0 0 1 0 0 0 0 1 0 0 0 0 1 0 0 0 1 0"/>
</filter>
<mask id="mask0">
  <g filter="url(#alpha)">
<rect x="0" y="0" width="50" height="24" style="fill:rgb(0%,0%,0%);fill-opacity:0.996078;stroke:none;"/>
  </g>
</mask>
<clipPath id="clip1">
  <rect x="0" y="0" width="50" height="24"/>
</clipPath>
<g id="surface5" clip-path="url(#clip1)">
<path style=" stroke:none;fill-rule:evenodd;fill:rgb(13.333334%,11.372549%,25.882354%);fill-opacity:1;" d="M 2.773438 -0.0234375 C 14.625 -0.0234375 26.476562 -0.0234375 38.324219 -0.0234375 C 41.972656 0.136719 44.980469 1.613281 47.351562 4.402344 C 48.835938 6.296875 49.710938 8.441406 49.976562 10.84375 C 49.976562 11.597656 49.976562 12.351562 49.976562 13.105469 C 49.457031 17.207031 47.4375 20.320312 43.925781 22.441406 C 42.171875 23.394531 40.304688 23.90625 38.324219 23.976562 C 26.476562 23.976562 14.625 23.976562 2.773438 23.976562 C 1.304688 23.804688 0.371094 23 -0.0234375 21.558594 C -0.0234375 15.167969 -0.0234375 8.78125 -0.0234375 2.390625 C 0.371094 0.949219 1.304688 0.144531 2.773438 -0.0234375 Z M 2.773438 -0.0234375 "/>
</g>
</defs>
<g id="surface1">
<use xlink:href="#surface5" mask="url(#mask0)"/>
<path style=" stroke:none;fill-rule:evenodd;fill:rgb(94.901961%,60.392159%,60.392159%);fill-opacity:1;" d="M 9.574219 5.660156 C 9.992188 5.652344 10.410156 5.660156 10.824219 5.683594 C 10.898438 5.726562 10.957031 5.785156 11 5.863281 C 11.035156 9.183594 11.035156 12.503906 11 15.824219 C 10.957031 15.933594 10.882812 16.007812 10.773438 16.050781 C 10.375 16.082031 9.976562 16.082031 9.574219 16.050781 C 9.496094 15.988281 9.4375 15.914062 9.398438 15.824219 C 9.367188 12.503906 9.367188 9.183594 9.398438 5.863281 C 9.433594 5.769531 9.492188 5.703125 9.574219 5.660156 Z M 9.574219 5.660156 "/>
<path style=" stroke:none;fill-rule:evenodd;fill:rgb(94.901961%,60.392159%,60.392159%);fill-opacity:1;" d="M 12.523438 5.660156 C 12.941406 5.652344 13.359375 5.660156 13.773438 5.683594 C 13.832031 5.746094 13.890625 5.804688 13.949219 5.863281 C 13.984375 9.183594 13.984375 12.503906 13.949219 15.824219 C 13.910156 15.914062 13.851562 15.988281 13.773438 16.050781 C 13.359375 16.082031 12.941406 16.082031 12.523438 16.050781 C 12.449219 15.988281 12.390625 15.914062 12.351562 15.824219 C 12.316406 12.503906 12.316406 9.183594 12.351562 5.863281 C 12.417969 5.800781 12.476562 5.734375 12.523438 5.660156 Z M 12.523438 5.660156 "/>
<path style=" stroke:none;fill-rule:evenodd;fill:rgb(98.431373%,98.431373%,98.431373%);fill-opacity:1;" d="M 7.074219 7.320312 C 7.214844 7.308594 7.347656 7.332031 7.476562 7.394531 C 7.734375 7.65625 7.992188 7.917969 8.25 8.175781 C 8.285156 8.292969 8.285156 8.410156 8.25 8.527344 C 7.945312 8.871094 7.609375 9.171875 7.25 9.433594 C 7.167969 9.425781 7.09375 9.402344 7.023438 9.359375 C 6.765625 9.097656 6.507812 8.839844 6.25 8.578125 C 6.179688 8.46875 6.164062 8.351562 6.199219 8.226562 C 6.5 7.929688 6.792969 7.628906 7.074219 7.320312 Z M 7.074219 7.320312 "/>
<path style=" stroke:none;fill-rule:evenodd;fill:rgb(94.117647%,60.000002%,60.000002%);fill-opacity:1;" d="M 15.773438 7.421875 C 16.683594 7.320312 17.109375 7.722656 17.050781 8.628906 C 16.691406 9.347656 16.164062 9.507812 15.476562 9.105469 C 15.148438 8.71875 15.089844 8.292969 15.300781 7.824219 C 15.4375 7.660156 15.597656 7.523438 15.773438 7.421875 Z M 15.773438 7.421875 "/>
<path style=" stroke:none;fill-rule:evenodd;fill:rgb(99.215686%,99.215686%,99.215686%);fill-opacity:1;" d="M 35.226562 8.023438 C 35.691406 8.023438 36.160156 8.023438 36.625 8.023438 C 36.625 10.707031 36.625 13.390625 36.625 16.074219 C 36.160156 16.074219 35.691406 16.074219 35.226562 16.074219 C 35.234375 15.789062 35.226562 15.503906 35.199219 15.21875 C 34.808594 15.757812 34.285156 16.066406 33.625 16.152344 C 32 16.242188 30.992188 15.496094 30.601562 13.910156 C 30.347656 12.648438 30.6875 11.582031 31.625 10.71875 C 32.402344 10.21875 33.234375 10.101562 34.125 10.363281 C 34.585938 10.507812 34.941406 10.785156 35.199219 11.195312 C 35.226562 10.136719 35.234375 9.082031 35.226562 8.023438 Z M 35.226562 8.023438 "/>
<path style=" stroke:none;fill-rule:evenodd;fill:rgb(94.509804%,60.000002%,60.392159%);fill-opacity:1;" d="M 6.675781 10.1875 C 7.058594 10.179688 7.441406 10.1875 7.824219 10.214844 C 7.933594 10.253906 8.007812 10.332031 8.050781 10.441406 C 8.082031 12.234375 8.082031 14.03125 8.050781 15.824219 C 8.007812 15.933594 7.933594 16.007812 7.824219 16.050781 C 7.425781 16.082031 7.023438 16.082031 6.625 16.050781 C 6.566406 15.992188 6.507812 15.933594 6.449219 15.875 C 6.417969 14.046875 6.417969 12.21875 6.449219 10.390625 C 6.519531 10.3125 6.59375 10.242188 6.675781 10.1875 Z M 6.675781 10.1875 "/>
<path style=" stroke:none;fill-rule:evenodd;fill:rgb(94.117647%,60.000002%,60.392159%);fill-opacity:1;" d="M 15.523438 10.1875 C 15.910156 10.179688 16.292969 10.1875 16.675781 10.214844 C 16.765625 10.253906 16.839844 10.3125 16.898438 10.390625 C 16.933594 12.21875 16.933594 14.046875 16.898438 15.875 C 16.839844 15.933594 16.785156 15.992188 16.726562 16.050781 C 16.308594 16.082031 15.890625 16.082031 15.476562 16.050781 C 15.398438 15.988281 15.339844 15.914062 15.300781 15.824219 C 15.265625 14.03125 15.265625 12.234375 15.300781 10.441406 C 15.367188 10.347656 15.441406 10.261719 15.523438 10.1875 Z M 15.523438 10.1875 "/>
<path style=" stroke:none;fill-rule:evenodd;fill:rgb(98.823529%,98.823529%,98.823529%);fill-opacity:1;" d="M 20.625 10.238281 C 21.574219 10.125 22.441406 10.332031 23.226562 10.867188 C 23.367188 11.003906 23.5 11.144531 23.625 11.296875 C 23.34375 11.5625 23.058594 11.832031 22.773438 12.101562 C 22.054688 11.457031 21.253906 11.332031 20.375 11.722656 C 19.585938 12.480469 19.460938 13.34375 20 14.316406 C 20.441406 14.835938 21 15.03125 21.675781 14.894531 C 22.132812 14.816406 22.515625 14.605469 22.824219 14.265625 C 23.09375 14.488281 23.371094 14.707031 23.648438 14.917969 C 23.683594 14.96875 23.683594 15.019531 23.648438 15.070312 C 23.242188 15.554688 22.734375 15.882812 22.125 16.050781 C 20.90625 16.359375 19.847656 16.082031 18.949219 15.21875 C 18.359375 14.445312 18.144531 13.574219 18.300781 12.605469 C 18.585938 11.320312 19.359375 10.53125 20.625 10.238281 Z M 20.625 10.238281 "/>
<path style=" stroke:none;fill-rule:evenodd;fill:rgb(98.823529%,98.823529%,99.215686%);fill-opacity:1;" d="M 29.476562 16.074219 C 29.023438 16.074219 28.574219 16.074219 28.125 16.074219 C 28.140625 15.855469 28.125 15.636719 28.074219 15.421875 C 28.042969 15.425781 28.027344 15.445312 28.023438 15.472656 C 27.71875 15.8125 27.335938 16.019531 26.875 16.101562 C 25.964844 16.324219 25.191406 16.097656 24.550781 15.421875 C 24.246094 14.964844 24.144531 14.460938 24.25 13.910156 C 24.519531 13.144531 25.058594 12.714844 25.875 12.628906 C 26.609375 12.605469 27.339844 12.59375 28.074219 12.605469 C 28.136719 11.902344 27.820312 11.507812 27.125 11.421875 C 26.390625 11.332031 25.714844 11.492188 25.101562 11.898438 C 24.921875 11.625 24.753906 11.339844 24.601562 11.042969 C 24.5625 10.988281 24.570312 10.9375 24.625 10.894531 C 25.8125 10.191406 27.0625 10.046875 28.375 10.464844 C 28.957031 10.75 29.316406 11.210938 29.449219 11.847656 C 29.476562 13.257812 29.484375 14.667969 29.476562 16.074219 Z M 29.476562 16.074219 "/>
<path style=" stroke:none;fill-rule:evenodd;fill:rgb(98.823529%,98.823529%,98.823529%);fill-opacity:1;" d="M 40.375 10.238281 C 41.324219 10.121094 42.191406 10.328125 42.976562 10.867188 C 44.070312 11.941406 44.308594 13.191406 43.699219 14.617188 C 43.296875 15.355469 42.691406 15.832031 41.875 16.050781 C 40.550781 16.382812 39.425781 16.054688 38.5 15.070312 C 37.988281 14.308594 37.804688 13.46875 37.949219 12.554688 C 38.265625 11.253906 39.074219 10.484375 40.375 10.238281 Z M 40.375 10.238281 "/>
<path style=" stroke:none;fill-rule:evenodd;fill:rgb(13.725491%,11.764706%,26.274511%);fill-opacity:1;" d="M 33.175781 11.445312 C 34.664062 11.390625 35.335938 12.113281 35.199219 13.609375 C 34.925781 14.625 34.269531 15.070312 33.226562 14.945312 C 32.5625 14.765625 32.15625 14.335938 32 13.660156 C 31.804688 12.59375 32.195312 11.855469 33.175781 11.445312 Z M 33.175781 11.445312 "/>
<path style=" stroke:none;fill-rule:evenodd;fill:rgb(13.725491%,11.764706%,26.274511%);fill-opacity:1;" d="M 40.574219 11.445312 C 42.039062 11.417969 42.695312 12.140625 42.550781 13.609375 C 42.292969 14.605469 41.648438 15.050781 40.625 14.945312 C 39.609375 14.597656 39.183594 13.886719 39.351562 12.804688 C 39.507812 12.113281 39.917969 11.660156 40.574219 11.445312 Z M 40.574219 11.445312 "/>
<path style=" stroke:none;fill-rule:evenodd;fill:rgb(13.725491%,11.764706%,26.274511%);fill-opacity:1;" d="M 26.125 13.558594 C 26.773438 13.558594 27.425781 13.558594 28.074219 13.558594 C 28.175781 14.039062 28.042969 14.433594 27.675781 14.742188 C 27.097656 15.101562 26.496094 15.152344 25.875 14.894531 C 25.566406 14.605469 25.492188 14.261719 25.648438 13.863281 C 25.792969 13.726562 25.949219 13.628906 26.125 13.558594 Z M 26.125 13.558594 "/>
<path style=" stroke:none;fill-rule:evenodd;fill:rgb(48.235294%,47.058824%,55.686277%);fill-opacity:1;" d="M 28.023438 15.472656 C 28.027344 15.445312 28.042969 15.425781 28.074219 15.421875 C 28.125 15.636719 28.140625 15.855469 28.125 16.074219 C 28.574219 16.074219 29.023438 16.074219 29.476562 16.074219 C 29.015625 16.125 28.550781 16.140625 28.074219 16.125 C 28.089844 15.898438 28.074219 15.679688 28.023438 15.472656 Z M 28.023438 15.472656 "/>
</g>
</svg>
