<?xml version="1.0" encoding="UTF-8"?>
<svg xmlns="http://www.w3.org/2000/svg" xmlns:xlink="http://www.w3.org/1999/xlink" width="px" height="24px" viewBox="0 0 24 24" version="1.1">
<g id="surface1">
<path style=" stroke:none;fill-rule:nonzero;fill:rgb(83.92157%,1.960784%,6.27451%);fill-opacity:1;" d="M 4.707031 14.867188 L 4.648438 15.296875 C 4.644531 15.398438 4.675781 15.496094 4.742188 15.570312 C 4.8125 15.648438 4.90625 15.691406 5.007812 15.699219 L 18.992188 15.699219 C 19.097656 15.699219 19.199219 15.65625 19.269531 15.578125 C 19.339844 15.503906 19.375 15.398438 19.367188 15.296875 L 19.3125 14.867188 C 19.277344 14.53125 19.519531 14.230469 19.855469 14.191406 C 20.015625 14.171875 20.175781 14.222656 20.304688 14.324219 C 20.429688 14.425781 20.507812 14.574219 20.523438 14.734375 L 20.578125 15.152344 C 20.6875 16.085938 20.15625 16.910156 19.210938 16.910156 L 4.808594 16.910156 C 3.863281 16.910156 3.328125 16.085938 3.4375 15.152344 L 3.496094 14.734375 C 3.511719 14.574219 3.589844 14.425781 3.714844 14.324219 C 3.839844 14.222656 4 14.171875 4.164062 14.191406 C 4.5 14.230469 4.742188 14.53125 4.707031 14.867188 "/>
<path style=" stroke:none;fill-rule:nonzero;fill:rgb(0%,0%,0%);fill-opacity:1;" d="M 17.625 11.625 C 17.941406 11.640625 18.246094 11.527344 18.476562 11.3125 C 18.707031 11.09375 18.835938 10.792969 18.835938 10.476562 C 18.78125 9.816406 18.203125 9.324219 17.542969 9.375 L 16.171875 9.375 C 15.898438 9.328125 15.695312 9.089844 15.695312 8.8125 C 15.695312 8.535156 15.898438 8.296875 16.171875 8.25 L 17.089844 8.25 C 17.667969 8.28125 18.167969 7.847656 18.214844 7.265625 C 18.214844 6.964844 18.089844 6.675781 17.871094 6.46875 C 17.648438 6.261719 17.351562 6.15625 17.050781 6.175781 L 14.828125 6.175781 L 14.828125 11.632812 Z M 19.308594 7.257812 C 19.308594 7.742188 19.117188 8.207031 18.773438 8.546875 L 18.738281 8.582031 L 18.789062 8.613281 C 19.476562 8.992188 19.914062 9.703125 19.941406 10.488281 C 19.953125 11.105469 19.710938 11.699219 19.273438 12.136719 C 18.835938 12.574219 18.242188 12.816406 17.625 12.804688 L 14.25 12.804688 C 13.917969 12.800781 13.652344 12.53125 13.652344 12.199219 L 13.652344 5.644531 C 13.648438 5.308594 13.917969 5.035156 14.25 5.03125 L 17.039062 5.03125 C 17.632812 5.019531 18.207031 5.25 18.632812 5.667969 C 19.054688 6.082031 19.292969 6.652344 19.289062 7.25 "/>
<path style=" stroke:none;fill-rule:nonzero;fill:rgb(0%,0%,0%);fill-opacity:1;" d="M 8.421875 10.558594 L 8.421875 10.605469 L 8.441406 10.558594 C 8.625 10.125 8.800781 9.652344 9 9.132812 C 9.199219 8.609375 9.410156 8.054688 9.613281 7.554688 C 9.820312 7.058594 10.019531 6.597656 10.207031 6.203125 C 10.335938 5.910156 10.488281 5.632812 10.671875 5.371094 C 10.855469 5.148438 11.132812 5.023438 11.421875 5.039062 L 11.5625 5.039062 C 11.722656 5.03125 11.878906 5.082031 12.003906 5.183594 C 12.097656 5.257812 12.160156 5.363281 12.179688 5.484375 L 13.054688 12.253906 C 13.0625 12.40625 13.007812 12.554688 12.902344 12.667969 C 12.785156 12.765625 12.632812 12.816406 12.480469 12.804688 C 12.320312 12.816406 12.164062 12.769531 12.039062 12.675781 C 11.925781 12.597656 11.851562 12.472656 11.835938 12.335938 C 11.804688 12.113281 11.777344 11.859375 11.753906 11.585938 C 11.726562 11.3125 11.578125 10.132812 11.539062 9.835938 C 11.5 9.539062 11.257812 7.617188 11.164062 6.917969 L 11.164062 6.859375 L 10.875 7.449219 C 10.777344 7.648438 10.675781 7.894531 10.5625 8.175781 C 10.453125 8.457031 10.339844 8.757812 10.226562 9.070312 C 10.113281 9.386719 9.5625 10.921875 9.5625 10.921875 C 9.515625 11.058594 9.417969 11.34375 9.328125 11.601562 C 9.242188 11.859375 9.164062 12.09375 9.140625 12.140625 C 9.007812 12.398438 8.738281 12.5625 8.441406 12.5625 C 8.148438 12.5625 7.878906 12.398438 7.742188 12.140625 C 7.722656 12.09375 7.640625 11.859375 7.554688 11.601562 C 7.46875 11.34375 7.375 11.058594 7.324219 10.921875 C 7.324219 10.921875 6.78125 9.375 6.660156 9.070312 C 6.539062 8.765625 6.433594 8.457031 6.324219 8.175781 C 6.210938 7.894531 6.105469 7.648438 6.015625 7.449219 L 5.734375 6.859375 L 5.734375 6.917969 C 5.648438 7.617188 5.402344 9.542969 5.359375 9.835938 C 5.3125 10.128906 5.1875 11.3125 5.148438 11.585938 C 5.109375 11.859375 5.09375 12.113281 5.0625 12.335938 C 5.046875 12.472656 4.972656 12.597656 4.859375 12.675781 C 4.730469 12.769531 4.574219 12.816406 4.417969 12.804688 C 4.261719 12.816406 4.113281 12.765625 3.992188 12.667969 C 3.890625 12.554688 3.839844 12.40625 3.84375 12.253906 L 4.71875 5.484375 C 4.738281 5.363281 4.804688 5.257812 4.898438 5.183594 C 5.019531 5.082031 5.175781 5.03125 5.335938 5.039062 L 5.476562 5.039062 C 5.761719 5.027344 6.039062 5.148438 6.226562 5.371094 C 6.40625 5.632812 6.5625 5.910156 6.6875 6.203125 C 6.875 6.597656 7.0625 7.050781 7.277344 7.554688 C 7.496094 8.0625 7.691406 8.578125 7.898438 9.132812 C 8.105469 9.683594 8.273438 10.128906 8.441406 10.558594 "/>
<path style=" stroke:none;fill-rule:nonzero;fill:rgb(83.92157%,1.960784%,6.27451%);fill-opacity:1;" d="M 6.707031 0.9375 L 17.332031 0.9375 C 18.332031 0.9375 18.832031 1.6875 18.949219 2.675781 L 18.992188 2.996094 C 19.027344 3.335938 18.785156 3.636719 18.445312 3.675781 C 18.285156 3.691406 18.121094 3.644531 17.996094 3.542969 C 17.871094 3.4375 17.789062 3.289062 17.773438 3.128906 L 17.730469 2.824219 C 17.683594 2.449219 17.527344 2.15625 17.144531 2.15625 L 6.894531 2.15625 C 6.519531 2.15625 6.355469 2.445312 6.3125 2.824219 L 6.269531 3.128906 C 6.253906 3.289062 6.175781 3.4375 6.050781 3.542969 C 5.921875 3.644531 5.761719 3.691406 5.597656 3.675781 C 5.261719 3.640625 5.015625 3.335938 5.050781 3 L 5.097656 2.679688 C 5.210938 1.691406 5.710938 0.941406 6.707031 0.941406 "/>
<path style=" stroke:none;fill-rule:nonzero;fill:rgb(0%,0%,0%);fill-opacity:1;" d="M 7.355469 19.675781 C 7.28125 19.957031 7.203125 20.261719 7.125 20.582031 C 7.046875 20.90625 6.96875 21.214844 6.890625 21.507812 C 6.808594 21.796875 6.738281 22.058594 6.667969 22.28125 C 6.625 22.4375 6.5625 22.589844 6.492188 22.734375 C 6.402344 22.886719 6.234375 22.972656 6.058594 22.953125 C 5.980469 22.953125 5.90625 22.9375 5.832031 22.917969 C 5.730469 22.886719 5.644531 22.816406 5.597656 22.722656 C 5.527344 22.566406 5.46875 22.40625 5.425781 22.242188 C 5.355469 22.003906 5.285156 21.730469 5.203125 21.421875 C 5.125 21.117188 5.050781 20.785156 4.972656 20.441406 C 4.894531 20.097656 4.824219 19.773438 4.761719 19.476562 C 4.703125 19.179688 4.644531 18.925781 4.605469 18.726562 C 4.5625 18.527344 4.542969 18.398438 4.539062 18.351562 L 4.539062 18.269531 C 4.53125 18.1875 4.570312 18.105469 4.640625 18.054688 C 4.703125 18 4.789062 17.964844 4.875 17.960938 C 4.953125 17.960938 5.03125 17.980469 5.101562 18.023438 C 5.164062 18.074219 5.207031 18.144531 5.222656 18.226562 C 5.222656 18.226562 5.222656 18.3125 5.265625 18.449219 C 5.304688 18.589844 5.332031 18.769531 5.375 18.984375 C 5.414062 19.195312 5.46875 19.445312 5.523438 19.710938 C 5.578125 19.976562 5.632812 20.25 5.691406 20.527344 C 5.753906 20.804688 5.8125 21.066406 5.871094 21.328125 C 5.933594 21.585938 5.984375 21.804688 6.039062 21.992188 C 6.089844 21.816406 6.144531 21.617188 6.210938 21.394531 L 6.398438 20.695312 C 6.457031 20.457031 6.515625 20.21875 6.574219 19.980469 C 6.628906 19.738281 6.683594 19.515625 6.734375 19.308594 L 6.867188 18.75 C 6.898438 18.589844 6.929688 18.472656 6.949219 18.375 C 6.992188 18.183594 7.164062 18.046875 7.359375 18.054688 C 7.460938 18.050781 7.5625 18.085938 7.640625 18.144531 C 7.710938 18.207031 7.757812 18.285156 7.777344 18.375 C 7.835938 18.625 7.898438 18.910156 7.964844 19.222656 C 8.03125 19.535156 8.105469 19.847656 8.175781 20.167969 C 8.246094 20.484375 8.324219 20.800781 8.398438 21.109375 C 8.476562 21.417969 8.554688 21.6875 8.625 21.921875 C 8.675781 21.738281 8.734375 21.515625 8.792969 21.257812 C 8.855469 21 8.914062 20.738281 8.972656 20.464844 C 9.035156 20.191406 9.097656 19.921875 9.152344 19.648438 C 9.210938 19.378906 9.261719 19.144531 9.3125 18.925781 C 9.359375 18.707031 9.394531 18.550781 9.421875 18.40625 L 9.464844 18.199219 C 9.480469 18.117188 9.523438 18.042969 9.589844 17.992188 C 9.65625 17.949219 9.734375 17.929688 9.8125 17.933594 C 9.902344 17.929688 9.992188 17.957031 10.0625 18.015625 C 10.128906 18.066406 10.164062 18.144531 10.164062 18.230469 L 10.164062 18.257812 C 10.164062 18.257812 10.164062 18.289062 10.164062 18.316406 C 10.164062 18.339844 10.132812 18.480469 10.085938 18.691406 C 10.042969 18.898438 9.992188 19.152344 9.929688 19.441406 C 9.867188 19.730469 9.796875 20.054688 9.71875 20.398438 C 9.640625 20.746094 9.566406 21.066406 9.492188 21.375 C 9.417969 21.683594 9.34375 21.960938 9.273438 22.191406 C 9.230469 22.355469 9.171875 22.515625 9.101562 22.667969 C 9.050781 22.765625 8.96875 22.839844 8.863281 22.875 C 8.789062 22.898438 8.714844 22.910156 8.636719 22.917969 L 8.542969 22.917969 C 8.496094 22.910156 8.453125 22.898438 8.410156 22.882812 C 8.359375 22.867188 8.3125 22.84375 8.273438 22.8125 C 8.222656 22.777344 8.1875 22.730469 8.164062 22.675781 C 8.09375 22.519531 8.039062 22.355469 7.996094 22.1875 C 7.929688 21.960938 7.859375 21.703125 7.785156 21.4375 C 7.710938 21.171875 7.636719 20.855469 7.5625 20.539062 C 7.492188 20.222656 7.425781 19.933594 7.359375 19.664062 "/>
<path style=" stroke:none;fill-rule:nonzero;fill:rgb(0%,0%,0%);fill-opacity:1;" d="M 12.066406 21.628906 C 11.988281 21.882812 11.921875 22.109375 11.859375 22.320312 C 11.800781 22.53125 11.746094 22.695312 11.691406 22.835938 C 11.644531 22.949219 11.546875 23.035156 11.425781 23.0625 C 11.308594 23.089844 11.183594 23.054688 11.09375 22.972656 C 11.035156 22.910156 11.007812 22.828125 11.011719 22.742188 C 11.007812 22.710938 11.007812 22.675781 11.011719 22.640625 C 11.011719 22.617188 11.054688 22.507812 11.109375 22.328125 C 11.160156 22.148438 11.230469 21.921875 11.320312 21.65625 C 11.410156 21.390625 11.503906 21.09375 11.609375 20.773438 C 11.714844 20.457031 11.828125 20.136719 11.945312 19.828125 C 12.058594 19.515625 12.167969 19.222656 12.277344 18.953125 C 12.363281 18.726562 12.460938 18.511719 12.578125 18.300781 C 12.609375 18.222656 12.667969 18.15625 12.746094 18.121094 C 12.835938 18.085938 12.933594 18.070312 13.027344 18.074219 C 13.128906 18.074219 13.226562 18.089844 13.320312 18.128906 C 13.398438 18.164062 13.457031 18.234375 13.484375 18.316406 C 13.558594 18.46875 13.644531 18.691406 13.746094 18.9375 C 13.847656 19.183594 13.953125 19.476562 14.0625 19.78125 C 14.171875 20.085938 14.285156 20.390625 14.390625 20.703125 C 14.5 21.019531 14.601562 21.3125 14.691406 21.582031 L 14.925781 22.273438 C 14.988281 22.464844 15.03125 22.589844 15.046875 22.648438 C 15.054688 22.683594 15.0625 22.714844 15.0625 22.75 C 15.066406 22.835938 15.03125 22.921875 14.96875 22.980469 C 14.894531 23.046875 14.796875 23.078125 14.695312 23.070312 C 14.625 23.074219 14.554688 23.054688 14.496094 23.011719 C 14.449219 22.964844 14.414062 22.90625 14.390625 22.84375 C 14.34375 22.710938 14.28125 22.539062 14.210938 22.328125 C 14.144531 22.117188 14.066406 21.890625 13.992188 21.636719 Z M 13.789062 20.957031 C 13.679688 20.625 13.578125 20.3125 13.476562 20.035156 C 13.375 19.757812 13.277344 19.484375 13.175781 19.234375 C 13.152344 19.175781 13.125 19.113281 13.09375 19.035156 L 13.042969 18.902344 C 13.023438 18.945312 13.007812 18.984375 12.992188 19.027344 C 12.964844 19.109375 12.9375 19.175781 12.910156 19.234375 C 12.808594 19.484375 12.707031 19.753906 12.609375 20.03125 C 12.515625 20.308594 12.414062 20.621094 12.308594 20.957031 Z M 13.789062 20.957031 "/>
<path style=" stroke:none;fill-rule:nonzero;fill:rgb(0%,0%,0%);fill-opacity:1;" d="M 17.398438 21.058594 C 17.375 21.035156 17.351562 21.003906 17.324219 20.972656 C 17.296875 20.9375 17.273438 20.902344 17.253906 20.863281 C 17.167969 20.746094 17.089844 20.621094 17.015625 20.488281 C 16.929688 20.34375 16.84375 20.1875 16.757812 20.023438 C 16.671875 19.863281 16.59375 19.691406 16.511719 19.523438 C 16.429688 19.355469 16.359375 19.199219 16.292969 19.058594 L 16.128906 18.683594 C 16.09375 18.613281 16.0625 18.539062 16.042969 18.460938 C 16.035156 18.441406 16.027344 18.421875 16.023438 18.402344 C 16.023438 18.257812 16.058594 18.171875 16.125 18.113281 C 16.199219 18.046875 16.296875 18.011719 16.394531 18.019531 C 16.476562 18.011719 16.558594 18.039062 16.617188 18.097656 C 16.65625 18.144531 16.691406 18.195312 16.714844 18.25 C 16.734375 18.308594 16.761719 18.367188 16.789062 18.421875 C 16.828125 18.511719 16.871094 18.617188 16.929688 18.746094 L 17.121094 19.171875 C 17.199219 19.328125 17.269531 19.476562 17.347656 19.628906 C 17.425781 19.777344 17.492188 19.921875 17.5625 20.058594 C 17.621094 20.175781 17.6875 20.289062 17.761719 20.394531 C 17.878906 20.214844 17.984375 20.027344 18.078125 19.828125 C 18.191406 19.601562 18.300781 19.378906 18.40625 19.160156 L 18.671875 18.570312 L 18.808594 18.25 C 18.832031 18.195312 18.867188 18.144531 18.902344 18.097656 C 18.960938 18.039062 19.042969 18.011719 19.125 18.019531 C 19.222656 18.011719 19.320312 18.046875 19.394531 18.113281 C 19.460938 18.171875 19.496094 18.257812 19.492188 18.34375 C 19.492188 18.371094 19.492188 18.390625 19.492188 18.402344 L 19.492188 18.460938 C 19.492188 18.503906 19.449219 18.574219 19.402344 18.6875 C 19.359375 18.796875 19.304688 18.917969 19.238281 19.0625 C 19.171875 19.203125 19.101562 19.359375 19.023438 19.527344 L 18.75 20.03125 C 18.664062 20.195312 18.578125 20.355469 18.492188 20.503906 C 18.40625 20.65625 18.328125 20.777344 18.253906 20.878906 C 18.210938 20.941406 18.160156 21 18.109375 21.054688 L 18.109375 22.65625 C 18.113281 22.75 18.078125 22.84375 18.011719 22.910156 C 17.941406 22.976562 17.851562 23.011719 17.757812 23.007812 C 17.664062 23.007812 17.574219 22.972656 17.503906 22.910156 C 17.441406 22.839844 17.40625 22.75 17.40625 22.65625 L 17.40625 21.058594 Z M 17.398438 21.058594 "/>
</g>
</svg>
