<?xml version="1.0" encoding="UTF-8"?>
<svg xmlns="http://www.w3.org/2000/svg" xmlns:xlink="http://www.w3.org/1999/xlink" width="px" height="24px" viewBox="0 0 24 24" version="1.1">
<g id="surface1">
<path style=" stroke:none;fill-rule:evenodd;fill:rgb(23.921569%,45.09804%,72.549021%);fill-opacity:1;" d="M 11.90625 18.75 L 19.578125 18.75 C 21.328125 18.75 21.34375 16.875 21.167969 15.972656 C 21.070312 15.351562 20.019531 15.359375 19.90625 15.972656 L 19.90625 16.6875 C 19.902344 17.015625 19.636719 17.28125 19.308594 17.285156 L 4.601562 17.285156 C 4.273438 17.28125 4.007812 17.015625 4.003906 16.6875 L 4.003906 15.984375 C 3.890625 15.371094 2.84375 15.363281 2.746094 15.984375 C 2.566406 16.898438 2.582031 18.75 4.335938 18.75 Z M 6.484375 0.925781 L 18.3125 0.925781 C 19.164062 0.957031 19.835938 1.671875 19.8125 2.527344 L 19.8125 3.277344 C 19.910156 3.582031 19.800781 3.917969 19.542969 4.109375 C 19.285156 4.296875 18.933594 4.304688 18.667969 4.121094 C 18.40625 3.9375 18.289062 3.609375 18.375 3.300781 L 18.375 2.882812 C 18.375 2.613281 18.15625 2.394531 17.886719 2.394531 L 6.023438 2.394531 C 5.753906 2.394531 5.535156 2.613281 5.535156 2.882812 L 5.535156 3.292969 C 5.535156 4.363281 4.144531 4.359375 4.144531 3.316406 L 4.144531 2.527344 C 4.125 1.675781 4.792969 0.960938 5.644531 0.925781 Z M 6.484375 0.925781 "/>
<path style=" stroke:none;fill-rule:evenodd;fill:rgb(11.372549%,11.372549%,10.588235%);fill-opacity:1;" d="M 19.523438 9.710938 C 20.351562 10.085938 20.890625 10.902344 20.910156 11.808594 C 20.859375 13.140625 19.746094 14.1875 18.414062 14.148438 L 14.558594 14.148438 C 14.210938 14.160156 13.917969 13.886719 13.90625 13.542969 L 13.90625 6.207031 C 13.90625 5.851562 14.191406 5.566406 14.546875 5.566406 L 17.757812 5.566406 C 18.738281 5.5625 19.625 6.148438 20.011719 7.054688 C 20.398438 7.957031 20.203125 9.003906 19.523438 9.710938 M 16.648438 9.117188 L 17.871094 9.117188 C 18.4375 9.027344 18.855469 8.539062 18.859375 7.964844 C 18.859375 7.324219 18.339844 6.800781 17.695312 6.800781 L 15.234375 6.800781 L 15.234375 12.875 L 18.375 12.875 C 19.019531 12.863281 19.539062 12.351562 19.558594 11.707031 C 19.578125 11.066406 19.089844 10.519531 18.449219 10.46875 L 16.648438 10.46875 C 16.277344 10.46875 15.976562 10.167969 15.976562 9.796875 C 15.976562 9.421875 16.277344 9.121094 16.648438 9.121094 "/>
<path style=" stroke:none;fill-rule:nonzero;fill:rgb(11.372549%,11.372549%,10.588235%);fill-opacity:1;" d="M 6.972656 21 C 6.972656 20.886719 7.0625 20.792969 7.175781 20.792969 C 7.292969 20.792969 7.382812 20.886719 7.382812 21 L 7.382812 22.125 C 7.382812 22.636719 6.96875 23.050781 6.457031 23.050781 C 5.945312 23.050781 5.53125 22.636719 5.53125 22.125 L 5.53125 21 C 5.523438 20.886719 5.609375 20.785156 5.722656 20.777344 C 5.835938 20.769531 5.933594 20.855469 5.945312 20.96875 L 5.945312 22.125 C 5.945312 22.410156 6.175781 22.640625 6.460938 22.640625 C 6.746094 22.640625 6.976562 22.410156 6.976562 22.125 Z M 6.972656 21 "/>
<path style=" stroke:none;fill-rule:nonzero;fill:rgb(11.372549%,11.372549%,10.588235%);fill-opacity:1;" d="M 8.929688 22.640625 C 9.042969 22.640625 9.136719 22.734375 9.136719 22.847656 C 9.136719 22.960938 9.042969 23.054688 8.929688 23.054688 L 8.351562 23.054688 C 7.925781 23.054688 7.578125 22.710938 7.578125 22.28125 L 7.578125 21 C 7.566406 20.921875 7.605469 20.839844 7.671875 20.796875 C 7.738281 20.753906 7.828125 20.753906 7.894531 20.796875 C 7.960938 20.839844 8 20.921875 7.988281 21 L 7.988281 22.265625 C 7.988281 22.472656 8.15625 22.640625 8.363281 22.640625 Z M 8.929688 22.640625 "/>
<path style=" stroke:none;fill-rule:nonzero;fill:rgb(11.372549%,11.372549%,10.588235%);fill-opacity:1;" d="M 13.289062 13.417969 C 13.351562 13.839844 13.058594 14.230469 12.636719 14.292969 C 12.214844 14.355469 11.820312 14.0625 11.761719 13.640625 C 11.761719 13.640625 11.761719 13.601562 11.761719 13.578125 L 11.117188 7.75 L 8.867188 13.453125 L 8.867188 13.5 C 8.820312 13.585938 8.753906 13.660156 8.675781 13.722656 C 8.636719 13.757812 8.59375 13.789062 8.546875 13.816406 L 8.472656 13.816406 C 8.398438 13.839844 8.324219 13.855469 8.246094 13.859375 L 8.191406 13.859375 C 8.101562 13.855469 8.015625 13.839844 7.933594 13.808594 L 7.871094 13.808594 C 7.828125 13.785156 7.785156 13.757812 7.746094 13.726562 L 7.722656 13.703125 L 7.65625 13.703125 L 7.636719 13.675781 C 7.601562 13.640625 7.574219 13.597656 7.550781 13.554688 L 7.550781 13.511719 L 5.191406 7.75 L 4.554688 13.578125 C 4.511719 14.003906 4.132812 14.3125 3.707031 14.265625 C 3.28125 14.222656 2.972656 13.84375 3.019531 13.417969 L 3.769531 6.546875 C 3.789062 6.386719 3.835938 6.226562 3.910156 6.082031 C 4.105469 5.71875 4.464844 5.472656 4.875 5.417969 L 4.917969 5.417969 C 4.980469 5.410156 5.046875 5.410156 5.109375 5.417969 C 5.191406 5.417969 5.269531 5.429688 5.34375 5.449219 C 5.753906 5.542969 6.089844 5.832031 6.242188 6.226562 L 8.160156 11.066406 L 10.070312 6.191406 C 10.25 5.722656 10.691406 5.40625 11.195312 5.382812 L 11.433594 5.382812 C 11.84375 5.4375 12.199219 5.683594 12.394531 6.046875 C 12.429688 6.121094 12.460938 6.195312 12.488281 6.273438 C 12.511719 6.351562 12.527344 6.433594 12.535156 6.515625 Z M 13.289062 13.417969 "/>
<path style=" stroke:none;fill-rule:nonzero;fill:rgb(11.372549%,11.372549%,10.588235%);fill-opacity:1;" d="M 5.453125 22.828125 C 5.472656 22.9375 5.394531 23.046875 5.285156 23.066406 C 5.171875 23.085938 5.066406 23.011719 5.042969 22.902344 L 4.875 21.375 L 4.246094 22.835938 C 4.222656 22.886719 4.183594 22.925781 4.132812 22.945312 C 4.082031 22.964844 4.023438 22.964844 3.976562 22.941406 C 3.925781 22.925781 3.886719 22.886719 3.867188 22.835938 L 3.226562 21.375 L 3.046875 22.875 C 3.042969 22.929688 3.019531 22.980469 2.976562 23.019531 C 2.9375 23.054688 2.882812 23.074219 2.828125 23.070312 C 2.773438 23.066406 2.71875 23.042969 2.679688 23.003906 C 2.644531 22.960938 2.621094 22.910156 2.625 22.851562 C 2.625 22.851562 2.625 22.851562 2.625 22.828125 L 2.832031 21.097656 C 2.847656 20.988281 2.914062 20.890625 3.015625 20.84375 L 3.117188 20.84375 C 3.222656 20.832031 3.328125 20.867188 3.40625 20.9375 L 3.445312 20.980469 L 3.46875 21.023438 L 3.46875 21.046875 L 4 22.285156 L 4.578125 21 C 4.625 20.898438 4.714844 20.828125 4.824219 20.804688 L 4.945312 20.804688 C 5.054688 20.816406 5.148438 20.875 5.203125 20.96875 C 5.214844 20.988281 5.226562 21.007812 5.230469 21.03125 L 5.230469 21.09375 Z M 5.453125 22.828125 "/>
<path style=" stroke:none;fill-rule:nonzero;fill:rgb(11.372549%,11.372549%,10.588235%);fill-opacity:1;" d="M 9.828125 22.847656 C 9.816406 22.953125 9.726562 23.03125 9.621094 23.03125 C 9.515625 23.03125 9.425781 22.953125 9.414062 22.847656 L 9.414062 21.21875 L 8.828125 21.21875 C 8.714844 21.21875 8.621094 21.125 8.621094 21.011719 C 8.621094 20.898438 8.714844 20.804688 8.828125 20.804688 L 10.414062 20.804688 C 10.527344 20.804688 10.621094 20.898438 10.621094 21.011719 C 10.621094 21.066406 10.601562 21.121094 10.5625 21.160156 C 10.523438 21.195312 10.46875 21.21875 10.414062 21.21875 L 9.828125 21.21875 Z M 9.828125 22.847656 "/>
<path style=" stroke:none;fill-rule:nonzero;fill:rgb(11.372549%,11.372549%,10.588235%);fill-opacity:1;" d="M 11.117188 22.847656 C 11.105469 22.953125 11.015625 23.03125 10.910156 23.03125 C 10.804688 23.03125 10.714844 22.953125 10.703125 22.847656 L 10.703125 21 C 10.714844 20.894531 10.804688 20.816406 10.910156 20.816406 C 11.015625 20.816406 11.105469 20.894531 11.117188 21 Z M 11.117188 22.847656 "/>
<path style=" stroke:none;fill-rule:nonzero;fill:rgb(11.372549%,11.372549%,10.588235%);fill-opacity:1;" d="M 15.351562 22.828125 C 15.359375 22.941406 15.273438 23.039062 15.160156 23.046875 C 15.054688 23.054688 14.960938 22.980469 14.945312 22.875 L 14.867188 22.292969 L 14.160156 22.292969 C 14.046875 22.300781 13.945312 22.214844 13.933594 22.101562 C 13.929688 21.988281 14.011719 21.890625 14.125 21.882812 L 14.824219 21.882812 L 14.804688 21.726562 C 14.796875 21.691406 14.789062 21.65625 14.777344 21.621094 C 14.769531 21.585938 14.753906 21.546875 14.738281 21.515625 C 14.664062 21.347656 14.5 21.242188 14.316406 21.234375 L 14.214844 21.234375 C 14.183594 21.242188 14.152344 21.253906 14.121094 21.269531 C 13.957031 21.367188 13.847656 21.539062 13.832031 21.730469 L 13.707031 22.875 C 13.703125 22.953125 13.65625 23.023438 13.589844 23.054688 C 13.519531 23.089844 13.433594 23.078125 13.375 23.03125 C 13.3125 22.984375 13.28125 22.90625 13.296875 22.828125 L 13.425781 21.683594 C 13.453125 21.351562 13.644531 21.058594 13.933594 20.898438 C 13.992188 20.867188 14.054688 20.847656 14.117188 20.832031 C 14.183594 20.816406 14.25 20.808594 14.316406 20.808594 C 14.65625 20.8125 14.960938 21.007812 15.105469 21.316406 C 15.132812 21.371094 15.15625 21.429688 15.175781 21.492188 C 15.191406 21.546875 15.203125 21.601562 15.210938 21.660156 L 15.210938 21.679688 Z M 15.351562 22.828125 "/>
<path style=" stroke:none;fill-rule:nonzero;fill:rgb(11.372549%,11.372549%,10.588235%);fill-opacity:1;" d="M 15.984375 22.847656 C 15.988281 22.902344 15.972656 22.957031 15.933594 23 C 15.898438 23.039062 15.847656 23.066406 15.796875 23.070312 C 15.742188 23.074219 15.6875 23.058594 15.644531 23.023438 C 15.601562 22.988281 15.574219 22.9375 15.570312 22.882812 L 15.570312 21.007812 C 15.605469 20.945312 15.664062 20.898438 15.730469 20.871094 L 15.835938 20.871094 C 15.921875 20.875 16 20.917969 16.054688 20.984375 L 17.148438 22.386719 L 17.148438 21 C 17.148438 20.886719 17.242188 20.792969 17.355469 20.792969 C 17.46875 20.792969 17.5625 20.886719 17.5625 21 L 17.5625 22.703125 C 17.5625 22.789062 17.523438 22.871094 17.457031 22.925781 L 17.410156 22.957031 L 17.386719 22.957031 C 17.3125 22.988281 17.234375 22.988281 17.164062 22.957031 L 17.136719 22.957031 L 17.097656 22.925781 L 17.070312 22.902344 L 15.984375 21.488281 Z M 15.984375 22.847656 "/>
<path style=" stroke:none;fill-rule:nonzero;fill:rgb(11.372549%,11.372549%,10.588235%);fill-opacity:1;" d="M 19.210938 22.640625 C 19.324219 22.640625 19.417969 22.734375 19.417969 22.847656 C 19.417969 22.960938 19.324219 23.054688 19.210938 23.054688 L 18.601562 23.054688 C 18.152344 23.054688 17.785156 22.691406 17.785156 22.242188 L 17.785156 21.621094 C 17.789062 21.175781 18.152344 20.8125 18.601562 20.808594 L 19.210938 20.808594 C 19.324219 20.808594 19.417969 20.902344 19.417969 21.015625 C 19.417969 21.128906 19.324219 21.222656 19.210938 21.222656 L 18.601562 21.222656 C 18.492188 21.222656 18.394531 21.265625 18.320312 21.339844 C 18.238281 21.414062 18.191406 21.519531 18.195312 21.625 L 18.195312 22.25 C 18.195312 22.46875 18.375 22.648438 18.597656 22.648438 L 19.207031 22.648438 Z M 19.210938 22.640625 "/>
<path style=" stroke:none;fill-rule:nonzero;fill:rgb(11.372549%,11.372549%,10.588235%);fill-opacity:1;" d="M 20.40625 21.21875 C 20.261719 21.21875 20.121094 21.273438 20.015625 21.371094 C 19.917969 21.472656 19.867188 21.609375 19.875 21.75 L 19.875 22.125 C 19.871094 22.265625 19.929688 22.402344 20.03125 22.5 C 20.132812 22.597656 20.265625 22.652344 20.40625 22.652344 C 20.546875 22.652344 20.683594 22.597656 20.78125 22.5 C 20.886719 22.402344 20.945312 22.265625 20.945312 22.125 L 20.945312 21.75 C 20.945312 21.609375 20.886719 21.472656 20.785156 21.375 C 20.679688 21.277344 20.539062 21.222656 20.390625 21.222656 M 20.390625 20.808594 C 20.644531 20.808594 20.886719 20.90625 21.070312 21.078125 C 21.261719 21.25 21.371094 21.492188 21.375 21.75 L 21.375 22.125 C 21.375 22.375 21.269531 22.617188 21.089844 22.789062 C 20.90625 22.960938 20.664062 23.058594 20.410156 23.058594 C 20.160156 23.058594 19.917969 22.960938 19.734375 22.789062 C 19.550781 22.617188 19.445312 22.375 19.445312 22.125 L 19.445312 21.75 C 19.445312 21.5 19.546875 21.261719 19.730469 21.089844 C 19.910156 20.914062 20.152344 20.820312 20.402344 20.820312 Z M 20.390625 20.808594 "/>
<path style=" stroke:none;fill-rule:nonzero;fill:rgb(11.372549%,11.372549%,10.588235%);fill-opacity:1;" d="M 11.703125 21.21875 L 11.703125 22.640625 L 12.5 22.640625 C 12.566406 22.644531 12.636719 22.617188 12.683594 22.566406 C 12.734375 22.519531 12.761719 22.453125 12.761719 22.382812 C 12.761719 22.316406 12.734375 22.253906 12.691406 22.207031 C 12.640625 22.15625 12.574219 22.128906 12.507812 22.128906 L 12.226562 22.128906 C 12.109375 22.128906 12.019531 22.035156 12.019531 21.921875 C 12.019531 21.808594 12.109375 21.714844 12.226562 21.714844 L 12.320312 21.714844 C 12.378906 21.710938 12.433594 21.6875 12.476562 21.644531 C 12.523438 21.597656 12.546875 21.535156 12.546875 21.46875 C 12.546875 21.335938 12.4375 21.230469 12.304688 21.230469 L 11.703125 21.230469 Z M 11.289062 21.917969 L 11.289062 21.019531 C 11.296875 20.910156 11.316406 20.886719 11.335938 20.863281 C 11.371094 20.828125 11.421875 20.808594 11.472656 20.808594 L 12.300781 20.808594 C 12.664062 20.808594 12.957031 21.101562 12.957031 21.464844 C 12.957031 21.589844 12.921875 21.710938 12.855469 21.816406 C 12.898438 21.84375 12.941406 21.875 12.980469 21.90625 C 13.097656 22.03125 13.164062 22.195312 13.164062 22.367188 C 13.164062 22.738281 12.863281 23.039062 12.492188 23.039062 L 11.492188 23.039062 C 11.378906 23.039062 11.289062 22.949219 11.289062 22.832031 Z M 11.289062 21.917969 "/>
</g>
</svg>
