<?xml version="1.0" encoding="UTF-8"?>
<svg xmlns="http://www.w3.org/2000/svg" xmlns:xlink="http://www.w3.org/1999/xlink" width="px" height="24px" viewBox="0 0 34 24" version="1.1">
<g id="surface1">
<path style=" stroke:none;fill-rule:nonzero;fill:rgb(20%,29.411766%,40.000001%);fill-opacity:1;" d="M 23.40625 10.160156 C 22.101562 10.148438 21.484375 10.90625 21.484375 10.90625 C 21.085938 11.332031 21.34375 11.90625 21.726562 11.945312 C 22.285156 12.007812 22.285156 11.535156 23.140625 11.328125 C 23.898438 11.140625 23.933594 11.847656 23.933594 11.847656 C 20.710938 11.765625 20.863281 14.480469 21.960938 15.054688 C 23.007812 15.605469 23.992188 14.90625 23.992188 14.90625 C 23.992188 14.90625 24.03125 15.28125 24.550781 15.28125 C 25.148438 15.28125 25.148438 14.6875 25.148438 14.6875 L 25.148438 12.046875 C 25.109375 10.105469 23.40625 10.160156 23.40625 10.160156 Z M 23.15625 13.980469 C 23.15625 13.980469 22.3125 14.152344 22.320312 13.546875 C 22.324219 12.941406 23.851562 12.980469 24.011719 13.027344 C 24.011719 13.027344 24.058594 13.714844 23.15625 13.980469 Z M 23.15625 13.980469 "/>
<path style=" stroke:none;fill-rule:nonzero;fill:rgb(20%,29.411766%,40.000001%);fill-opacity:1;" d="M 33.808594 14.214844 L 32.492188 12.226562 L 33.457031 11.3125 C 33.457031 11.3125 33.898438 10.898438 33.535156 10.488281 C 33.128906 10.035156 32.644531 10.480469 32.644531 10.480469 L 31.429688 11.613281 L 31.429688 9.347656 C 31.429688 9.019531 31.164062 8.761719 30.84375 8.761719 C 30.519531 8.761719 30.261719 9.027344 30.261719 9.347656 L 30.261719 14.6875 C 30.261719 15.011719 30.527344 15.273438 30.84375 15.273438 C 31.171875 15.273438 31.429688 15.007812 31.429688 14.6875 L 31.429688 13.261719 L 31.648438 13.039062 L 32.835938 14.90625 C 32.835938 14.90625 33.222656 15.554688 33.792969 15.140625 C 34.234375 14.832031 33.808594 14.214844 33.808594 14.214844 Z M 33.808594 14.214844 "/>
<path style=" stroke:none;fill-rule:nonzero;fill:rgb(20%,29.411766%,40.000001%);fill-opacity:1;" d="M 29.617188 12.039062 C 29.617188 10.113281 28.015625 9.839844 26.929688 10.453125 C 26.929688 10.453125 26.929688 10.453125 26.929688 10.460938 C 26.820312 10.148438 26.484375 9.980469 26.171875 10.085938 C 25.925781 10.171875 25.765625 10.398438 25.765625 10.660156 L 25.765625 14.679688 C 25.765625 15.011719 26.03125 15.28125 26.363281 15.28125 C 26.695312 15.28125 26.960938 15.011719 26.960938 14.679688 L 26.953125 11.964844 C 27.066406 11.839844 27.195312 11.726562 27.332031 11.625 C 27.898438 11.226562 28.429688 11.367188 28.429688 12.046875 L 28.441406 14.691406 C 28.453125 15.019531 28.726562 15.28125 29.050781 15.265625 C 29.363281 15.253906 29.609375 15.007812 29.625 14.691406 Z M 29.617188 12.039062 "/>
<path style=" stroke:none;fill-rule:nonzero;fill:rgb(16.470589%,72.941178%,91.764706%);fill-opacity:1;" d="M 12.378906 15.351562 C 12.457031 15.234375 12.511719 15.101562 12.539062 14.960938 L 11.183594 11.40625 C 11.183594 11.40625 10.9375 10.71875 11.480469 10.511719 C 12.054688 10.300781 12.265625 10.847656 12.304688 10.960938 L 13.160156 13.246094 L 13.945312 10.964844 C 13.945312 10.964844 14.171875 10.261719 14.796875 10.507812 C 15.3125 10.714844 15.046875 11.414062 15.046875 11.414062 C 15.046875 11.414062 14.246094 13.792969 13.574219 15.511719 C 13.175781 16.546875 12.828125 16.648438 12.4375 16.738281 C 11.914062 16.867188 10.925781 16.808594 10.925781 16.152344 C 10.925781 15.640625 11.449219 15.605469 11.6875 15.613281 C 11.699219 15.625 12.191406 15.667969 12.378906 15.351562 Z M 12.378906 15.351562 "/>
<path style=" stroke:none;fill-rule:nonzero;fill:rgb(16.470589%,72.941178%,91.764706%);fill-opacity:1;" d="M 9.230469 9.378906 L 7.996094 12.808594 L 6.648438 9.398438 C 6.648438 9.398438 6.449219 8.753906 5.882812 8.753906 C 5.234375 8.753906 5.253906 9.273438 5.238281 9.398438 C 5.226562 9.527344 5.238281 14.726562 5.238281 14.726562 C 5.238281 14.726562 5.234375 15.273438 5.832031 15.273438 C 6.441406 15.273438 6.414062 14.71875 6.414062 14.71875 C 6.414062 14.71875 6.414062 11.972656 6.414062 11.972656 L 7.410156 14.71875 C 7.410156 14.71875 7.558594 15.261719 8.015625 15.253906 C 8.472656 15.246094 8.605469 14.71875 8.605469 14.71875 L 9.4375 11.980469 L 9.4375 14.71875 C 9.4375 14.71875 9.4375 15.273438 10.039062 15.273438 C 10.625 15.273438 10.625 14.71875 10.625 14.71875 L 10.625 9.398438 C 10.625 9.398438 10.625 8.746094 9.992188 8.753906 C 9.46875 8.761719 9.269531 9.265625 9.230469 9.378906 C 9.230469 9.394531 9.230469 9.398438 9.230469 9.398438 "/>
<path style=" stroke:none;fill-rule:nonzero;fill:rgb(16.470589%,72.941178%,91.764706%);fill-opacity:1;" d="M 34 17.375 L 15.882812 17.375 L 15.890625 17.378906 C 12.929688 20.867188 7.710938 21.28125 4.238281 18.308594 C 0.761719 15.332031 0.34375 10.101562 3.308594 6.613281 C 6.269531 3.125 11.488281 2.707031 14.960938 5.6875 C 15.300781 5.980469 15.617188 6.292969 15.90625 6.640625 L 17.5625 6.640625 C 14.621094 2.214844 8.652344 1.019531 4.242188 3.980469 C -0.167969 6.941406 -1.347656 12.933594 1.601562 17.359375 C 4.546875 21.785156 10.511719 22.972656 14.921875 20.011719 C 15.546875 19.59375 16.117188 19.105469 16.628906 18.554688 L 33.210938 18.539062 Z M 34 17.375 "/>
<path style=" stroke:none;fill-rule:nonzero;fill:rgb(20%,29.411766%,40.000001%);fill-opacity:1;" d="M 20.101562 11.78125 C 20.132812 11.734375 20.53125 11.414062 20.5 10.546875 C 20.433594 8.800781 18.925781 8.820312 18.585938 8.808594 C 18.050781 8.792969 17.722656 8.800781 16.734375 8.808594 C 15.898438 8.8125 15.902344 9.578125 15.902344 9.578125 L 15.902344 15.273438 L 18.71875 15.273438 C 20.226562 15.273438 20.785156 14.441406 20.785156 13.273438 C 20.785156 12.105469 20.101562 11.78125 20.101562 11.78125 Z M 17.121094 10.011719 L 18.671875 10.011719 C 18.984375 10.019531 19.3125 10.1875 19.3125 10.652344 C 19.3125 11.140625 19.023438 11.292969 18.671875 11.292969 L 17.121094 11.292969 Z M 18.785156 14.113281 L 17.121094 14.113281 L 17.121094 12.511719 L 18.785156 12.511719 C 19.191406 12.535156 19.582031 12.738281 19.582031 13.3125 C 19.582031 13.898438 19.226562 14.113281 18.785156 14.113281 Z M 18.785156 14.113281 "/>
</g>
</svg>
