<?xml version="1.0" encoding="UTF-8"?>
<svg xmlns="http://www.w3.org/2000/svg" xmlns:xlink="http://www.w3.org/1999/xlink" width="px" height="24px" viewBox="0 0 32 24" version="1.1">
<g id="surface1">
<path style=" stroke:none;fill-rule:nonzero;fill:rgb(0%,18.82353%,52.941179%);fill-opacity:1;" d="M 22.855469 2.234375 C 21.785156 1 19.863281 0.5 17.40625 0.5 L 10.246094 0.5 C 9.75 0.507812 9.328125 0.867188 9.246094 1.355469 L 6.265625 20.210938 C 6.214844 20.554688 6.453125 20.878906 6.800781 20.929688 L 11.300781 20.929688 L 12.421875 13.929688 L 12.371094 14.144531 C 12.441406 13.648438 12.871094 13.285156 13.371094 13.289062 L 15.449219 13.289062 C 19.566406 13.289062 22.796875 11.605469 23.730469 6.789062 L 23.808594 6.363281 C 24.179688 4.925781 23.820312 3.398438 22.851562 2.273438 "/>
<path style=" stroke:none;fill-rule:nonzero;fill:rgb(0%,18.82353%,52.941179%);fill-opacity:1;" d="M 22.855469 2.234375 C 21.785156 1 19.863281 0.5 17.40625 0.5 L 10.246094 0.5 C 9.75 0.507812 9.328125 0.867188 9.246094 1.355469 L 6.265625 20.210938 C 6.214844 20.554688 6.453125 20.878906 6.800781 20.929688 L 11.300781 20.929688 L 12.421875 13.929688 L 12.371094 14.144531 C 12.441406 13.648438 12.871094 13.285156 13.371094 13.289062 L 15.449219 13.289062 C 19.566406 13.289062 22.796875 11.605469 23.730469 6.789062 L 23.808594 6.363281 C 24.179688 4.925781 23.820312 3.398438 22.851562 2.273438 "/>
<path style=" stroke:none;fill-rule:nonzero;fill:rgb(0%,18.431373%,52.549022%);fill-opacity:1;" d="M 13.585938 6.375 C 13.636719 6.085938 13.824219 5.839844 14.085938 5.710938 C 14.203125 5.652344 14.332031 5.625 14.460938 5.628906 L 20.074219 5.628906 C 20.691406 5.628906 21.308594 5.675781 21.921875 5.761719 L 22.421875 5.839844 C 22.578125 5.871094 22.714844 5.921875 22.875 5.949219 C 22.941406 5.980469 23.015625 6 23.089844 6.003906 C 23.355469 6.09375 23.613281 6.203125 23.863281 6.324219 C 24.222656 4.878906 23.863281 3.347656 22.898438 2.210938 C 21.785156 1 19.863281 0.5 17.40625 0.5 L 10.246094 0.5 C 9.75 0.507812 9.328125 0.867188 9.246094 1.355469 L 6.265625 20.210938 C 6.214844 20.554688 6.453125 20.878906 6.800781 20.929688 L 11.300781 20.929688 L 12.421875 13.929688 Z M 13.585938 6.375 "/>
<path style=" stroke:none;fill-rule:nonzero;fill:rgb(0%,61.176473%,87.058824%);fill-opacity:1;" d="M 23.816406 6.351562 C 23.785156 6.484375 23.761719 6.621094 23.734375 6.78125 C 22.800781 11.609375 19.566406 13.28125 15.453125 13.28125 L 13.371094 13.28125 C 12.875 13.289062 12.457031 13.648438 12.371094 14.136719 L 11.289062 20.964844 L 11 22.886719 C 10.949219 23.171875 11.136719 23.445312 11.425781 23.5 L 15.238281 23.5 C 15.675781 23.492188 16.042969 23.179688 16.125 22.75 L 16.125 22.566406 L 16.820312 18.128906 L 16.875 17.890625 C 16.953125 17.464844 17.320312 17.152344 17.753906 17.144531 L 18.316406 17.144531 C 21.921875 17.144531 24.726562 15.675781 25.554688 11.453125 C 25.898438 9.691406 25.714844 8.21875 24.804688 7.179688 C 24.539062 6.828125 24.199219 6.546875 23.804688 6.351562 "/>
<path style=" stroke:none;fill-rule:nonzero;fill:rgb(0.392157%,12.54902%,41.176471%);fill-opacity:1;" d="M 22.828125 5.949219 C 22.683594 5.898438 22.53125 5.863281 22.375 5.839844 L 21.875 5.761719 C 21.265625 5.675781 20.648438 5.628906 20.03125 5.628906 L 14.441406 5.628906 C 14.3125 5.625 14.183594 5.652344 14.070312 5.710938 C 13.808594 5.839844 13.625 6.085938 13.570312 6.375 L 12.421875 13.910156 L 12.371094 14.125 C 12.441406 13.628906 12.871094 13.265625 13.371094 13.269531 L 15.453125 13.269531 C 19.566406 13.269531 22.800781 11.585938 23.734375 6.769531 C 23.761719 6.636719 23.785156 6.476562 23.816406 6.34375 C 23.570312 6.203125 23.308594 6.085938 23.039062 6 C 22.964844 5.992188 22.894531 5.972656 22.824219 5.945312 "/>
</g>
</svg>
