<?xml version="1.0" encoding="UTF-8"?>
<svg xmlns="http://www.w3.org/2000/svg" xmlns:xlink="http://www.w3.org/1999/xlink" width="px" height="24px" viewBox="0 0 32 24" version="1.1">
<g id="surface1">
<path style=" stroke:none;fill-rule:nonzero;fill:rgb(98.823529%,82.352942%,1.960784%);fill-opacity:1;" d="M 0.824219 23.5 L 31.175781 23.5 L 31.175781 0.5 L 0.824219 0.5 Z M 0.824219 23.5 "/>
<path style=" stroke:none;fill-rule:nonzero;fill:rgb(100%,100%,100%);fill-opacity:1;" d="M 17.378906 18.238281 L 18.175781 14.5 L 3.5 14.5 L 2.714844 18.238281 L 17.378906 18.238281 "/>
<path style=" stroke:none;fill-rule:nonzero;fill:rgb(92.941177%,10.980392%,14.117648%);fill-opacity:1;" d="M 25.195312 9.34375 C 25.195312 9.34375 26.066406 5.34375 26.078125 5.34375 L 20.550781 5.34375 C 20.550781 5.34375 19.40625 10.636719 19.40625 10.660156 L 20.820312 10.660156 C 20.820312 10.660156 21.691406 6.683594 21.691406 6.683594 L 24.375 6.683594 C 24.375 6.683594 23.53125 10.683594 23.503906 10.683594 L 27.59375 10.683594 L 27.058594 13.144531 L 23 13.144531 C 23 13.171875 22.179688 16.898438 22.179688 16.898438 L 19.105469 16.898438 C 19.105469 16.898438 18.828125 18.238281 18.820312 18.25 L 23.320312 18.25 C 23.320312 18.25 24.148438 14.5 24.148438 14.5 L 28.214844 14.5 C 28.214844 14.5 29.285156 9.394531 29.285156 9.371094 L 25.195312 9.371094 "/>
<path style=" stroke:none;fill-rule:nonzero;fill:rgb(13.725491%,12.156863%,12.54902%);fill-opacity:1;" d="M 17.808594 11.679688 C 17.867188 11 17.625 10.332031 17.140625 9.847656 C 16.660156 9.367188 15.988281 9.121094 15.308594 9.179688 C 13.09375 9.179688 11.753906 10.996094 11.753906 12.996094 C 11.753906 14.710938 12.894531 15.714844 14.675781 15.714844 C 15.273438 15.71875 15.867188 15.632812 16.441406 15.453125 L 16.761719 13.953125 C 16.195312 14.167969 15.597656 14.28125 14.996094 14.289062 C 14.199219 14.289062 13.496094 14.015625 13.46875 13.054688 L 17.570312 13.054688 C 17.714844 12.609375 17.796875 12.148438 17.808594 11.679688 Z M 16.144531 11.90625 L 13.621094 11.90625 C 13.886719 11.070312 14.441406 10.523438 15.191406 10.523438 C 15.46875 10.511719 15.742188 10.617188 15.933594 10.820312 C 16.125 11.023438 16.21875 11.300781 16.191406 11.578125 C 16.183594 11.6875 16.167969 11.796875 16.144531 11.90625 Z M 16.144531 11.90625 "/>
<path style=" stroke:none;fill-rule:nonzero;fill:rgb(13.725491%,12.156863%,12.54902%);fill-opacity:1;" d="M 8.851562 7.195312 L 6.539062 7.195312 L 4.773438 15.546875 L 6.566406 15.546875 L 7.109375 13 L 7.894531 13 C 10.394531 13 11.785156 11.769531 11.785156 9.714844 C 11.785156 8.191406 10.699219 7.195312 8.851562 7.195312 Z M 8.164062 11.46875 L 7.421875 11.46875 L 8 8.726562 L 8.75 8.726562 C 9.570312 8.726562 9.96875 9.058594 9.96875 9.839844 C 9.96875 10.851562 9.335938 11.46875 8.164062 11.46875 Z M 8.164062 11.46875 "/>
</g>
</svg>
