<?xml version="1.0" encoding="UTF-8"?>
<svg xmlns="http://www.w3.org/2000/svg" xmlns:xlink="http://www.w3.org/1999/xlink" width="px" height="24px" viewBox="0 0 32 24" version="1.1">
<g id="surface1">
<path style=" stroke:none;fill-rule:nonzero;fill:rgb(70.19608%,69.411767%,68.627453%);fill-opacity:1;" d="M 15.355469 18.320312 C 13.941406 18.320312 12.523438 18.320312 11.113281 18.320312 C 10.734375 18.320312 10.675781 18.203125 10.746094 17.855469 C 10.925781 17.003906 11.054688 16.140625 11.246094 15.285156 C 11.457031 13.898438 12.488281 12.78125 13.851562 12.449219 C 15.21875 12.054688 16.589844 11.65625 17.976562 11.324219 C 18.976562 11.085938 19.558594 10.550781 19.613281 9.488281 C 19.613281 9.09375 19.699219 8.710938 19.730469 8.316406 C 19.753906 8.164062 19.714844 8.007812 19.621094 7.882812 C 19.523438 7.761719 19.382812 7.683594 19.230469 7.671875 C 17.960938 7.488281 16.671875 7.472656 15.398438 7.621094 C 14.890625 7.675781 14.476562 8.046875 14.363281 8.546875 C 14.234375 9.007812 14.136719 9.476562 14.070312 9.949219 C 14.070312 10.039062 14.03125 10.121094 13.964844 10.175781 C 13.894531 10.234375 13.804688 10.257812 13.71875 10.238281 C 13.269531 10.238281 12.820312 10.238281 12.363281 10.238281 C 12.199219 10.238281 12.046875 10.238281 12.085938 9.976562 C 12.179688 9.308594 12.320312 8.648438 12.5 8 C 12.863281 6.753906 13.976562 5.875 15.269531 5.804688 C 16.738281 5.585938 18.230469 5.578125 19.699219 5.78125 C 20.4375 5.863281 21.09375 6.292969 21.460938 6.941406 C 21.597656 7.179688 21.671875 7.453125 21.675781 7.730469 C 21.699219 8.707031 21.582031 9.679688 21.324219 10.621094 C 21.066406 11.710938 20.234375 12.574219 19.148438 12.863281 C 17.816406 13.269531 16.464844 13.625 15.121094 14.003906 C 14.996094 14.046875 14.867188 14.078125 14.738281 14.105469 C 13.558594 14.289062 13.09375 15.054688 13.015625 16.171875 C 12.988281 16.539062 13.214844 16.449219 13.398438 16.449219 L 19.730469 16.449219 C 20.40625 16.449219 20.40625 16.449219 20.273438 17.121094 C 20.21875 17.316406 20.1875 17.515625 20.179688 17.71875 C 20.179688 18.21875 19.96875 18.320312 19.511719 18.308594 C 18.125 18.304688 16.738281 18.320312 15.355469 18.320312 Z M 15.355469 18.320312 "/>
<path style=" stroke:none;fill-rule:nonzero;fill:rgb(81.960785%,19.215687%,21.960784%);fill-opacity:1;" d="M 9.5 5.953125 C 8.226562 5.699219 6.941406 5.84375 5.855469 5.804688 C 4.769531 5.765625 3.886719 5.804688 2.996094 5.804688 C 2.691406 5.804688 2.546875 5.851562 2.496094 6.210938 C 2.203125 8 1.890625 9.796875 1.589844 11.589844 C 1.234375 13.730469 0.878906 15.871094 0.5 18 C 0.449219 18.296875 0.554688 18.351562 0.820312 18.339844 C 1.226562 18.316406 1.632812 18.316406 2.039062 18.339844 C 2.351562 18.339844 2.441406 18.230469 2.484375 17.953125 C 2.683594 16.660156 2.914062 15.371094 3.105469 14.074219 C 3.15625 13.761719 3.265625 13.691406 3.605469 13.695312 C 5.046875 13.753906 6.488281 13.746094 7.929688 13.660156 C 9.628906 13.496094 10.5 12.71875 10.859375 11.046875 C 11.042969 10.160156 11.183594 9.269531 11.273438 8.371094 C 11.425781 7 10.871094 6.234375 9.5 5.953125 Z M 9.265625 8.625 C 9.160156 9.433594 9 10.234375 8.839844 11.035156 C 8.742188 11.429688 8.40625 11.71875 8 11.753906 C 7.261719 11.851562 6.519531 11.882812 5.773438 11.855469 C 5.050781 11.855469 4.449219 11.855469 3.855469 11.855469 C 3.589844 11.855469 3.53125 11.765625 3.574219 11.519531 C 3.78125 10.34375 3.96875 9.164062 4.164062 7.988281 C 4.164062 7.839844 4.164062 7.699219 4.410156 7.703125 C 5.804688 7.738281 7.203125 7.625 8.601562 7.785156 C 9.175781 7.859375 9.335938 8.039062 9.253906 8.625 Z M 9.265625 8.625 "/>
<path style=" stroke:none;fill-rule:nonzero;fill:rgb(70.19608%,69.411767%,68.627453%);fill-opacity:1;" d="M 30.738281 13.675781 C 30.574219 13.660156 30.40625 13.660156 30.238281 13.675781 C 29.78125 13.746094 29.769531 13.539062 29.835938 13.175781 C 30.246094 10.84375 30.628906 8.503906 31.023438 6.175781 C 31.070312 5.925781 31.023438 5.800781 30.714844 5.808594 C 30.136719 5.808594 29.550781 5.808594 28.964844 5.808594 C 28.765625 5.808594 28.582031 5.898438 28.464844 6.058594 C 26.304688 8.386719 24.15625 10.71875 21.964844 13.03125 C 21.582031 13.386719 21.34375 13.875 21.296875 14.394531 C 21.277344 14.683594 21.230469 14.972656 21.15625 15.253906 C 21.078125 15.539062 21.15625 15.609375 21.449219 15.609375 C 22.386719 15.609375 23.316406 15.609375 24.25 15.609375 C 25.183594 15.609375 26.089844 15.609375 27.003906 15.609375 C 27.363281 15.609375 27.460938 15.695312 27.386719 16.058594 C 27.25 16.710938 27.175781 17.375 27.050781 18.058594 C 27.011719 18.28125 27.050781 18.386719 27.28125 18.375 C 27.75 18.375 28.214844 18.375 28.679688 18.375 C 28.910156 18.375 28.980469 18.285156 29.003906 18.070312 C 29.058594 17.65625 29.140625 17.238281 29.226562 16.824219 C 29.308594 16.410156 29.195312 15.933594 29.484375 15.714844 C 29.773438 15.496094 30.273438 15.628906 30.679688 15.648438 C 31.085938 15.671875 31.308594 15.566406 31.300781 15.113281 C 31.3125 14.90625 31.351562 14.699219 31.410156 14.5 C 31.578125 13.675781 31.578125 13.675781 30.738281 13.675781 Z M 28.566406 8.863281 L 27.90625 12.949219 C 27.90625 13.089844 27.863281 13.234375 27.839844 13.378906 C 27.839844 13.46875 27.804688 13.550781 27.738281 13.609375 C 27.671875 13.664062 27.585938 13.691406 27.5 13.679688 C 26.273438 13.679688 25.050781 13.679688 23.703125 13.679688 L 28.5 8.601562 C 28.691406 8.625 28.585938 8.761719 28.566406 8.863281 Z M 28.566406 8.863281 "/>
</g>
</svg>
