<?xml version="1.0" encoding="UTF-8"?>
<svg xmlns="http://www.w3.org/2000/svg" xmlns:xlink="http://www.w3.org/1999/xlink" width="px" height="24px" viewBox="0 0 88 24" version="1.1">
<g id="surface1">
<path style=" stroke:none;fill-rule:nonzero;fill:rgb(32.549021%,32.549021%,32.549021%);fill-opacity:1;" d="M 19.542969 12.683594 C 18.28125 12.683594 17.019531 12.683594 15.753906 12.683594 C 15.644531 12.480469 15.691406 12.28125 15.691406 12.09375 C 15.6875 10.105469 15.6875 8.113281 15.6875 6.125 C 15.6875 5.714844 15.691406 5.304688 15.539062 4.910156 C 15.199219 4.035156 14.6875 3.738281 13.75 3.683594 C 12.90625 3.632812 12.226562 4.121094 11.949219 4.890625 C 11.816406 5.261719 11.789062 5.648438 11.789062 6.039062 C 11.792969 8.027344 11.792969 10.015625 11.792969 12.007812 C 11.792969 12.21875 11.792969 12.433594 11.792969 12.675781 C 10.480469 12.675781 9.21875 12.675781 7.941406 12.675781 C 7.753906 12.484375 7.839844 12.234375 7.835938 12.007812 C 7.832031 10.0625 7.835938 8.117188 7.832031 6.171875 C 7.832031 5.761719 7.835938 5.355469 7.695312 4.957031 C 7.398438 4.101562 6.703125 3.617188 5.820312 3.675781 C 4.871094 3.734375 4.226562 4.269531 4.035156 5.164062 C 3.953125 5.546875 3.917969 5.933594 3.917969 6.324219 C 3.925781 8.222656 3.921875 10.128906 3.917969 12.03125 C 3.917969 12.242188 3.964844 12.457031 3.863281 12.683594 C 2.613281 12.683594 1.367188 12.683594 0.105469 12.683594 C -0.0429688 12.5625 0.0273438 12.375 0.0273438 12.214844 C 0.0234375 9.964844 0.0273438 7.71875 0.0234375 5.46875 C 0.0234375 4.683594 0.164062 3.917969 0.453125 3.191406 C 1.128906 1.507812 2.445312 0.578125 4.15625 0.183594 C 5.5625 -0.140625 6.976562 -0.0820312 8.355469 0.390625 C 8.867188 0.566406 9.332031 0.835938 9.804688 1.132812 C 10.109375 0.964844 10.398438 0.773438 10.710938 0.636719 C 12.753906 -0.246094 14.820312 -0.277344 16.832031 0.671875 C 18.535156 1.472656 19.378906 2.933594 19.558594 4.78125 C 19.628906 5.511719 19.628906 6.25 19.632812 6.980469 C 19.644531 8.648438 19.640625 10.3125 19.632812 11.976562 C 19.632812 12.207031 19.695312 12.453125 19.542969 12.683594 Z M 19.542969 12.683594 "/>
<path style=" stroke:none;fill-rule:nonzero;fill:rgb(32.549021%,32.549021%,32.549021%);fill-opacity:1;" d="M 41.660156 13.011719 C 38.929688 13.066406 36.441406 11.503906 35.5 8.933594 C 34.066406 5.019531 36.226562 0.738281 40.539062 0.101562 C 43.054688 -0.269531 45.257812 0.351562 46.925781 2.347656 C 49.753906 5.722656 48.480469 11.734375 43.328125 12.859375 C 42.777344 12.980469 42.222656 12.996094 41.660156 13.011719 Z M 44.375 6.484375 C 44.375 6.398438 44.382812 6.3125 44.375 6.226562 C 44.261719 4.800781 43.238281 3.726562 41.84375 3.675781 C 40.5625 3.632812 39.5 4.355469 39.144531 5.800781 C 39.050781 6.183594 39.050781 6.582031 39.105469 6.964844 C 39.269531 8.042969 39.804688 8.855469 40.882812 9.210938 C 42.695312 9.808594 44.394531 8.480469 44.375 6.484375 Z M 44.375 6.484375 "/>
<path style=" stroke:none;fill-rule:nonzero;fill:rgb(32.549021%,32.549021%,32.549021%);fill-opacity:1;" d="M 27.304688 13.015625 C 25.085938 13.003906 23.21875 12.207031 21.898438 10.375 C 19.347656 6.84375 20.8125 0.953125 26.128906 0.105469 C 28.460938 -0.265625 30.542969 0.265625 32.222656 1.984375 C 33.671875 3.46875 34.175781 5.292969 33.9375 7.335938 C 33.679688 9.53125 32.589844 11.164062 30.660156 12.230469 C 29.621094 12.800781 28.496094 13.042969 27.304688 13.015625 Z M 24.710938 6.589844 C 24.714844 6.660156 24.714844 6.789062 24.726562 6.917969 C 24.859375 8.015625 25.402344 8.816406 26.457031 9.199219 C 27.496094 9.574219 28.628906 9.269531 29.328125 8.4375 C 30.019531 7.613281 30.15625 6.644531 29.878906 5.636719 C 29.316406 3.578125 27.003906 3.1875 25.710938 4.246094 C 24.988281 4.835938 24.695312 5.617188 24.710938 6.589844 Z M 24.710938 6.589844 "/>
<path style=" stroke:none;fill-rule:nonzero;fill:rgb(32.549021%,32.549021%,32.549021%);fill-opacity:1;" d="M 74.621094 7.765625 C 71.847656 7.765625 69.121094 7.765625 66.382812 7.765625 C 66.601562 9.136719 67.722656 9.679688 68.8125 9.710938 C 69.605469 9.734375 70.339844 9.503906 71.007812 9.074219 C 71.203125 8.945312 71.394531 8.804688 71.628906 8.644531 C 72.445312 9.410156 73.257812 10.175781 74.082031 10.949219 C 73.929688 11.273438 73.65625 11.453125 73.402344 11.636719 C 72.273438 12.445312 71.007812 12.867188 69.628906 12.988281 C 68.5625 13.082031 67.515625 13.035156 66.503906 12.707031 C 64.398438 12.019531 63.050781 10.597656 62.496094 8.433594 C 62.101562 6.882812 62.179688 5.351562 62.761719 3.859375 C 63.695312 1.46875 65.507812 0.238281 68.015625 0.0078125 C 69.128906 -0.09375 70.210938 0.0703125 71.226562 0.539062 C 73.066406 1.390625 74.089844 2.886719 74.523438 4.828125 C 74.609375 5.203125 74.675781 5.585938 74.675781 5.980469 C 74.667969 6.546875 74.699219 7.105469 74.621094 7.765625 Z M 66.40625 5.1875 C 67.84375 5.1875 69.273438 5.1875 70.710938 5.1875 C 70.488281 3.84375 69.390625 3.316406 68.433594 3.351562 C 67.398438 3.390625 66.464844 4.222656 66.40625 5.1875 Z M 66.40625 5.1875 "/>
<path style=" stroke:none;fill-rule:nonzero;fill:rgb(32.549021%,32.549021%,32.549021%);fill-opacity:1;" d="M 61.207031 12.683594 C 59.859375 12.683594 58.617188 12.683594 57.371094 12.683594 C 57.25 12.484375 57.300781 12.289062 57.300781 12.101562 C 57.296875 10.15625 57.292969 8.210938 57.304688 6.265625 C 57.304688 5.894531 57.277344 5.527344 57.191406 5.171875 C 56.921875 4.070312 56.242188 3.664062 55.285156 3.683594 C 54.226562 3.703125 53.652344 4.234375 53.449219 5.25 C 53.367188 5.648438 53.339844 6.0625 53.34375 6.472656 C 53.351562 8.3125 53.347656 10.148438 53.347656 11.984375 C 53.347656 12.199219 53.347656 12.414062 53.347656 12.667969 C 52.050781 12.667969 50.789062 12.667969 49.519531 12.667969 C 49.394531 12.550781 49.445312 12.390625 49.445312 12.246094 C 49.441406 10 49.441406 7.75 49.445312 5.503906 C 49.449219 4.628906 49.605469 3.785156 49.964844 2.988281 C 50.589844 1.601562 51.679688 0.734375 53.109375 0.308594 C 54.632812 -0.140625 56.164062 -0.144531 57.679688 0.363281 C 59.640625 1.019531 60.761719 2.386719 61.101562 4.429688 C 61.179688 4.902344 61.207031 5.375 61.207031 5.847656 C 61.207031 7.921875 61.207031 10 61.207031 12.074219 C 61.207031 12.269531 61.207031 12.457031 61.207031 12.683594 Z M 61.207031 12.683594 "/>
<path style=" stroke:none;fill-rule:nonzero;fill:rgb(99.215686%,76.47059%,13.333334%);fill-opacity:1;" d="M 78.398438 19.167969 C 76.921875 19.167969 75.503906 19.167969 74.050781 19.167969 C 74.085938 18.816406 74.289062 18.5625 74.433594 18.292969 C 75.832031 15.671875 77.226562 13.050781 78.660156 10.453125 C 78.945312 9.9375 78.9375 9.539062 78.65625 9.03125 C 77.179688 6.332031 75.734375 3.617188 74.28125 0.90625 C 74.199219 0.753906 74.128906 0.597656 74.03125 0.402344 C 75.503906 0.402344 76.933594 0.402344 78.355469 0.402344 C 78.523438 0.503906 78.566406 0.679688 78.640625 0.832031 C 80.046875 3.617188 81.433594 6.410156 82.851562 9.1875 C 83.0625 9.597656 83.050781 9.910156 82.84375 10.316406 C 81.449219 13.058594 80.082031 15.8125 78.707031 18.566406 C 78.609375 18.753906 78.511719 18.945312 78.398438 19.167969 Z M 78.398438 19.167969 "/>
<path style=" stroke:none;fill-rule:nonzero;fill:rgb(32.549021%,32.549021%,32.549021%);fill-opacity:1;" d="M 46.269531 22.445312 C 45.945312 22.851562 45.8125 23.269531 45.609375 23.644531 C 45.511719 23.820312 45.429688 24 45.195312 24 C 44.960938 24 44.871094 23.832031 44.773438 23.65625 C 44.558594 23.261719 44.417969 22.824219 44.105469 22.445312 C 43.609375 22.445312 43.117188 22.453125 42.621094 22.445312 C 42.109375 22.4375 41.992188 22.34375 41.988281 21.855469 C 41.980469 20.082031 41.980469 18.308594 41.988281 16.535156 C 41.992188 16.078125 42.113281 15.96875 42.578125 15.964844 C 44.324219 15.957031 46.066406 15.957031 47.816406 15.964844 C 48.28125 15.96875 48.386719 16.070312 48.386719 16.539062 C 48.394531 18.3125 48.394531 20.085938 48.386719 21.859375 C 48.382812 22.355469 48.289062 22.4375 47.761719 22.445312 C 47.269531 22.453125 46.773438 22.445312 46.269531 22.445312 Z M 44.394531 19.882812 C 44.957031 19.3125 45.328125 19.234375 45.714844 19.570312 C 46 19.820312 46.066406 20.320312 45.847656 20.632812 C 45.558594 21.058594 45.097656 21.046875 44.386719 20.585938 C 44.253906 20.625 44.105469 20.65625 43.96875 20.714844 C 43.839844 20.769531 43.652344 20.726562 43.601562 20.921875 C 43.808594 21.3125 43.914062 21.4375 44.160156 21.605469 C 45.035156 22.191406 46.242188 21.902344 46.71875 20.992188 C 47.1875 20.097656 46.8125 19.011719 45.886719 18.605469 C 45.589844 18.476562 45.273438 18.421875 44.945312 18.445312 C 44.890625 18.449219 44.828125 18.414062 44.777344 18.398438 C 44.746094 18.234375 44.71875 18.085938 44.917969 17.921875 C 45.414062 17.921875 45.960938 17.921875 46.542969 17.921875 C 46.558594 17.582031 46.621094 17.289062 46.507812 17.027344 C 45.625 17.027344 44.777344 17.027344 43.917969 17.027344 C 43.8125 17.902344 43.710938 18.726562 43.613281 19.546875 C 43.902344 19.667969 44.136719 19.769531 44.394531 19.882812 Z M 44.394531 19.882812 "/>
<path style=" stroke:none;fill-rule:nonzero;fill:rgb(32.549021%,32.549021%,32.549021%);fill-opacity:1;" d="M 83.78125 0.378906 C 85.167969 0.378906 86.519531 0.378906 87.976562 0.378906 C 86.566406 3.101562 85.179688 5.765625 83.738281 8.550781 C 83.035156 7.152344 82.382812 5.855469 81.726562 4.546875 C 82.417969 3.144531 83.101562 1.761719 83.78125 0.378906 Z M 83.78125 0.378906 "/>
<path style=" stroke:none;fill-rule:nonzero;fill:rgb(32.549021%,32.549021%,32.549021%);fill-opacity:1;" d="M 0.0117188 21.4375 C 0.292969 21.101562 0.550781 20.792969 0.824219 20.472656 C 1.125 20.648438 1.390625 20.820312 1.671875 20.964844 C 2.128906 21.199219 2.617188 21.238281 3.117188 21.152344 C 3.394531 21.105469 3.59375 20.9375 3.628906 20.644531 C 3.660156 20.363281 3.484375 20.199219 3.253906 20.101562 C 3.019531 20.003906 2.769531 19.929688 2.527344 19.847656 C 2.140625 19.71875 1.746094 19.613281 1.367188 19.464844 C 0.714844 19.207031 0.3125 18.75 0.28125 18.007812 C 0.242188 17.199219 0.539062 16.585938 1.261719 16.191406 C 1.945312 15.820312 2.675781 15.847656 3.398438 16.003906 C 3.902344 16.117188 4.375 16.332031 4.800781 16.699219 C 4.65625 17.085938 4.359375 17.371094 4.128906 17.757812 C 3.691406 17.53125 3.277344 17.273438 2.792969 17.179688 C 2.503906 17.121094 2.234375 17.132812 1.976562 17.261719 C 1.605469 17.441406 1.5625 17.925781 1.910156 18.148438 C 2.105469 18.273438 2.339844 18.34375 2.5625 18.417969 C 3.011719 18.566406 3.476562 18.667969 3.910156 18.851562 C 4.703125 19.183594 5.082031 19.789062 5.039062 20.5625 C 4.992188 21.390625 4.515625 22.066406 3.71875 22.296875 C 2.355469 22.695312 1.140625 22.355469 0.0117188 21.4375 Z M 0.0117188 21.4375 "/>
<path style=" stroke:none;fill-rule:nonzero;fill:rgb(32.549021%,32.549021%,32.549021%);fill-opacity:1;" d="M 22.761719 20.46875 C 22.761719 21.136719 22.761719 21.710938 22.761719 22.300781 C 22.285156 22.433594 21.84375 22.375 21.382812 22.34375 C 21.382812 20.230469 21.382812 18.140625 21.382812 15.972656 C 22.207031 15.972656 23.035156 15.96875 23.867188 15.980469 C 24.054688 15.980469 24.25 16.027344 24.433594 16.078125 C 26.019531 16.492188 26.65625 18.496094 25.601562 19.753906 C 25.167969 20.269531 24.570312 20.429688 23.933594 20.464844 C 23.570312 20.488281 23.207031 20.46875 22.761719 20.46875 Z M 22.808594 17.261719 C 22.808594 17.949219 22.808594 18.558594 22.808594 19.195312 C 23.148438 19.195312 23.445312 19.21875 23.742188 19.1875 C 24.320312 19.128906 24.648438 18.761719 24.648438 18.214844 C 24.644531 17.652344 24.328125 17.316406 23.730469 17.265625 C 23.433594 17.242188 23.136719 17.261719 22.808594 17.261719 Z M 22.808594 17.261719 "/>
<path style=" stroke:none;fill-rule:nonzero;fill:rgb(32.549021%,32.549021%,32.549021%);fill-opacity:1;" d="M 17.195312 22.308594 C 16.742188 22.417969 16.339844 22.375 16.003906 22.359375 C 15.78125 22.273438 15.875 22.097656 15.785156 22 C 15.753906 22.003906 15.707031 21.992188 15.683594 22.011719 C 15.097656 22.488281 14.441406 22.570312 13.742188 22.347656 C 13.074219 22.136719 12.71875 21.621094 12.71875 20.945312 C 12.71875 20.25 13.113281 19.699219 13.789062 19.503906 C 14.222656 19.378906 14.671875 19.316406 15.125 19.414062 C 15.332031 19.457031 15.539062 19.480469 15.75 19.511719 C 15.78125 18.960938 15.617188 18.742188 15.121094 18.667969 C 14.582031 18.589844 14.058594 18.6875 13.527344 18.867188 C 13.339844 18.535156 13.242188 18.195312 13.171875 17.820312 C 14.015625 17.453125 14.867188 17.304688 15.757812 17.511719 C 16.503906 17.679688 16.957031 18.136719 17.117188 18.890625 C 17.167969 19.144531 17.195312 19.398438 17.195312 19.660156 C 17.195312 20.539062 17.195312 21.417969 17.195312 22.308594 Z M 15.875 20.4375 C 15.410156 20.175781 14.953125 20.175781 14.492188 20.316406 C 14.214844 20.398438 14.078125 20.605469 14.085938 20.902344 C 14.09375 21.207031 14.246094 21.367188 14.535156 21.449219 C 15.230469 21.652344 15.761719 21.285156 15.875 20.4375 Z M 15.875 20.4375 "/>
<path style=" stroke:none;fill-rule:nonzero;fill:rgb(32.549021%,32.549021%,32.549021%);fill-opacity:1;" d="M 29.347656 19.539062 C 29.328125 18.949219 29.179688 18.742188 28.703125 18.671875 C 28.296875 18.613281 27.890625 18.632812 27.488281 18.753906 C 27.347656 18.796875 27.207031 18.847656 27.015625 18.792969 C 26.921875 18.503906 26.820312 18.199219 26.699219 17.835938 C 27.683594 17.398438 28.664062 17.246094 29.683594 17.632812 C 30.222656 17.839844 30.570312 18.273438 30.660156 18.835938 C 30.84375 19.988281 30.71875 21.152344 30.761719 22.34375 C 30.285156 22.34375 29.886719 22.34375 29.472656 22.34375 C 29.34375 22.269531 29.433594 22.109375 29.367188 22.003906 C 29.300781 21.960938 29.253906 22.007812 29.207031 22.042969 C 28.632812 22.480469 27.996094 22.574219 27.320312 22.359375 C 26.613281 22.132812 26.269531 21.636719 26.285156 20.902344 C 26.300781 20.207031 26.703125 19.679688 27.394531 19.492188 C 27.921875 19.347656 28.453125 19.335938 28.988281 19.46875 C 29.105469 19.492188 29.222656 19.515625 29.347656 19.539062 Z M 29.390625 20.417969 C 28.949219 20.183594 28.523438 20.1875 28.101562 20.292969 C 27.804688 20.363281 27.625 20.585938 27.613281 20.902344 C 27.601562 21.167969 27.8125 21.382812 28.140625 21.472656 C 28.835938 21.660156 29.378906 21.21875 29.390625 20.417969 Z M 29.390625 20.417969 "/>
<path style=" stroke:none;fill-rule:nonzero;fill:rgb(32.549021%,32.549021%,32.549021%);fill-opacity:1;" d="M 30.980469 17.515625 C 31.507812 17.515625 31.933594 17.515625 32.433594 17.515625 C 32.773438 18.511719 33.121094 19.53125 33.464844 20.550781 C 33.511719 20.550781 33.550781 20.550781 33.59375 20.550781 C 33.921875 19.546875 34.246094 18.535156 34.574219 17.527344 C 35.054688 17.527344 35.496094 17.527344 36 17.527344 C 35.644531 18.492188 35.296875 19.414062 34.957031 20.335938 C 34.679688 21.082031 34.417969 21.835938 34.128906 22.578125 C 33.601562 23.914062 32.699219 24.21875 31.375 23.503906 C 31.464844 23.179688 31.632812 22.886719 31.785156 22.582031 C 32.140625 22.550781 32.566406 22.957031 32.839844 22.351562 C 32.550781 21.589844 32.246094 20.785156 31.941406 19.984375 C 31.632812 19.179688 31.316406 18.378906 30.980469 17.515625 Z M 30.980469 17.515625 "/>
<path style=" stroke:none;fill-rule:nonzero;fill:rgb(32.549021%,32.549021%,32.549021%);fill-opacity:1;" d="M 11.96875 17.945312 C 11.847656 18.328125 11.664062 18.59375 11.46875 18.90625 C 11.207031 18.796875 10.945312 18.660156 10.664062 18.578125 C 10.378906 18.496094 10.078125 18.433594 9.78125 18.601562 C 9.621094 18.828125 9.6875 19.003906 9.921875 19.121094 C 10.113281 19.214844 10.316406 19.277344 10.515625 19.359375 C 10.816406 19.480469 11.121094 19.585938 11.402344 19.738281 C 11.882812 19.992188 12.132812 20.398438 12.105469 20.949219 C 12.070312 21.53125 11.835938 21.992188 11.285156 22.242188 C 10.691406 22.515625 10.078125 22.507812 9.457031 22.34375 C 8.996094 22.222656 8.570312 22.039062 8.183594 21.699219 C 8.375 21.402344 8.5625 21.117188 8.746094 20.835938 C 9.445312 21.097656 10.082031 21.746094 10.867188 21.128906 C 10.84375 20.773438 10.613281 20.695312 10.386719 20.617188 C 10.042969 20.496094 9.691406 20.398438 9.355469 20.257812 C 8.667969 19.964844 8.398438 19.539062 8.429688 18.859375 C 8.457031 18.222656 8.816406 17.738281 9.46875 17.519531 C 10.351562 17.226562 11.148438 17.496094 11.96875 17.945312 Z M 11.96875 17.945312 "/>
<path style=" stroke:none;fill-rule:nonzero;fill:rgb(32.549021%,32.549021%,32.549021%);fill-opacity:1;" d="M 18.125 15.980469 C 18.617188 15.980469 19.023438 15.980469 19.414062 15.980469 C 19.570312 16.136719 19.511719 16.320312 19.511719 16.484375 C 19.519531 17.800781 19.511719 19.121094 19.519531 20.4375 C 19.519531 20.691406 19.464844 20.957031 19.609375 21.167969 C 19.796875 21.351562 19.984375 21.21875 20.171875 21.175781 C 20.285156 21.546875 20.273438 21.886719 20.269531 22.230469 C 19.894531 22.425781 19.515625 22.460938 19.128906 22.441406 C 18.523438 22.410156 18.183594 22.082031 18.136719 21.46875 C 18.113281 21.164062 18.125 20.863281 18.125 20.5625 C 18.125 19.054688 18.125 17.546875 18.125 15.980469 Z M 18.125 15.980469 "/>
<path style=" stroke:none;fill-rule:nonzero;fill:rgb(32.549021%,32.549021%,32.549021%);fill-opacity:1;" d="M 6.007812 17.84375 C 6.464844 17.867188 6.882812 17.792969 7.328125 17.90625 C 7.328125 19.378906 7.328125 20.832031 7.328125 22.308594 C 6.894531 22.4375 6.472656 22.347656 6.007812 22.382812 C 6.007812 20.871094 6.007812 19.398438 6.007812 17.84375 Z M 6.007812 17.84375 "/>
<path style=" stroke:none;fill-rule:nonzero;fill:rgb(32.549021%,32.549021%,32.549021%);fill-opacity:1;" d="M 38.871094 22.605469 C 38.871094 20.355469 38.871094 18.101562 38.878906 15.847656 C 38.878906 15.804688 38.953125 15.757812 38.988281 15.71875 C 39.070312 15.738281 39.132812 15.773438 39.132812 15.839844 C 39.132812 18.058594 39.132812 20.273438 39.125 22.492188 C 39.125 22.539062 39.046875 22.582031 39.007812 22.628906 C 38.960938 22.625 38.917969 22.613281 38.871094 22.605469 Z M 38.871094 22.605469 "/>
<path style=" stroke:none;fill-rule:nonzero;fill:rgb(32.549021%,32.549021%,32.549021%);fill-opacity:1;" d="M 5.957031 15.984375 C 6.453125 15.984375 6.871094 15.984375 7.285156 15.984375 C 7.4375 16.195312 7.363281 16.414062 7.367188 16.621094 C 7.371094 16.804688 7.414062 17 7.308594 17.210938 C 6.894531 17.210938 6.476562 17.210938 6.039062 17.210938 C 5.878906 17.046875 5.976562 16.820312 5.960938 16.617188 C 5.945312 16.429688 5.957031 16.238281 5.957031 15.984375 Z M 5.957031 15.984375 "/>
<path style=" stroke:none;fill-rule:nonzero;fill:rgb(100%,100%,100%);fill-opacity:1;" d="M 44.375 6.484375 C 44.394531 8.480469 42.695312 9.808594 40.882812 9.210938 C 39.804688 8.855469 39.269531 8.042969 39.105469 6.964844 C 39.050781 6.585938 39.050781 6.1875 39.144531 5.804688 C 39.5 4.355469 40.5625 3.632812 41.84375 3.679688 C 43.238281 3.730469 44.261719 4.800781 44.375 6.226562 C 44.382812 6.3125 44.375 6.398438 44.375 6.484375 Z M 44.375 6.484375 "/>
<path style=" stroke:none;fill-rule:nonzero;fill:rgb(100%,100%,100%);fill-opacity:1;" d="M 24.710938 6.589844 C 24.695312 5.617188 24.988281 4.835938 25.707031 4.246094 C 27.003906 3.1875 29.320312 3.578125 29.878906 5.636719 C 30.15625 6.644531 30.019531 7.613281 29.328125 8.4375 C 28.628906 9.273438 27.492188 9.574219 26.457031 9.199219 C 25.398438 8.816406 24.859375 8.015625 24.726562 6.917969 C 24.710938 6.789062 24.714844 6.65625 24.710938 6.589844 Z M 24.710938 6.589844 "/>
<path style=" stroke:none;fill-rule:nonzero;fill:rgb(100%,100%,100%);fill-opacity:1;" d="M 66.40625 5.1875 C 66.464844 4.222656 67.398438 3.390625 68.429688 3.351562 C 69.386719 3.316406 70.488281 3.84375 70.710938 5.1875 C 69.273438 5.1875 67.84375 5.1875 66.40625 5.1875 Z M 66.40625 5.1875 "/>
<path style=" stroke:none;fill-rule:nonzero;fill:rgb(100%,100%,100%);fill-opacity:1;" d="M 44.394531 19.882812 C 44.136719 19.769531 43.90625 19.667969 43.617188 19.539062 C 43.71875 18.722656 43.820312 17.894531 43.925781 17.019531 C 44.78125 17.019531 45.632812 17.019531 46.511719 17.019531 C 46.628906 17.285156 46.5625 17.574219 46.550781 17.914062 C 45.964844 17.914062 45.414062 17.914062 44.921875 17.914062 C 44.726562 18.078125 44.753906 18.226562 44.78125 18.390625 C 44.835938 18.40625 44.894531 18.445312 44.949219 18.4375 C 45.277344 18.414062 45.59375 18.46875 45.890625 18.601562 C 46.816406 19.003906 47.191406 20.09375 46.726562 20.988281 C 46.246094 21.898438 45.042969 22.183594 44.164062 21.597656 C 43.917969 21.433594 43.8125 21.304688 43.605469 20.914062 C 43.652344 20.71875 43.84375 20.761719 43.972656 20.707031 C 44.105469 20.648438 44.257812 20.617188 44.390625 20.578125 C 45.101562 21.039062 45.5625 21.050781 45.851562 20.628906 C 46.066406 20.3125 46.003906 19.8125 45.71875 19.5625 C 45.328125 19.234375 44.957031 19.3125 44.394531 19.882812 Z M 44.394531 19.882812 "/>
<path style=" stroke:none;fill-rule:nonzero;fill:rgb(100%,100%,100%);fill-opacity:1;" d="M 22.808594 17.261719 C 23.136719 17.261719 23.433594 17.242188 23.730469 17.265625 C 24.328125 17.3125 24.644531 17.652344 24.648438 18.214844 C 24.648438 18.761719 24.320312 19.128906 23.742188 19.1875 C 23.449219 19.21875 23.148438 19.195312 22.808594 19.195312 C 22.808594 18.558594 22.808594 17.949219 22.808594 17.261719 Z M 22.808594 17.261719 "/>
<path style=" stroke:none;fill-rule:nonzero;fill:rgb(100%,100%,100%);fill-opacity:1;" d="M 15.875 20.4375 C 15.761719 21.289062 15.230469 21.652344 14.53125 21.449219 C 14.242188 21.367188 14.089844 21.207031 14.082031 20.902344 C 14.074219 20.605469 14.210938 20.398438 14.488281 20.316406 C 14.953125 20.175781 15.410156 20.175781 15.875 20.4375 Z M 15.875 20.4375 "/>
<path style=" stroke:none;fill-rule:nonzero;fill:rgb(100%,100%,100%);fill-opacity:1;" d="M 29.390625 20.417969 C 29.378906 21.214844 28.835938 21.660156 28.140625 21.472656 C 27.816406 21.382812 27.601562 21.164062 27.613281 20.902344 C 27.628906 20.585938 27.808594 20.363281 28.101562 20.289062 C 28.523438 20.1875 28.949219 20.179688 29.390625 20.417969 Z M 29.390625 20.417969 "/>
</g>
</svg>
